M48
; DRILL file {KiCad (6.0.10)} date Mon Apr 14 00:06:18 2025
; FORMAT={-:-/ absolute / inch / decimal}
; #@! TF.CreationDate,2025-04-14T00:06:18+02:00
; #@! TF.GenerationSoftware,Kicad,Pcbnew,(6.0.10)
; #@! TF.FileFunction,Plated,1,2,PTH
FMAT,2
INCH
; #@! TA.AperFunction,Plated,PTH,ViaDrill
T1C0.0157
; #@! TA.AperFunction,Plated,PTH,ComponentDrill
T2C0.0315
; #@! TA.AperFunction,Plated,PTH,ComponentDrill
T3C0.0394
; #@! TA.AperFunction,Plated,PTH,ComponentDrill
T4C0.0402
; #@! TA.AperFunction,Plated,PTH,ComponentDrill
T5C0.0433
; #@! TA.AperFunction,Plated,PTH,ComponentDrill
T6C0.0512
%
G90
G05
T1
X4.6822Y-2.0692
X5.425Y-2.65
X5.525Y-3.075
X6.625Y-2.525
X6.65Y-2.575
X6.7126Y-2.7843
X7.2Y-4.35
X7.25Y-4.35
X7.45Y-4.2192
X7.55Y-3.562
X7.825Y-4.5
X7.825Y-4.55
X8.95Y-4.7
X9.0372Y-3.9242
T2
X7.675Y-3.0
X7.675Y-3.5
X7.675Y-3.8496
X7.675Y-4.3496
X7.775Y-3.0
X7.775Y-3.5
X7.775Y-3.8496
X7.775Y-4.3496
X7.875Y-3.0
X7.875Y-3.5
X7.875Y-3.8496
X7.875Y-4.3496
X7.975Y-3.0
X7.975Y-3.5
X7.975Y-3.8496
X7.975Y-4.3496
X8.075Y-3.0
X8.075Y-3.5
X8.075Y-3.8496
X8.075Y-4.3496
X8.175Y-3.0
X8.175Y-3.5
X8.175Y-3.8496
X8.175Y-4.3496
X8.275Y-3.0
X8.275Y-3.5
X8.275Y-3.8496
X8.275Y-4.3496
X8.375Y-3.0
X8.375Y-3.5
X8.375Y-3.8496
X8.375Y-4.3496
X8.8Y-3.2094
X8.8Y-3.3079
X8.8Y-4.0516
X8.8Y-4.15
T3
X2.8Y-2.25
X2.8Y-2.39
X2.8Y-2.49
X2.8Y-2.641
X2.9Y-2.25
X2.9Y-2.39
X2.9Y-2.49
X2.9Y-2.641
X3.0Y-2.25
X3.0Y-2.39
X3.0Y-2.49
X3.0Y-2.641
X3.0754Y-3.9002
X3.0754Y-4.0002
X3.0754Y-4.7002
X3.0754Y-4.8002
X3.1Y-2.25
X3.1Y-2.39
X3.1Y-2.49
X3.1Y-2.641
X3.1754Y-3.9002
X3.1754Y-4.0002
X3.1754Y-4.7002
X3.1754Y-4.8002
X3.2Y-2.25
X3.2Y-2.39
X3.2Y-2.49
X3.2Y-2.641
X3.2754Y-3.9002
X3.2754Y-4.0002
X3.2754Y-4.7002
X3.2754Y-4.8002
X3.3Y-2.25
X3.3Y-2.39
X3.3Y-2.49
X3.3Y-2.641
X3.3754Y-3.9002
X3.3754Y-4.0002
X3.3754Y-4.7002
X3.3754Y-4.8002
X3.4Y-2.25
X3.4Y-2.39
X3.4Y-2.49
X3.4Y-2.641
X3.5Y-2.25
X3.5Y-2.39
X3.5Y-2.49
X3.5Y-2.641
X3.6Y-2.25
X3.6Y-2.39
X3.6Y-2.49
X3.6Y-2.641
X3.7Y-2.25
X3.7Y-2.39
X3.7Y-2.49
X3.7Y-2.641
X3.8Y-2.25
X3.8Y-2.39
X3.8Y-2.49
X3.8Y-2.641
X3.9Y-2.25
X3.9Y-2.39
X3.9Y-2.49
X3.9Y-2.641
X3.9754Y-3.9
X3.9754Y-4.0
X3.9754Y-4.6752
X3.9754Y-4.7752
X4.0Y-2.25
X4.0Y-2.39
X4.0Y-2.49
X4.0Y-2.641
X4.0754Y-3.9
X4.0754Y-4.0
X4.0754Y-4.6752
X4.0754Y-4.7752
X4.1Y-2.25
X4.1Y-2.39
X4.1Y-2.49
X4.1Y-2.641
X4.1754Y-3.9
X4.1754Y-4.0
X4.1754Y-4.6752
X4.1754Y-4.7752
X4.2Y-2.25
X4.2Y-2.39
X4.2Y-2.49
X4.2Y-2.641
X4.2754Y-3.9
X4.2754Y-4.0
X4.2754Y-4.6752
X4.2754Y-4.7752
X4.3Y-2.25
X4.3Y-2.39
X4.3Y-2.49
X4.3Y-2.641
X4.4Y-2.25
X4.4Y-2.39
X4.4Y-2.49
X4.4Y-2.641
X4.5Y-2.25
X4.5Y-2.39
X4.5Y-2.49
X4.5Y-2.641
X4.6Y-2.25
X4.6Y-2.39
X4.6Y-2.49
X4.6Y-2.641
X4.7Y-2.25
X4.7Y-2.39
X4.7Y-2.49
X4.7Y-2.641
X4.875Y-3.9012
X4.875Y-4.0012
X4.8754Y-4.7
X4.8754Y-4.8
X4.975Y-3.9012
X4.975Y-4.0012
X4.9754Y-4.7
X4.9754Y-4.8
X5.075Y-3.9012
X5.075Y-4.0012
X5.0754Y-4.7
X5.0754Y-4.8
X5.175Y-3.9012
X5.175Y-4.0012
X5.1754Y-4.7
X5.1754Y-4.8
X5.775Y-3.9
X5.775Y-4.0
X5.775Y-4.7
X5.775Y-4.8
X5.875Y-3.9
X5.875Y-4.0
X5.875Y-4.7
X5.875Y-4.8
X5.975Y-3.9
X5.975Y-4.0
X5.975Y-4.7
X5.975Y-4.8
X6.075Y-3.9
X6.075Y-4.0
X6.075Y-4.7
X6.075Y-4.8
X6.8Y-3.15
X6.8Y-3.45
X6.8Y-3.85
X6.9Y-3.15
X6.9Y-3.45
X6.9Y-3.85
X7.0921Y-2.66
X7.0941Y-2.7764
X7.0941Y-4.6764
X7.0941Y-4.8
X7.1921Y-2.66
X7.1941Y-2.7764
X7.1941Y-4.6764
X7.1941Y-4.8
X7.2921Y-2.66
X7.2941Y-2.7764
X7.2941Y-4.6764
X7.2941Y-4.8
X7.3921Y-2.66
X7.3941Y-2.7764
X7.3941Y-4.6764
X7.3941Y-4.8
X7.4921Y-2.66
X7.4941Y-2.7764
X7.4941Y-4.6764
X7.4941Y-4.8
X7.5921Y-2.66
X7.5941Y-2.7764
X7.5941Y-4.6764
X7.5941Y-4.8
X7.6941Y-4.6764
X7.6941Y-4.8
X7.7941Y-2.7764
X7.7941Y-4.6764
X7.7941Y-4.8
X7.8941Y-2.7764
X7.9539Y-4.6764
X7.9539Y-4.8
X7.9941Y-2.7764
X8.0539Y-4.6764
X8.0539Y-4.8
X8.0941Y-2.7764
X8.1539Y-4.6764
X8.1539Y-4.8
X8.1941Y-2.7764
X8.2539Y-4.6764
X8.2539Y-4.8
X8.2941Y-2.7764
X8.3539Y-4.6764
X8.3539Y-4.8
X8.3941Y-2.7764
X8.4539Y-4.6764
X8.4539Y-4.8
X8.4941Y-2.7764
X8.5539Y-4.6764
X8.6539Y-4.6764
X8.7539Y-4.6764
X8.8539Y-4.6764
X9.3Y-3.1508
X9.3Y-3.2508
X9.3Y-3.3508
X9.3Y-3.4508
X9.3Y-4.0
X9.3Y-4.1
X9.3Y-4.2
X9.3Y-4.3
T4
X2.925Y-3.85
X2.925Y-3.95
X2.925Y-4.05
X2.925Y-4.15
X2.925Y-4.25
X2.925Y-4.35
X2.925Y-4.45
X2.925Y-4.55
X3.525Y-3.45
X3.525Y-3.55
X3.525Y-3.65
X3.525Y-3.75
X3.525Y-3.85
X3.525Y-3.95
X3.525Y-4.05
X3.525Y-4.15
X3.525Y-4.25
X3.525Y-4.35
X3.525Y-4.45
X3.525Y-4.55
X3.525Y-4.65
X3.525Y-4.75
X3.525Y-4.85
X3.525Y-4.95
X3.825Y-3.85
X3.825Y-3.95
X3.825Y-4.05
X3.825Y-4.15
X3.825Y-4.25
X3.825Y-4.35
X3.825Y-4.45
X3.825Y-4.55
X4.425Y-3.45
X4.425Y-3.55
X4.425Y-3.65
X4.425Y-3.75
X4.425Y-3.85
X4.425Y-3.95
X4.425Y-4.05
X4.425Y-4.15
X4.425Y-4.25
X4.425Y-4.35
X4.425Y-4.45
X4.425Y-4.55
X4.425Y-4.65
X4.425Y-4.75
X4.425Y-4.85
X4.425Y-4.95
X4.7254Y-3.8502
X4.7254Y-3.9502
X4.7254Y-4.0502
X4.7254Y-4.1502
X4.7254Y-4.2502
X4.7254Y-4.3502
X4.7254Y-4.4502
X4.7254Y-4.5502
X5.3254Y-3.4502
X5.3254Y-3.5502
X5.3254Y-3.6502
X5.3254Y-3.7502
X5.3254Y-3.8502
X5.3254Y-3.9502
X5.3254Y-4.0502
X5.3254Y-4.1502
X5.3254Y-4.2502
X5.3254Y-4.3502
X5.3254Y-4.4502
X5.3254Y-4.5502
X5.3254Y-4.6502
X5.3254Y-4.7502
X5.3254Y-4.8502
X5.3254Y-4.9502
X5.625Y-3.85
X5.625Y-3.95
X5.625Y-4.05
X5.625Y-4.15
X5.625Y-4.25
X5.625Y-4.35
X5.625Y-4.45
X5.625Y-4.55
X6.225Y-3.45
X6.225Y-3.55
X6.225Y-3.65
X6.225Y-3.75
X6.225Y-3.85
X6.225Y-3.95
X6.225Y-4.05
X6.225Y-4.15
X6.225Y-4.25
X6.225Y-4.35
X6.225Y-4.45
X6.225Y-4.55
X6.225Y-4.65
X6.225Y-4.75
X6.225Y-4.85
X6.225Y-4.95
T5
X6.8Y-4.35
X6.9Y-4.35
X7.0Y-4.35
T6
X9.6Y-2.6031
X9.6Y-2.8
T0
M30
