%TF.GenerationSoftware,KiCad,Pcbnew,(6.0.10)*%
%TF.CreationDate,2025-04-14T00:06:24+02:00*%
%TF.ProjectId,pcb_shield,7063625f-7368-4696-956c-642e6b696361,1.0*%
%TF.SameCoordinates,Original*%
%TF.FileFunction,Drillmap*%
%TF.FilePolarity,Positive*%
%FSLAX45Y45*%
G04 Gerber Fmt 4.5, Leading zero omitted, Abs format (unit mm)*
G04 Created by KiCad (PCBNEW (6.0.10)) date 2025-04-14 00:06:24*
%MOMM*%
%LPD*%
G01*
G04 APERTURE LIST*
%ADD10C,0.100000*%
%ADD11C,0.200000*%
G04 APERTURE END LIST*
D10*
X13834500Y-5954900D02*
G75*
G03*
X13834500Y-5954900I-250000J0D01*
G01*
X7015600Y-12204900D02*
G75*
G03*
X7015600Y-12204900I-250000J0D01*
G01*
X17009300Y-12204900D02*
G75*
G03*
X17009300Y-12204900I-250000J0D01*
G01*
X23828200Y-5954900D02*
G75*
G03*
X23828200Y-5954900I-250000J0D01*
G01*
X6075800Y-5065300D02*
X25075800Y-5065300D01*
X25075800Y-5065300D02*
X25075800Y-13065300D01*
X25075800Y-13065300D02*
X6075800Y-13065300D01*
X6075800Y-13065300D02*
X6075800Y-5065300D01*
D11*
X6328419Y-13380776D02*
X6328419Y-13180776D01*
X6376038Y-13180776D01*
X6404609Y-13190300D01*
X6423657Y-13209348D01*
X6433181Y-13228395D01*
X6442705Y-13266490D01*
X6442705Y-13295062D01*
X6433181Y-13333157D01*
X6423657Y-13352205D01*
X6404609Y-13371252D01*
X6376038Y-13380776D01*
X6328419Y-13380776D01*
X6528419Y-13380776D02*
X6528419Y-13247443D01*
X6528419Y-13285538D02*
X6537943Y-13266490D01*
X6547467Y-13256967D01*
X6566514Y-13247443D01*
X6585562Y-13247443D01*
X6652228Y-13380776D02*
X6652228Y-13247443D01*
X6652228Y-13180776D02*
X6642705Y-13190300D01*
X6652228Y-13199824D01*
X6661752Y-13190300D01*
X6652228Y-13180776D01*
X6652228Y-13199824D01*
X6776038Y-13380776D02*
X6756990Y-13371252D01*
X6747467Y-13352205D01*
X6747467Y-13180776D01*
X6880800Y-13380776D02*
X6861752Y-13371252D01*
X6852228Y-13352205D01*
X6852228Y-13180776D01*
X7109371Y-13380776D02*
X7109371Y-13180776D01*
X7176038Y-13323633D01*
X7242705Y-13180776D01*
X7242705Y-13380776D01*
X7423657Y-13380776D02*
X7423657Y-13276014D01*
X7414133Y-13256967D01*
X7395086Y-13247443D01*
X7356990Y-13247443D01*
X7337943Y-13256967D01*
X7423657Y-13371252D02*
X7404609Y-13380776D01*
X7356990Y-13380776D01*
X7337943Y-13371252D01*
X7328419Y-13352205D01*
X7328419Y-13333157D01*
X7337943Y-13314109D01*
X7356990Y-13304586D01*
X7404609Y-13304586D01*
X7423657Y-13295062D01*
X7518895Y-13247443D02*
X7518895Y-13447443D01*
X7518895Y-13256967D02*
X7537943Y-13247443D01*
X7576038Y-13247443D01*
X7595086Y-13256967D01*
X7604609Y-13266490D01*
X7614133Y-13285538D01*
X7614133Y-13342681D01*
X7604609Y-13361728D01*
X7595086Y-13371252D01*
X7576038Y-13380776D01*
X7537943Y-13380776D01*
X7518895Y-13371252D01*
X7699848Y-13361728D02*
X7709371Y-13371252D01*
X7699848Y-13380776D01*
X7690324Y-13371252D01*
X7699848Y-13361728D01*
X7699848Y-13380776D01*
X7699848Y-13256967D02*
X7709371Y-13266490D01*
X7699848Y-13276014D01*
X7690324Y-13266490D01*
X7699848Y-13256967D01*
X7699848Y-13276014D01*
M02*
