%TF.GenerationSoftware,KiCad,Pcbnew,(6.0.10)*%
%TF.CreationDate,2025-04-14T00:06:01+02:00*%
%TF.ProjectId,pcb_shield,7063625f-7368-4696-956c-642e6b696361,1.0*%
%TF.SameCoordinates,Original*%
%TF.FileFunction,Soldermask,Bot*%
%TF.FilePolarity,Negative*%
%FSLAX46Y46*%
G04 Gerber Fmt 4.6, Leading zero omitted, Abs format (unit mm)*
G04 Created by KiCad (PCBNEW (6.0.10)) date 2025-04-14 00:06:01*
%MOMM*%
%LPD*%
G01*
G04 APERTURE LIST*
G04 Aperture macros list*
%AMRoundRect*
0 Rectangle with rounded corners*
0 $1 Rounding radius*
0 $2 $3 $4 $5 $6 $7 $8 $9 X,Y pos of 4 corners*
0 Add a 4 corners polygon primitive as box body*
4,1,4,$2,$3,$4,$5,$6,$7,$8,$9,$2,$3,0*
0 Add four circle primitives for the rounded corners*
1,1,$1+$1,$2,$3*
1,1,$1+$1,$4,$5*
1,1,$1+$1,$6,$7*
1,1,$1+$1,$8,$9*
0 Add four rect primitives between the rounded corners*
20,1,$1+$1,$2,$3,$4,$5,0*
20,1,$1+$1,$4,$5,$6,$7,0*
20,1,$1+$1,$6,$7,$8,$9,0*
20,1,$1+$1,$8,$9,$2,$3,0*%
G04 Aperture macros list end*
%ADD10R,2.600000X2.600000*%
%ADD11C,2.600000*%
%ADD12R,1.700000X1.700000*%
%ADD13O,1.700000X1.700000*%
%ADD14R,1.600000X1.600000*%
%ADD15C,1.600000*%
%ADD16R,1.905000X2.000000*%
%ADD17O,1.905000X2.000000*%
%ADD18O,1.600000X1.600000*%
%ADD19C,1.734000*%
%ADD20RoundRect,0.102000X0.765000X0.765000X-0.765000X0.765000X-0.765000X-0.765000X0.765000X-0.765000X0*%
G04 APERTURE END LIST*
D10*
%TO.C,J14*%
X243840000Y-71120000D03*
D11*
X243840000Y-66120000D03*
%TD*%
D12*
%TO.C,J4*%
X100975000Y-101600000D03*
D13*
X100975000Y-99060000D03*
X103515000Y-101600000D03*
X103515000Y-99060000D03*
X106055000Y-101600000D03*
X106055000Y-99060000D03*
X108595000Y-101600000D03*
X108595000Y-99060000D03*
%TD*%
D12*
%TO.C,J12*%
X172720000Y-87630000D03*
D13*
X175260000Y-87630000D03*
%TD*%
D12*
%TO.C,J15*%
X119380000Y-67081000D03*
D13*
X116840000Y-67081000D03*
X114300000Y-67081000D03*
X111760000Y-67081000D03*
X109220000Y-67081000D03*
X106680000Y-67081000D03*
X104140000Y-67081000D03*
X101600000Y-67081000D03*
X99060000Y-67081000D03*
X96520000Y-67081000D03*
X93980000Y-67081000D03*
X91440000Y-67081000D03*
X88900000Y-67081000D03*
X86360000Y-67081000D03*
X83820000Y-67081000D03*
X81280000Y-67081000D03*
X78740000Y-67081000D03*
X76200000Y-67081000D03*
X73660000Y-67081000D03*
X71120000Y-67081000D03*
%TD*%
D12*
%TO.C,J2*%
X78115000Y-101605000D03*
D13*
X78115000Y-99065000D03*
X80655000Y-101605000D03*
X80655000Y-99065000D03*
X83195000Y-101605000D03*
X83195000Y-99065000D03*
X85735000Y-101605000D03*
X85735000Y-99065000D03*
%TD*%
D12*
%TO.C,J19*%
X192840000Y-67564000D03*
D13*
X190300000Y-67564000D03*
X187760000Y-67564000D03*
X185220000Y-67564000D03*
X182680000Y-67564000D03*
X180140000Y-67564000D03*
%TD*%
D14*
%TO.C,C1*%
X223520000Y-84020000D03*
D15*
X223520000Y-81520000D03*
%TD*%
D12*
%TO.C,J6*%
X123825000Y-101630000D03*
D13*
X123825000Y-99090000D03*
X126365000Y-101630000D03*
X126365000Y-99090000D03*
X128905000Y-101630000D03*
X128905000Y-99090000D03*
X131445000Y-101630000D03*
X131445000Y-99090000D03*
%TD*%
D12*
%TO.C,J13*%
X172720000Y-80010000D03*
D13*
X175260000Y-80010000D03*
%TD*%
D12*
%TO.C,J3*%
X100975000Y-121290000D03*
D13*
X100975000Y-118750000D03*
X103515000Y-121290000D03*
X103515000Y-118750000D03*
X106055000Y-121290000D03*
X106055000Y-118750000D03*
X108595000Y-121290000D03*
X108595000Y-118750000D03*
%TD*%
D12*
%TO.C,J9*%
X172720000Y-97790000D03*
D13*
X175260000Y-97790000D03*
%TD*%
D12*
%TO.C,J18*%
X202030000Y-121920000D03*
D13*
X204570000Y-121920000D03*
X207110000Y-121920000D03*
X209650000Y-121920000D03*
X212190000Y-121920000D03*
X214730000Y-121920000D03*
%TD*%
D12*
%TO.C,J16*%
X119380000Y-57150000D03*
D13*
X116840000Y-57150000D03*
X114300000Y-57150000D03*
X111760000Y-57150000D03*
X109220000Y-57150000D03*
X106680000Y-57150000D03*
X104140000Y-57150000D03*
X101600000Y-57150000D03*
X99060000Y-57150000D03*
X96520000Y-57150000D03*
X93980000Y-57150000D03*
X91440000Y-57150000D03*
X88900000Y-57150000D03*
X86360000Y-57150000D03*
X83820000Y-57150000D03*
X81280000Y-57150000D03*
X78740000Y-57150000D03*
X76200000Y-57150000D03*
X73660000Y-57150000D03*
X71120000Y-57150000D03*
%TD*%
D16*
%TO.C,Q1*%
X172720000Y-110490000D03*
D17*
X175260000Y-110490000D03*
X177800000Y-110490000D03*
%TD*%
D12*
%TO.C,J8*%
X146685000Y-101600000D03*
D13*
X146685000Y-99060000D03*
X149225000Y-101600000D03*
X149225000Y-99060000D03*
X151765000Y-101600000D03*
X151765000Y-99060000D03*
X154305000Y-101600000D03*
X154305000Y-99060000D03*
%TD*%
D14*
%TO.C,C2*%
X223520000Y-105410000D03*
D15*
X223520000Y-102910000D03*
%TD*%
D12*
%TO.C,J10*%
X236220000Y-80030000D03*
D13*
X236220000Y-82570000D03*
X236220000Y-85110000D03*
X236220000Y-87650000D03*
%TD*%
D12*
%TO.C,J5*%
X123835000Y-121920000D03*
D13*
X123835000Y-119380000D03*
X126375000Y-121920000D03*
X126375000Y-119380000D03*
X128915000Y-121920000D03*
X128915000Y-119380000D03*
X131455000Y-121920000D03*
X131455000Y-119380000D03*
%TD*%
D14*
%TO.C,A4*%
X194945000Y-110480000D03*
D18*
X197485000Y-110480000D03*
X200025000Y-110480000D03*
X202565000Y-110480000D03*
X205105000Y-110480000D03*
X207645000Y-110480000D03*
X210185000Y-110480000D03*
X212725000Y-110480000D03*
X212725000Y-97780000D03*
X210185000Y-97780000D03*
X207645000Y-97780000D03*
X205105000Y-97780000D03*
X202565000Y-97780000D03*
X200025000Y-97780000D03*
X197485000Y-97780000D03*
X194945000Y-97780000D03*
%TD*%
D12*
%TO.C,J1*%
X78115000Y-121925000D03*
D13*
X78115000Y-119385000D03*
X80655000Y-121925000D03*
X80655000Y-119385000D03*
X83195000Y-121925000D03*
X83195000Y-119385000D03*
X85735000Y-121925000D03*
X85735000Y-119385000D03*
%TD*%
D12*
%TO.C,J7*%
X146685000Y-121920000D03*
D13*
X146685000Y-119380000D03*
X149225000Y-121920000D03*
X149225000Y-119380000D03*
X151765000Y-121920000D03*
X151765000Y-119380000D03*
X154305000Y-121920000D03*
X154305000Y-119380000D03*
%TD*%
D14*
%TO.C,A3*%
X194945000Y-88900000D03*
D18*
X197485000Y-88900000D03*
X200025000Y-88900000D03*
X202565000Y-88900000D03*
X205105000Y-88900000D03*
X207645000Y-88900000D03*
X210185000Y-88900000D03*
X212725000Y-88900000D03*
X212725000Y-76200000D03*
X210185000Y-76200000D03*
X207645000Y-76200000D03*
X205105000Y-76200000D03*
X202565000Y-76200000D03*
X200025000Y-76200000D03*
X197485000Y-76200000D03*
X194945000Y-76200000D03*
%TD*%
D12*
%TO.C,J11*%
X236220000Y-101600000D03*
D13*
X236220000Y-104140000D03*
X236220000Y-106680000D03*
X236220000Y-109220000D03*
%TD*%
D12*
%TO.C,J17*%
X180190000Y-121920000D03*
D13*
X182730000Y-121920000D03*
X185270000Y-121920000D03*
X187810000Y-121920000D03*
X190350000Y-121920000D03*
X192890000Y-121920000D03*
X195430000Y-121920000D03*
X197970000Y-121920000D03*
%TD*%
D19*
%TO.C,U1*%
X89535000Y-125730000D03*
X89535000Y-123190000D03*
X89535000Y-120650000D03*
X89535000Y-118110000D03*
X89535000Y-115570000D03*
X89535000Y-113030000D03*
X89535000Y-110490000D03*
X89535000Y-107950000D03*
X89535000Y-105410000D03*
X89535000Y-102870000D03*
X89535000Y-100330000D03*
X89535000Y-97790000D03*
X89535000Y-95250000D03*
X89535000Y-92710000D03*
X89535000Y-90170000D03*
X89535000Y-87630000D03*
D20*
X74295000Y-115570000D03*
D19*
X74295000Y-113030000D03*
X74295000Y-110490000D03*
X74295000Y-107950000D03*
X74295000Y-105410000D03*
X74295000Y-102870000D03*
X74295000Y-100330000D03*
X74295000Y-97790000D03*
%TD*%
%TO.C,U4*%
X158115000Y-125730000D03*
X158115000Y-123190000D03*
X158115000Y-120650000D03*
X158115000Y-118110000D03*
X158115000Y-115570000D03*
X158115000Y-113030000D03*
X158115000Y-110490000D03*
X158115000Y-107950000D03*
X158115000Y-105410000D03*
X158115000Y-102870000D03*
X158115000Y-100330000D03*
X158115000Y-97790000D03*
X158115000Y-95250000D03*
X158115000Y-92710000D03*
X158115000Y-90170000D03*
X158115000Y-87630000D03*
D20*
X142875000Y-115570000D03*
D19*
X142875000Y-113030000D03*
X142875000Y-110490000D03*
X142875000Y-107950000D03*
X142875000Y-105410000D03*
X142875000Y-102870000D03*
X142875000Y-100330000D03*
X142875000Y-97790000D03*
%TD*%
%TO.C,U3*%
X135265000Y-125735000D03*
X135265000Y-123195000D03*
X135265000Y-120655000D03*
X135265000Y-118115000D03*
X135265000Y-115575000D03*
X135265000Y-113035000D03*
X135265000Y-110495000D03*
X135265000Y-107955000D03*
X135265000Y-105415000D03*
X135265000Y-102875000D03*
X135265000Y-100335000D03*
X135265000Y-97795000D03*
X135265000Y-95255000D03*
X135265000Y-92715000D03*
X135265000Y-90175000D03*
X135265000Y-87635000D03*
D20*
X120025000Y-115575000D03*
D19*
X120025000Y-113035000D03*
X120025000Y-110495000D03*
X120025000Y-107955000D03*
X120025000Y-105415000D03*
X120025000Y-102875000D03*
X120025000Y-100335000D03*
X120025000Y-97795000D03*
%TD*%
%TO.C,U2*%
X112395000Y-125730000D03*
X112395000Y-123190000D03*
X112395000Y-120650000D03*
X112395000Y-118110000D03*
X112395000Y-115570000D03*
X112395000Y-113030000D03*
X112395000Y-110490000D03*
X112395000Y-107950000D03*
X112395000Y-105410000D03*
X112395000Y-102870000D03*
X112395000Y-100330000D03*
X112395000Y-97790000D03*
X112395000Y-95250000D03*
X112395000Y-92710000D03*
X112395000Y-90170000D03*
X112395000Y-87630000D03*
D20*
X97155000Y-115570000D03*
D19*
X97155000Y-113030000D03*
X97155000Y-110490000D03*
X97155000Y-107950000D03*
X97155000Y-105410000D03*
X97155000Y-102870000D03*
X97155000Y-100330000D03*
X97155000Y-97790000D03*
%TD*%
D13*
%TO.C,A1*%
X119380000Y-63246000D03*
X116840000Y-63246000D03*
X114300000Y-63246000D03*
X111760000Y-63246000D03*
X109220000Y-63246000D03*
X106680000Y-63246000D03*
X104140000Y-63246000D03*
X101600000Y-63246000D03*
X99060000Y-63246000D03*
X96520000Y-63246000D03*
X93980000Y-63246000D03*
X91440000Y-63246000D03*
X88900000Y-63246000D03*
X86360000Y-63246000D03*
X83820000Y-63246000D03*
X81280000Y-63246000D03*
X78740000Y-63246000D03*
X76200000Y-63246000D03*
X73660000Y-63246000D03*
X71120000Y-63246000D03*
D12*
X119380000Y-60706000D03*
D13*
X116840000Y-60706000D03*
X114300000Y-60706000D03*
X111760000Y-60706000D03*
X109220000Y-60706000D03*
X106680000Y-60706000D03*
X104140000Y-60706000D03*
X101600000Y-60706000D03*
X99060000Y-60706000D03*
X96520000Y-60706000D03*
X93980000Y-60706000D03*
X91440000Y-60706000D03*
X88900000Y-60706000D03*
X86360000Y-60706000D03*
X83820000Y-60706000D03*
X81280000Y-60706000D03*
X78740000Y-60706000D03*
X76200000Y-60706000D03*
X73660000Y-60706000D03*
X71120000Y-60706000D03*
%TD*%
D14*
%TO.C,A2*%
X215750000Y-70520000D03*
D18*
X213210000Y-70520000D03*
X210670000Y-70520000D03*
X208130000Y-70520000D03*
X205590000Y-70520000D03*
X203050000Y-70520000D03*
X200510000Y-70520000D03*
X197970000Y-70520000D03*
X192890000Y-70520000D03*
X190350000Y-70520000D03*
X187810000Y-70520000D03*
X185270000Y-70520000D03*
X182730000Y-70520000D03*
X180190000Y-70520000D03*
X180190000Y-118780000D03*
X182730000Y-118780000D03*
X185270000Y-118780000D03*
X187810000Y-118780000D03*
X190350000Y-118780000D03*
X192890000Y-118780000D03*
X195430000Y-118780000D03*
X197970000Y-118780000D03*
X202030000Y-118780000D03*
X204570000Y-118780000D03*
X207110000Y-118780000D03*
X209650000Y-118780000D03*
X212190000Y-118780000D03*
X214730000Y-118780000D03*
X217270000Y-118780000D03*
X219810000Y-118780000D03*
X222350000Y-118780000D03*
X224890000Y-118780000D03*
%TD*%
M02*
