%TF.GenerationSoftware,KiCad,Pcbnew,(6.0.10)*%
%TF.CreationDate,2025-04-13T20:47:06+02:00*%
%TF.ProjectId,pcb_shield,7063625f-7368-4696-956c-642e6b696361,1.0*%
%TF.SameCoordinates,Original*%
%TF.FileFunction,Legend,Bot*%
%TF.FilePolarity,Positive*%
%FSLAX46Y46*%
G04 Gerber Fmt 4.6, Leading zero omitted, Abs format (unit mm)*
G04 Created by KiCad (PCBNEW (6.0.10)) date 2025-04-13 20:47:06*
%MOMM*%
%LPD*%
G01*
G04 APERTURE LIST*
%ADD10C,0.150000*%
%ADD11C,0.120000*%
G04 APERTURE END LIST*
D10*
X72136000Y-70104000D02*
X72136000Y-77216000D01*
X120650000Y-73660000D02*
X69850000Y-73660000D01*
X112776000Y-70104000D02*
X112776000Y-77216000D01*
X100076000Y-70104000D02*
X100076000Y-77216000D01*
X105156000Y-70104000D02*
X105156000Y-77216000D01*
X115316000Y-70104000D02*
X115316000Y-77216000D01*
X110236000Y-70104000D02*
X110236000Y-77216000D01*
X89916000Y-70104000D02*
X89916000Y-77216000D01*
X94996000Y-70104000D02*
X94996000Y-77216000D01*
X84582000Y-70104000D02*
X84582000Y-77216000D01*
X82296000Y-70104000D02*
X82296000Y-77216000D01*
X69850000Y-77216000D02*
X120650000Y-77216000D01*
X107696000Y-70104000D02*
X107696000Y-77216000D01*
X97536000Y-70104000D02*
X97536000Y-77216000D01*
X102616000Y-70104000D02*
X102616000Y-77216000D01*
X87376000Y-70104000D02*
X87376000Y-77216000D01*
X69850000Y-70104000D02*
X120650000Y-70104000D01*
X74676000Y-70104000D02*
X74676000Y-77216000D01*
X92456000Y-70104000D02*
X92456000Y-77216000D01*
X69850000Y-73660000D02*
X69850000Y-77216000D01*
X120650000Y-77216000D02*
X120650000Y-73660000D01*
X77216000Y-70104000D02*
X77216000Y-77216000D01*
X117856000Y-70104000D02*
X117856000Y-77216000D01*
X69850000Y-73660000D02*
X69850000Y-70104000D01*
X120650000Y-70104000D02*
X120650000Y-73660000D01*
X79756000Y-70104000D02*
X79756000Y-77216000D01*
X101147619Y-74676095D02*
X101100000Y-74723714D01*
X101052380Y-74818952D01*
X101052380Y-75057047D01*
X101100000Y-75152285D01*
X101147619Y-75199904D01*
X101242857Y-75247523D01*
X101338095Y-75247523D01*
X101480952Y-75199904D01*
X102052380Y-74628476D01*
X102052380Y-75247523D01*
X101147619Y-75628476D02*
X101100000Y-75676095D01*
X101052380Y-75771333D01*
X101052380Y-76009428D01*
X101100000Y-76104666D01*
X101147619Y-76152285D01*
X101242857Y-76199904D01*
X101338095Y-76199904D01*
X101480952Y-76152285D01*
X102052380Y-75580857D01*
X102052380Y-76199904D01*
X96020000Y-71120095D02*
X95972380Y-71024857D01*
X95972380Y-70882000D01*
X96020000Y-70739142D01*
X96115238Y-70643904D01*
X96210476Y-70596285D01*
X96400952Y-70548666D01*
X96543809Y-70548666D01*
X96734285Y-70596285D01*
X96829523Y-70643904D01*
X96924761Y-70739142D01*
X96972380Y-70882000D01*
X96972380Y-70977238D01*
X96924761Y-71120095D01*
X96877142Y-71167714D01*
X96543809Y-71167714D01*
X96543809Y-70977238D01*
X96972380Y-71596285D02*
X95972380Y-71596285D01*
X96972380Y-72167714D01*
X95972380Y-72167714D01*
X96972380Y-72643904D02*
X95972380Y-72643904D01*
X95972380Y-72882000D01*
X96020000Y-73024857D01*
X96115238Y-73120095D01*
X96210476Y-73167714D01*
X96400952Y-73215333D01*
X96543809Y-73215333D01*
X96734285Y-73167714D01*
X96829523Y-73120095D01*
X96924761Y-73024857D01*
X96972380Y-72882000D01*
X96972380Y-72643904D01*
X98512380Y-74199904D02*
X98512380Y-74818952D01*
X98893333Y-74485619D01*
X98893333Y-74628476D01*
X98940952Y-74723714D01*
X98988571Y-74771333D01*
X99083809Y-74818952D01*
X99321904Y-74818952D01*
X99417142Y-74771333D01*
X99464761Y-74723714D01*
X99512380Y-74628476D01*
X99512380Y-74342761D01*
X99464761Y-74247523D01*
X99417142Y-74199904D01*
X98512380Y-75104666D02*
X99512380Y-75438000D01*
X98512380Y-75771333D01*
X98512380Y-76009428D02*
X98512380Y-76628476D01*
X98893333Y-76295142D01*
X98893333Y-76438000D01*
X98940952Y-76533238D01*
X98988571Y-76580857D01*
X99083809Y-76628476D01*
X99321904Y-76628476D01*
X99417142Y-76580857D01*
X99464761Y-76533238D01*
X99512380Y-76438000D01*
X99512380Y-76152285D01*
X99464761Y-76057047D01*
X99417142Y-76009428D01*
X118832380Y-71691523D02*
X118832380Y-71215333D01*
X119308571Y-71167714D01*
X119260952Y-71215333D01*
X119213333Y-71310571D01*
X119213333Y-71548666D01*
X119260952Y-71643904D01*
X119308571Y-71691523D01*
X119403809Y-71739142D01*
X119641904Y-71739142D01*
X119737142Y-71691523D01*
X119784761Y-71643904D01*
X119832380Y-71548666D01*
X119832380Y-71310571D01*
X119784761Y-71215333D01*
X119737142Y-71167714D01*
X118832380Y-72024857D02*
X119832380Y-72358190D01*
X118832380Y-72691523D01*
X103687619Y-74676095D02*
X103640000Y-74723714D01*
X103592380Y-74818952D01*
X103592380Y-75057047D01*
X103640000Y-75152285D01*
X103687619Y-75199904D01*
X103782857Y-75247523D01*
X103878095Y-75247523D01*
X104020952Y-75199904D01*
X104592380Y-74628476D01*
X104592380Y-75247523D01*
X103592380Y-75580857D02*
X103592380Y-76247523D01*
X104592380Y-75818952D01*
X81732380Y-71691523D02*
X81732380Y-71120095D01*
X81732380Y-71405809D02*
X80732380Y-71405809D01*
X80875238Y-71310571D01*
X80970476Y-71215333D01*
X81018095Y-71120095D01*
X80827619Y-72072476D02*
X80780000Y-72120095D01*
X80732380Y-72215333D01*
X80732380Y-72453428D01*
X80780000Y-72548666D01*
X80827619Y-72596285D01*
X80922857Y-72643904D01*
X81018095Y-72643904D01*
X81160952Y-72596285D01*
X81732380Y-72024857D01*
X81732380Y-72643904D01*
X91892380Y-75247523D02*
X91892380Y-74676095D01*
X91892380Y-74961809D02*
X90892380Y-74961809D01*
X91035238Y-74866571D01*
X91130476Y-74771333D01*
X91178095Y-74676095D01*
X91892380Y-76199904D02*
X91892380Y-75628476D01*
X91892380Y-75914190D02*
X90892380Y-75914190D01*
X91035238Y-75818952D01*
X91130476Y-75723714D01*
X91178095Y-75628476D01*
X107132380Y-75247523D02*
X107132380Y-74676095D01*
X107132380Y-74961809D02*
X106132380Y-74961809D01*
X106275238Y-74866571D01*
X106370476Y-74771333D01*
X106418095Y-74676095D01*
X106132380Y-75580857D02*
X106132380Y-76247523D01*
X107132380Y-75818952D01*
X83320000Y-71120095D02*
X83272380Y-71024857D01*
X83272380Y-70882000D01*
X83320000Y-70739142D01*
X83415238Y-70643904D01*
X83510476Y-70596285D01*
X83700952Y-70548666D01*
X83843809Y-70548666D01*
X84034285Y-70596285D01*
X84129523Y-70643904D01*
X84224761Y-70739142D01*
X84272380Y-70882000D01*
X84272380Y-70977238D01*
X84224761Y-71120095D01*
X84177142Y-71167714D01*
X83843809Y-71167714D01*
X83843809Y-70977238D01*
X84272380Y-71596285D02*
X83272380Y-71596285D01*
X84272380Y-72167714D01*
X83272380Y-72167714D01*
X84272380Y-72643904D02*
X83272380Y-72643904D01*
X83272380Y-72882000D01*
X83320000Y-73024857D01*
X83415238Y-73120095D01*
X83510476Y-73167714D01*
X83700952Y-73215333D01*
X83843809Y-73215333D01*
X84034285Y-73167714D01*
X84129523Y-73120095D01*
X84224761Y-73024857D01*
X84272380Y-72882000D01*
X84272380Y-72643904D01*
X111212380Y-70620095D02*
X111212380Y-71191523D01*
X112212380Y-70905809D02*
X111212380Y-70905809D01*
X111212380Y-71429619D02*
X112212380Y-72096285D01*
X111212380Y-72096285D02*
X112212380Y-71429619D01*
X112212380Y-72477238D02*
X111212380Y-72477238D01*
X111212380Y-72715333D01*
X111260000Y-72858190D01*
X111355238Y-72953428D01*
X111450476Y-73001047D01*
X111640952Y-73048666D01*
X111783809Y-73048666D01*
X111974285Y-73001047D01*
X112069523Y-72953428D01*
X112164761Y-72858190D01*
X112212380Y-72715333D01*
X112212380Y-72477238D01*
X108720000Y-74676095D02*
X108672380Y-74580857D01*
X108672380Y-74438000D01*
X108720000Y-74295142D01*
X108815238Y-74199904D01*
X108910476Y-74152285D01*
X109100952Y-74104666D01*
X109243809Y-74104666D01*
X109434285Y-74152285D01*
X109529523Y-74199904D01*
X109624761Y-74295142D01*
X109672380Y-74438000D01*
X109672380Y-74533238D01*
X109624761Y-74676095D01*
X109577142Y-74723714D01*
X109243809Y-74723714D01*
X109243809Y-74533238D01*
X109672380Y-75152285D02*
X108672380Y-75152285D01*
X109672380Y-75723714D01*
X108672380Y-75723714D01*
X109672380Y-76199904D02*
X108672380Y-76199904D01*
X108672380Y-76438000D01*
X108720000Y-76580857D01*
X108815238Y-76676095D01*
X108910476Y-76723714D01*
X109100952Y-76771333D01*
X109243809Y-76771333D01*
X109434285Y-76723714D01*
X109529523Y-76676095D01*
X109624761Y-76580857D01*
X109672380Y-76438000D01*
X109672380Y-76199904D01*
X216494761Y-94146666D02*
X216018571Y-94146666D01*
X216590000Y-94432380D02*
X216256666Y-93432380D01*
X215923333Y-94432380D01*
X215590000Y-94432380D02*
X215590000Y-93765714D01*
X215590000Y-93956190D02*
X215542380Y-93860952D01*
X215494761Y-93813333D01*
X215399523Y-93765714D01*
X215304285Y-93765714D01*
X214542380Y-94432380D02*
X214542380Y-93432380D01*
X214542380Y-94384761D02*
X214637619Y-94432380D01*
X214828095Y-94432380D01*
X214923333Y-94384761D01*
X214970952Y-94337142D01*
X215018571Y-94241904D01*
X215018571Y-93956190D01*
X214970952Y-93860952D01*
X214923333Y-93813333D01*
X214828095Y-93765714D01*
X214637619Y-93765714D01*
X214542380Y-93813333D01*
X213637619Y-93765714D02*
X213637619Y-94432380D01*
X214066190Y-93765714D02*
X214066190Y-94289523D01*
X214018571Y-94384761D01*
X213923333Y-94432380D01*
X213780476Y-94432380D01*
X213685238Y-94384761D01*
X213637619Y-94337142D01*
X213161428Y-94432380D02*
X213161428Y-93765714D01*
X213161428Y-93432380D02*
X213209047Y-93480000D01*
X213161428Y-93527619D01*
X213113809Y-93480000D01*
X213161428Y-93432380D01*
X213161428Y-93527619D01*
X212685238Y-93765714D02*
X212685238Y-94432380D01*
X212685238Y-93860952D02*
X212637619Y-93813333D01*
X212542380Y-93765714D01*
X212399523Y-93765714D01*
X212304285Y-93813333D01*
X212256666Y-93908571D01*
X212256666Y-94432380D01*
X211637619Y-94432380D02*
X211732857Y-94384761D01*
X211780476Y-94337142D01*
X211828095Y-94241904D01*
X211828095Y-93956190D01*
X211780476Y-93860952D01*
X211732857Y-93813333D01*
X211637619Y-93765714D01*
X211494761Y-93765714D01*
X211399523Y-93813333D01*
X211351904Y-93860952D01*
X211304285Y-93956190D01*
X211304285Y-94241904D01*
X211351904Y-94337142D01*
X211399523Y-94384761D01*
X211494761Y-94432380D01*
X211637619Y-94432380D01*
X210113809Y-93432380D02*
X210113809Y-94241904D01*
X210066190Y-94337142D01*
X210018571Y-94384761D01*
X209923333Y-94432380D01*
X209732857Y-94432380D01*
X209637619Y-94384761D01*
X209590000Y-94337142D01*
X209542380Y-94241904D01*
X209542380Y-93432380D01*
X209066190Y-93765714D02*
X209066190Y-94432380D01*
X209066190Y-93860952D02*
X209018571Y-93813333D01*
X208923333Y-93765714D01*
X208780476Y-93765714D01*
X208685238Y-93813333D01*
X208637619Y-93908571D01*
X208637619Y-94432380D01*
X208018571Y-94432380D02*
X208113809Y-94384761D01*
X208161428Y-94337142D01*
X208209047Y-94241904D01*
X208209047Y-93956190D01*
X208161428Y-93860952D01*
X208113809Y-93813333D01*
X208018571Y-93765714D01*
X207875714Y-93765714D01*
X207780476Y-93813333D01*
X207732857Y-93860952D01*
X207685238Y-93956190D01*
X207685238Y-94241904D01*
X207732857Y-94337142D01*
X207780476Y-94384761D01*
X207875714Y-94432380D01*
X208018571Y-94432380D01*
X80732380Y-75628476D02*
X80732380Y-75438000D01*
X80780000Y-75342761D01*
X80827619Y-75295142D01*
X80970476Y-75199904D01*
X81160952Y-75152285D01*
X81541904Y-75152285D01*
X81637142Y-75199904D01*
X81684761Y-75247523D01*
X81732380Y-75342761D01*
X81732380Y-75533238D01*
X81684761Y-75628476D01*
X81637142Y-75676095D01*
X81541904Y-75723714D01*
X81303809Y-75723714D01*
X81208571Y-75676095D01*
X81160952Y-75628476D01*
X81113333Y-75533238D01*
X81113333Y-75342761D01*
X81160952Y-75247523D01*
X81208571Y-75199904D01*
X81303809Y-75152285D01*
X118832380Y-74199904D02*
X118832380Y-74818952D01*
X119213333Y-74485619D01*
X119213333Y-74628476D01*
X119260952Y-74723714D01*
X119308571Y-74771333D01*
X119403809Y-74818952D01*
X119641904Y-74818952D01*
X119737142Y-74771333D01*
X119784761Y-74723714D01*
X119832380Y-74628476D01*
X119832380Y-74342761D01*
X119784761Y-74247523D01*
X119737142Y-74199904D01*
X118832380Y-75104666D02*
X119832380Y-75438000D01*
X118832380Y-75771333D01*
X118832380Y-76009428D02*
X118832380Y-76628476D01*
X119213333Y-76295142D01*
X119213333Y-76438000D01*
X119260952Y-76533238D01*
X119308571Y-76580857D01*
X119403809Y-76628476D01*
X119641904Y-76628476D01*
X119737142Y-76580857D01*
X119784761Y-76533238D01*
X119832380Y-76438000D01*
X119832380Y-76152285D01*
X119784761Y-76057047D01*
X119737142Y-76009428D01*
X114704761Y-74247523D02*
X114752380Y-74390380D01*
X114752380Y-74628476D01*
X114704761Y-74723714D01*
X114657142Y-74771333D01*
X114561904Y-74818952D01*
X114466666Y-74818952D01*
X114371428Y-74771333D01*
X114323809Y-74723714D01*
X114276190Y-74628476D01*
X114228571Y-74438000D01*
X114180952Y-74342761D01*
X114133333Y-74295142D01*
X114038095Y-74247523D01*
X113942857Y-74247523D01*
X113847619Y-74295142D01*
X113800000Y-74342761D01*
X113752380Y-74438000D01*
X113752380Y-74676095D01*
X113800000Y-74818952D01*
X114657142Y-75818952D02*
X114704761Y-75771333D01*
X114752380Y-75628476D01*
X114752380Y-75533238D01*
X114704761Y-75390380D01*
X114609523Y-75295142D01*
X114514285Y-75247523D01*
X114323809Y-75199904D01*
X114180952Y-75199904D01*
X113990476Y-75247523D01*
X113895238Y-75295142D01*
X113800000Y-75390380D01*
X113752380Y-75533238D01*
X113752380Y-75628476D01*
X113800000Y-75771333D01*
X113847619Y-75818952D01*
X114752380Y-76723714D02*
X114752380Y-76247523D01*
X113752380Y-76247523D01*
X116292380Y-71691523D02*
X116292380Y-71215333D01*
X116768571Y-71167714D01*
X116720952Y-71215333D01*
X116673333Y-71310571D01*
X116673333Y-71548666D01*
X116720952Y-71643904D01*
X116768571Y-71691523D01*
X116863809Y-71739142D01*
X117101904Y-71739142D01*
X117197142Y-71691523D01*
X117244761Y-71643904D01*
X117292380Y-71548666D01*
X117292380Y-71310571D01*
X117244761Y-71215333D01*
X117197142Y-71167714D01*
X116292380Y-72024857D02*
X117292380Y-72358190D01*
X116292380Y-72691523D01*
X79192380Y-75247523D02*
X79192380Y-74676095D01*
X79192380Y-74961809D02*
X78192380Y-74961809D01*
X78335238Y-74866571D01*
X78430476Y-74771333D01*
X78478095Y-74676095D01*
X78192380Y-75580857D02*
X78192380Y-76199904D01*
X78573333Y-75866571D01*
X78573333Y-76009428D01*
X78620952Y-76104666D01*
X78668571Y-76152285D01*
X78763809Y-76199904D01*
X79001904Y-76199904D01*
X79097142Y-76152285D01*
X79144761Y-76104666D01*
X79192380Y-76009428D01*
X79192380Y-75723714D01*
X79144761Y-75628476D01*
X79097142Y-75580857D01*
X109672380Y-71215333D02*
X109196190Y-70882000D01*
X109672380Y-70643904D02*
X108672380Y-70643904D01*
X108672380Y-71024857D01*
X108720000Y-71120095D01*
X108767619Y-71167714D01*
X108862857Y-71215333D01*
X109005714Y-71215333D01*
X109100952Y-71167714D01*
X109148571Y-71120095D01*
X109196190Y-71024857D01*
X109196190Y-70643904D01*
X108672380Y-71548666D02*
X109672380Y-72215333D01*
X108672380Y-72215333D02*
X109672380Y-71548666D01*
X109672380Y-72596285D02*
X108672380Y-72596285D01*
X108672380Y-72834380D01*
X108720000Y-72977238D01*
X108815238Y-73072476D01*
X108910476Y-73120095D01*
X109100952Y-73167714D01*
X109243809Y-73167714D01*
X109434285Y-73120095D01*
X109529523Y-73072476D01*
X109624761Y-72977238D01*
X109672380Y-72834380D01*
X109672380Y-72596285D01*
X94432380Y-75247523D02*
X94432380Y-75438000D01*
X94384761Y-75533238D01*
X94337142Y-75580857D01*
X94194285Y-75676095D01*
X94003809Y-75723714D01*
X93622857Y-75723714D01*
X93527619Y-75676095D01*
X93480000Y-75628476D01*
X93432380Y-75533238D01*
X93432380Y-75342761D01*
X93480000Y-75247523D01*
X93527619Y-75199904D01*
X93622857Y-75152285D01*
X93860952Y-75152285D01*
X93956190Y-75199904D01*
X94003809Y-75247523D01*
X94051428Y-75342761D01*
X94051428Y-75533238D01*
X94003809Y-75628476D01*
X93956190Y-75676095D01*
X93860952Y-75723714D01*
X78240000Y-71120095D02*
X78192380Y-71024857D01*
X78192380Y-70882000D01*
X78240000Y-70739142D01*
X78335238Y-70643904D01*
X78430476Y-70596285D01*
X78620952Y-70548666D01*
X78763809Y-70548666D01*
X78954285Y-70596285D01*
X79049523Y-70643904D01*
X79144761Y-70739142D01*
X79192380Y-70882000D01*
X79192380Y-70977238D01*
X79144761Y-71120095D01*
X79097142Y-71167714D01*
X78763809Y-71167714D01*
X78763809Y-70977238D01*
X79192380Y-71596285D02*
X78192380Y-71596285D01*
X79192380Y-72167714D01*
X78192380Y-72167714D01*
X79192380Y-72643904D02*
X78192380Y-72643904D01*
X78192380Y-72882000D01*
X78240000Y-73024857D01*
X78335238Y-73120095D01*
X78430476Y-73167714D01*
X78620952Y-73215333D01*
X78763809Y-73215333D01*
X78954285Y-73167714D01*
X79049523Y-73120095D01*
X79144761Y-73024857D01*
X79192380Y-72882000D01*
X79192380Y-72643904D01*
X88352380Y-71548666D02*
X88352380Y-72215333D01*
X89352380Y-71786761D01*
X101147619Y-71120095D02*
X101100000Y-71167714D01*
X101052380Y-71262952D01*
X101052380Y-71501047D01*
X101100000Y-71596285D01*
X101147619Y-71643904D01*
X101242857Y-71691523D01*
X101338095Y-71691523D01*
X101480952Y-71643904D01*
X102052380Y-71072476D01*
X102052380Y-71691523D01*
X101052380Y-72024857D02*
X101052380Y-72643904D01*
X101433333Y-72310571D01*
X101433333Y-72453428D01*
X101480952Y-72548666D01*
X101528571Y-72596285D01*
X101623809Y-72643904D01*
X101861904Y-72643904D01*
X101957142Y-72596285D01*
X102004761Y-72548666D01*
X102052380Y-72453428D01*
X102052380Y-72167714D01*
X102004761Y-72072476D01*
X101957142Y-72024857D01*
X111545714Y-75628476D02*
X112212380Y-75628476D01*
X111164761Y-75390380D02*
X111879047Y-75152285D01*
X111879047Y-75771333D01*
X96972380Y-75247523D02*
X96972380Y-74676095D01*
X96972380Y-74961809D02*
X95972380Y-74961809D01*
X96115238Y-74866571D01*
X96210476Y-74771333D01*
X96258095Y-74676095D01*
X95972380Y-75866571D02*
X95972380Y-75961809D01*
X96020000Y-76057047D01*
X96067619Y-76104666D01*
X96162857Y-76152285D01*
X96353333Y-76199904D01*
X96591428Y-76199904D01*
X96781904Y-76152285D01*
X96877142Y-76104666D01*
X96924761Y-76057047D01*
X96972380Y-75961809D01*
X96972380Y-75866571D01*
X96924761Y-75771333D01*
X96877142Y-75723714D01*
X96781904Y-75676095D01*
X96591428Y-75628476D01*
X96353333Y-75628476D01*
X96162857Y-75676095D01*
X96067619Y-75723714D01*
X96020000Y-75771333D01*
X95972380Y-75866571D01*
X83272380Y-75676095D02*
X83272380Y-75199904D01*
X83748571Y-75152285D01*
X83700952Y-75199904D01*
X83653333Y-75295142D01*
X83653333Y-75533238D01*
X83700952Y-75628476D01*
X83748571Y-75676095D01*
X83843809Y-75723714D01*
X84081904Y-75723714D01*
X84177142Y-75676095D01*
X84224761Y-75628476D01*
X84272380Y-75533238D01*
X84272380Y-75295142D01*
X84224761Y-75199904D01*
X84177142Y-75152285D01*
X88400000Y-74676095D02*
X88352380Y-74580857D01*
X88352380Y-74438000D01*
X88400000Y-74295142D01*
X88495238Y-74199904D01*
X88590476Y-74152285D01*
X88780952Y-74104666D01*
X88923809Y-74104666D01*
X89114285Y-74152285D01*
X89209523Y-74199904D01*
X89304761Y-74295142D01*
X89352380Y-74438000D01*
X89352380Y-74533238D01*
X89304761Y-74676095D01*
X89257142Y-74723714D01*
X88923809Y-74723714D01*
X88923809Y-74533238D01*
X89352380Y-75152285D02*
X88352380Y-75152285D01*
X89352380Y-75723714D01*
X88352380Y-75723714D01*
X89352380Y-76199904D02*
X88352380Y-76199904D01*
X88352380Y-76438000D01*
X88400000Y-76580857D01*
X88495238Y-76676095D01*
X88590476Y-76723714D01*
X88780952Y-76771333D01*
X88923809Y-76771333D01*
X89114285Y-76723714D01*
X89209523Y-76676095D01*
X89304761Y-76580857D01*
X89352380Y-76438000D01*
X89352380Y-76199904D01*
X91320952Y-71786761D02*
X91273333Y-71691523D01*
X91225714Y-71643904D01*
X91130476Y-71596285D01*
X91082857Y-71596285D01*
X90987619Y-71643904D01*
X90940000Y-71691523D01*
X90892380Y-71786761D01*
X90892380Y-71977238D01*
X90940000Y-72072476D01*
X90987619Y-72120095D01*
X91082857Y-72167714D01*
X91130476Y-72167714D01*
X91225714Y-72120095D01*
X91273333Y-72072476D01*
X91320952Y-71977238D01*
X91320952Y-71786761D01*
X91368571Y-71691523D01*
X91416190Y-71643904D01*
X91511428Y-71596285D01*
X91701904Y-71596285D01*
X91797142Y-71643904D01*
X91844761Y-71691523D01*
X91892380Y-71786761D01*
X91892380Y-71977238D01*
X91844761Y-72072476D01*
X91797142Y-72120095D01*
X91701904Y-72167714D01*
X91511428Y-72167714D01*
X91416190Y-72120095D01*
X91368571Y-72072476D01*
X91320952Y-71977238D01*
X98607619Y-71120095D02*
X98560000Y-71167714D01*
X98512380Y-71262952D01*
X98512380Y-71501047D01*
X98560000Y-71596285D01*
X98607619Y-71643904D01*
X98702857Y-71691523D01*
X98798095Y-71691523D01*
X98940952Y-71643904D01*
X99512380Y-71072476D01*
X99512380Y-71691523D01*
X98845714Y-72548666D02*
X99512380Y-72548666D01*
X98464761Y-72310571D02*
X99179047Y-72072476D01*
X99179047Y-72691523D01*
X70667619Y-71120095D02*
X70620000Y-71167714D01*
X70572380Y-71262952D01*
X70572380Y-71501047D01*
X70620000Y-71596285D01*
X70667619Y-71643904D01*
X70762857Y-71691523D01*
X70858095Y-71691523D01*
X71000952Y-71643904D01*
X71572380Y-71072476D01*
X71572380Y-71691523D01*
X71572380Y-72643904D02*
X71572380Y-72072476D01*
X71572380Y-72358190D02*
X70572380Y-72358190D01*
X70715238Y-72262952D01*
X70810476Y-72167714D01*
X70858095Y-72072476D01*
X113800000Y-71120095D02*
X113752380Y-71024857D01*
X113752380Y-70882000D01*
X113800000Y-70739142D01*
X113895238Y-70643904D01*
X113990476Y-70596285D01*
X114180952Y-70548666D01*
X114323809Y-70548666D01*
X114514285Y-70596285D01*
X114609523Y-70643904D01*
X114704761Y-70739142D01*
X114752380Y-70882000D01*
X114752380Y-70977238D01*
X114704761Y-71120095D01*
X114657142Y-71167714D01*
X114323809Y-71167714D01*
X114323809Y-70977238D01*
X114752380Y-71596285D02*
X113752380Y-71596285D01*
X114752380Y-72167714D01*
X113752380Y-72167714D01*
X114752380Y-72643904D02*
X113752380Y-72643904D01*
X113752380Y-72882000D01*
X113800000Y-73024857D01*
X113895238Y-73120095D01*
X113990476Y-73167714D01*
X114180952Y-73215333D01*
X114323809Y-73215333D01*
X114514285Y-73167714D01*
X114609523Y-73120095D01*
X114704761Y-73024857D01*
X114752380Y-72882000D01*
X114752380Y-72643904D01*
X70620000Y-74676095D02*
X70572380Y-74580857D01*
X70572380Y-74438000D01*
X70620000Y-74295142D01*
X70715238Y-74199904D01*
X70810476Y-74152285D01*
X71000952Y-74104666D01*
X71143809Y-74104666D01*
X71334285Y-74152285D01*
X71429523Y-74199904D01*
X71524761Y-74295142D01*
X71572380Y-74438000D01*
X71572380Y-74533238D01*
X71524761Y-74676095D01*
X71477142Y-74723714D01*
X71143809Y-74723714D01*
X71143809Y-74533238D01*
X71572380Y-75152285D02*
X70572380Y-75152285D01*
X71572380Y-75723714D01*
X70572380Y-75723714D01*
X71572380Y-76199904D02*
X70572380Y-76199904D01*
X70572380Y-76438000D01*
X70620000Y-76580857D01*
X70715238Y-76676095D01*
X70810476Y-76723714D01*
X71000952Y-76771333D01*
X71143809Y-76771333D01*
X71334285Y-76723714D01*
X71429523Y-76676095D01*
X71524761Y-76580857D01*
X71572380Y-76438000D01*
X71572380Y-76199904D01*
X73207619Y-71120095D02*
X73160000Y-71167714D01*
X73112380Y-71262952D01*
X73112380Y-71501047D01*
X73160000Y-71596285D01*
X73207619Y-71643904D01*
X73302857Y-71691523D01*
X73398095Y-71691523D01*
X73540952Y-71643904D01*
X74112380Y-71072476D01*
X74112380Y-71691523D01*
X73112380Y-72310571D02*
X73112380Y-72405809D01*
X73160000Y-72501047D01*
X73207619Y-72548666D01*
X73302857Y-72596285D01*
X73493333Y-72643904D01*
X73731428Y-72643904D01*
X73921904Y-72596285D01*
X74017142Y-72548666D01*
X74064761Y-72501047D01*
X74112380Y-72405809D01*
X74112380Y-72310571D01*
X74064761Y-72215333D01*
X74017142Y-72167714D01*
X73921904Y-72120095D01*
X73731428Y-72072476D01*
X73493333Y-72072476D01*
X73302857Y-72120095D01*
X73207619Y-72167714D01*
X73160000Y-72215333D01*
X73112380Y-72310571D01*
X73207619Y-74676095D02*
X73160000Y-74723714D01*
X73112380Y-74818952D01*
X73112380Y-75057047D01*
X73160000Y-75152285D01*
X73207619Y-75199904D01*
X73302857Y-75247523D01*
X73398095Y-75247523D01*
X73540952Y-75199904D01*
X74112380Y-74628476D01*
X74112380Y-75247523D01*
X73112380Y-76104666D02*
X73112380Y-75914190D01*
X73160000Y-75818952D01*
X73207619Y-75771333D01*
X73350476Y-75676095D01*
X73540952Y-75628476D01*
X73921904Y-75628476D01*
X74017142Y-75676095D01*
X74064761Y-75723714D01*
X74112380Y-75818952D01*
X74112380Y-76009428D01*
X74064761Y-76104666D01*
X74017142Y-76152285D01*
X73921904Y-76199904D01*
X73683809Y-76199904D01*
X73588571Y-76152285D01*
X73540952Y-76104666D01*
X73493333Y-76009428D01*
X73493333Y-75818952D01*
X73540952Y-75723714D01*
X73588571Y-75676095D01*
X73683809Y-75628476D01*
X76652380Y-71691523D02*
X76652380Y-71120095D01*
X76652380Y-71405809D02*
X75652380Y-71405809D01*
X75795238Y-71310571D01*
X75890476Y-71215333D01*
X75938095Y-71120095D01*
X75652380Y-72548666D02*
X75652380Y-72358190D01*
X75700000Y-72262952D01*
X75747619Y-72215333D01*
X75890476Y-72120095D01*
X76080952Y-72072476D01*
X76461904Y-72072476D01*
X76557142Y-72120095D01*
X76604761Y-72167714D01*
X76652380Y-72262952D01*
X76652380Y-72453428D01*
X76604761Y-72548666D01*
X76557142Y-72596285D01*
X76461904Y-72643904D01*
X76223809Y-72643904D01*
X76128571Y-72596285D01*
X76080952Y-72548666D01*
X76033333Y-72453428D01*
X76033333Y-72262952D01*
X76080952Y-72167714D01*
X76128571Y-72120095D01*
X76223809Y-72072476D01*
X103640000Y-71120095D02*
X103592380Y-71024857D01*
X103592380Y-70882000D01*
X103640000Y-70739142D01*
X103735238Y-70643904D01*
X103830476Y-70596285D01*
X104020952Y-70548666D01*
X104163809Y-70548666D01*
X104354285Y-70596285D01*
X104449523Y-70643904D01*
X104544761Y-70739142D01*
X104592380Y-70882000D01*
X104592380Y-70977238D01*
X104544761Y-71120095D01*
X104497142Y-71167714D01*
X104163809Y-71167714D01*
X104163809Y-70977238D01*
X104592380Y-71596285D02*
X103592380Y-71596285D01*
X104592380Y-72167714D01*
X103592380Y-72167714D01*
X104592380Y-72643904D02*
X103592380Y-72643904D01*
X103592380Y-72882000D01*
X103640000Y-73024857D01*
X103735238Y-73120095D01*
X103830476Y-73167714D01*
X104020952Y-73215333D01*
X104163809Y-73215333D01*
X104354285Y-73167714D01*
X104449523Y-73120095D01*
X104544761Y-73024857D01*
X104592380Y-72882000D01*
X104592380Y-72643904D01*
X117244761Y-74223714D02*
X117292380Y-74366571D01*
X117292380Y-74604666D01*
X117244761Y-74699904D01*
X117197142Y-74747523D01*
X117101904Y-74795142D01*
X117006666Y-74795142D01*
X116911428Y-74747523D01*
X116863809Y-74699904D01*
X116816190Y-74604666D01*
X116768571Y-74414190D01*
X116720952Y-74318952D01*
X116673333Y-74271333D01*
X116578095Y-74223714D01*
X116482857Y-74223714D01*
X116387619Y-74271333D01*
X116340000Y-74318952D01*
X116292380Y-74414190D01*
X116292380Y-74652285D01*
X116340000Y-74795142D01*
X117292380Y-75223714D02*
X116292380Y-75223714D01*
X116292380Y-75461809D01*
X116340000Y-75604666D01*
X116435238Y-75699904D01*
X116530476Y-75747523D01*
X116720952Y-75795142D01*
X116863809Y-75795142D01*
X117054285Y-75747523D01*
X117149523Y-75699904D01*
X117244761Y-75604666D01*
X117292380Y-75461809D01*
X117292380Y-75223714D01*
X117006666Y-76176095D02*
X117006666Y-76652285D01*
X117292380Y-76080857D02*
X116292380Y-76414190D01*
X117292380Y-76747523D01*
X107132380Y-71691523D02*
X107132380Y-71120095D01*
X107132380Y-71405809D02*
X106132380Y-71405809D01*
X106275238Y-71310571D01*
X106370476Y-71215333D01*
X106418095Y-71120095D01*
X106560952Y-72262952D02*
X106513333Y-72167714D01*
X106465714Y-72120095D01*
X106370476Y-72072476D01*
X106322857Y-72072476D01*
X106227619Y-72120095D01*
X106180000Y-72167714D01*
X106132380Y-72262952D01*
X106132380Y-72453428D01*
X106180000Y-72548666D01*
X106227619Y-72596285D01*
X106322857Y-72643904D01*
X106370476Y-72643904D01*
X106465714Y-72596285D01*
X106513333Y-72548666D01*
X106560952Y-72453428D01*
X106560952Y-72262952D01*
X106608571Y-72167714D01*
X106656190Y-72120095D01*
X106751428Y-72072476D01*
X106941904Y-72072476D01*
X107037142Y-72120095D01*
X107084761Y-72167714D01*
X107132380Y-72262952D01*
X107132380Y-72453428D01*
X107084761Y-72548666D01*
X107037142Y-72596285D01*
X106941904Y-72643904D01*
X106751428Y-72643904D01*
X106656190Y-72596285D01*
X106608571Y-72548666D01*
X106560952Y-72453428D01*
X93527619Y-71120095D02*
X93480000Y-71167714D01*
X93432380Y-71262952D01*
X93432380Y-71501047D01*
X93480000Y-71596285D01*
X93527619Y-71643904D01*
X93622857Y-71691523D01*
X93718095Y-71691523D01*
X93860952Y-71643904D01*
X94432380Y-71072476D01*
X94432380Y-71691523D01*
X93432380Y-72596285D02*
X93432380Y-72120095D01*
X93908571Y-72072476D01*
X93860952Y-72120095D01*
X93813333Y-72215333D01*
X93813333Y-72453428D01*
X93860952Y-72548666D01*
X93908571Y-72596285D01*
X94003809Y-72643904D01*
X94241904Y-72643904D01*
X94337142Y-72596285D01*
X94384761Y-72548666D01*
X94432380Y-72453428D01*
X94432380Y-72215333D01*
X94384761Y-72120095D01*
X94337142Y-72072476D01*
X76652380Y-75247523D02*
X76652380Y-74676095D01*
X76652380Y-74961809D02*
X75652380Y-74961809D01*
X75795238Y-74866571D01*
X75890476Y-74771333D01*
X75938095Y-74676095D01*
X76652380Y-75723714D02*
X76652380Y-75914190D01*
X76604761Y-76009428D01*
X76557142Y-76057047D01*
X76414285Y-76152285D01*
X76223809Y-76199904D01*
X75842857Y-76199904D01*
X75747619Y-76152285D01*
X75700000Y-76104666D01*
X75652380Y-76009428D01*
X75652380Y-75818952D01*
X75700000Y-75723714D01*
X75747619Y-75676095D01*
X75842857Y-75628476D01*
X76080952Y-75628476D01*
X76176190Y-75676095D01*
X76223809Y-75723714D01*
X76271428Y-75818952D01*
X76271428Y-76009428D01*
X76223809Y-76104666D01*
X76176190Y-76152285D01*
X76080952Y-76199904D01*
%TO.C,A2.3*%
X218244666Y-69094428D02*
X218244666Y-69570619D01*
X218530380Y-68999190D02*
X217530380Y-69332523D01*
X218530380Y-69665857D01*
X217625619Y-69951571D02*
X217578000Y-69999190D01*
X217530380Y-70094428D01*
X217530380Y-70332523D01*
X217578000Y-70427761D01*
X217625619Y-70475380D01*
X217720857Y-70523000D01*
X217816095Y-70523000D01*
X217958952Y-70475380D01*
X218530380Y-69903952D01*
X218530380Y-70523000D01*
X218435142Y-70951571D02*
X218482761Y-70999190D01*
X218530380Y-70951571D01*
X218482761Y-70903952D01*
X218435142Y-70951571D01*
X218530380Y-70951571D01*
X217530380Y-71332523D02*
X217530380Y-71951571D01*
X217911333Y-71618238D01*
X217911333Y-71761095D01*
X217958952Y-71856333D01*
X218006571Y-71903952D01*
X218101809Y-71951571D01*
X218339904Y-71951571D01*
X218435142Y-71903952D01*
X218482761Y-71856333D01*
X218530380Y-71761095D01*
X218530380Y-71475380D01*
X218482761Y-71380142D01*
X218435142Y-71332523D01*
%TO.C,A2.4*%
X178024666Y-69084428D02*
X178024666Y-69560619D01*
X178310380Y-68989190D02*
X177310380Y-69322523D01*
X178310380Y-69655857D01*
X177405619Y-69941571D02*
X177358000Y-69989190D01*
X177310380Y-70084428D01*
X177310380Y-70322523D01*
X177358000Y-70417761D01*
X177405619Y-70465380D01*
X177500857Y-70513000D01*
X177596095Y-70513000D01*
X177738952Y-70465380D01*
X178310380Y-69893952D01*
X178310380Y-70513000D01*
X178215142Y-70941571D02*
X178262761Y-70989190D01*
X178310380Y-70941571D01*
X178262761Y-70893952D01*
X178215142Y-70941571D01*
X178310380Y-70941571D01*
X177643714Y-71846333D02*
X178310380Y-71846333D01*
X177262761Y-71608238D02*
X177977047Y-71370142D01*
X177977047Y-71989190D01*
%TO.C,A2.2*%
X229014666Y-117284428D02*
X229014666Y-117760619D01*
X229300380Y-117189190D02*
X228300380Y-117522523D01*
X229300380Y-117855857D01*
X228395619Y-118141571D02*
X228348000Y-118189190D01*
X228300380Y-118284428D01*
X228300380Y-118522523D01*
X228348000Y-118617761D01*
X228395619Y-118665380D01*
X228490857Y-118713000D01*
X228586095Y-118713000D01*
X228728952Y-118665380D01*
X229300380Y-118093952D01*
X229300380Y-118713000D01*
X229205142Y-119141571D02*
X229252761Y-119189190D01*
X229300380Y-119141571D01*
X229252761Y-119093952D01*
X229205142Y-119141571D01*
X229300380Y-119141571D01*
X228395619Y-119570142D02*
X228348000Y-119617761D01*
X228300380Y-119713000D01*
X228300380Y-119951095D01*
X228348000Y-120046333D01*
X228395619Y-120093952D01*
X228490857Y-120141571D01*
X228586095Y-120141571D01*
X228728952Y-120093952D01*
X229300380Y-119522523D01*
X229300380Y-120141571D01*
%TO.C,A2.1*%
X178024666Y-117354428D02*
X178024666Y-117830619D01*
X178310380Y-117259190D02*
X177310380Y-117592523D01*
X178310380Y-117925857D01*
X177405619Y-118211571D02*
X177358000Y-118259190D01*
X177310380Y-118354428D01*
X177310380Y-118592523D01*
X177358000Y-118687761D01*
X177405619Y-118735380D01*
X177500857Y-118783000D01*
X177596095Y-118783000D01*
X177738952Y-118735380D01*
X178310380Y-118163952D01*
X178310380Y-118783000D01*
X178215142Y-119211571D02*
X178262761Y-119259190D01*
X178310380Y-119211571D01*
X178262761Y-119163952D01*
X178215142Y-119211571D01*
X178310380Y-119211571D01*
X178310380Y-120211571D02*
X178310380Y-119640142D01*
X178310380Y-119925857D02*
X177310380Y-119925857D01*
X177453238Y-119830619D01*
X177548476Y-119735380D01*
X177596095Y-119640142D01*
%TO.C,U4.2*%
X144354190Y-94475380D02*
X144354190Y-95284904D01*
X144306571Y-95380142D01*
X144258952Y-95427761D01*
X144163714Y-95475380D01*
X143973238Y-95475380D01*
X143878000Y-95427761D01*
X143830380Y-95380142D01*
X143782761Y-95284904D01*
X143782761Y-94475380D01*
X142878000Y-94808714D02*
X142878000Y-95475380D01*
X143116095Y-94427761D02*
X143354190Y-95142047D01*
X142735142Y-95142047D01*
X142354190Y-95380142D02*
X142306571Y-95427761D01*
X142354190Y-95475380D01*
X142401809Y-95427761D01*
X142354190Y-95380142D01*
X142354190Y-95475380D01*
X141925619Y-94570619D02*
X141878000Y-94523000D01*
X141782761Y-94475380D01*
X141544666Y-94475380D01*
X141449428Y-94523000D01*
X141401809Y-94570619D01*
X141354190Y-94665857D01*
X141354190Y-94761095D01*
X141401809Y-94903952D01*
X141973238Y-95475380D01*
X141354190Y-95475380D01*
%TO.C,U4.1*%
X159594190Y-127945380D02*
X159594190Y-128754904D01*
X159546571Y-128850142D01*
X159498952Y-128897761D01*
X159403714Y-128945380D01*
X159213238Y-128945380D01*
X159118000Y-128897761D01*
X159070380Y-128850142D01*
X159022761Y-128754904D01*
X159022761Y-127945380D01*
X158118000Y-128278714D02*
X158118000Y-128945380D01*
X158356095Y-127897761D02*
X158594190Y-128612047D01*
X157975142Y-128612047D01*
X157594190Y-128850142D02*
X157546571Y-128897761D01*
X157594190Y-128945380D01*
X157641809Y-128897761D01*
X157594190Y-128850142D01*
X157594190Y-128945380D01*
X156594190Y-128945380D02*
X157165619Y-128945380D01*
X156879904Y-128945380D02*
X156879904Y-127945380D01*
X156975142Y-128088238D01*
X157070380Y-128183476D01*
X157165619Y-128231095D01*
%TO.C,U3.2*%
X121504190Y-94475380D02*
X121504190Y-95284904D01*
X121456571Y-95380142D01*
X121408952Y-95427761D01*
X121313714Y-95475380D01*
X121123238Y-95475380D01*
X121028000Y-95427761D01*
X120980380Y-95380142D01*
X120932761Y-95284904D01*
X120932761Y-94475380D01*
X120551809Y-94475380D02*
X119932761Y-94475380D01*
X120266095Y-94856333D01*
X120123238Y-94856333D01*
X120028000Y-94903952D01*
X119980380Y-94951571D01*
X119932761Y-95046809D01*
X119932761Y-95284904D01*
X119980380Y-95380142D01*
X120028000Y-95427761D01*
X120123238Y-95475380D01*
X120408952Y-95475380D01*
X120504190Y-95427761D01*
X120551809Y-95380142D01*
X119504190Y-95380142D02*
X119456571Y-95427761D01*
X119504190Y-95475380D01*
X119551809Y-95427761D01*
X119504190Y-95380142D01*
X119504190Y-95475380D01*
X119075619Y-94570619D02*
X119028000Y-94523000D01*
X118932761Y-94475380D01*
X118694666Y-94475380D01*
X118599428Y-94523000D01*
X118551809Y-94570619D01*
X118504190Y-94665857D01*
X118504190Y-94761095D01*
X118551809Y-94903952D01*
X119123238Y-95475380D01*
X118504190Y-95475380D01*
%TO.C,U3.1*%
X136744190Y-127955380D02*
X136744190Y-128764904D01*
X136696571Y-128860142D01*
X136648952Y-128907761D01*
X136553714Y-128955380D01*
X136363238Y-128955380D01*
X136268000Y-128907761D01*
X136220380Y-128860142D01*
X136172761Y-128764904D01*
X136172761Y-127955380D01*
X135791809Y-127955380D02*
X135172761Y-127955380D01*
X135506095Y-128336333D01*
X135363238Y-128336333D01*
X135268000Y-128383952D01*
X135220380Y-128431571D01*
X135172761Y-128526809D01*
X135172761Y-128764904D01*
X135220380Y-128860142D01*
X135268000Y-128907761D01*
X135363238Y-128955380D01*
X135648952Y-128955380D01*
X135744190Y-128907761D01*
X135791809Y-128860142D01*
X134744190Y-128860142D02*
X134696571Y-128907761D01*
X134744190Y-128955380D01*
X134791809Y-128907761D01*
X134744190Y-128860142D01*
X134744190Y-128955380D01*
X133744190Y-128955380D02*
X134315619Y-128955380D01*
X134029904Y-128955380D02*
X134029904Y-127955380D01*
X134125142Y-128098238D01*
X134220380Y-128193476D01*
X134315619Y-128241095D01*
%TO.C,U2.2*%
X98634190Y-94475380D02*
X98634190Y-95284904D01*
X98586571Y-95380142D01*
X98538952Y-95427761D01*
X98443714Y-95475380D01*
X98253238Y-95475380D01*
X98158000Y-95427761D01*
X98110380Y-95380142D01*
X98062761Y-95284904D01*
X98062761Y-94475380D01*
X97634190Y-94570619D02*
X97586571Y-94523000D01*
X97491333Y-94475380D01*
X97253238Y-94475380D01*
X97158000Y-94523000D01*
X97110380Y-94570619D01*
X97062761Y-94665857D01*
X97062761Y-94761095D01*
X97110380Y-94903952D01*
X97681809Y-95475380D01*
X97062761Y-95475380D01*
X96634190Y-95380142D02*
X96586571Y-95427761D01*
X96634190Y-95475380D01*
X96681809Y-95427761D01*
X96634190Y-95380142D01*
X96634190Y-95475380D01*
X96205619Y-94570619D02*
X96158000Y-94523000D01*
X96062761Y-94475380D01*
X95824666Y-94475380D01*
X95729428Y-94523000D01*
X95681809Y-94570619D01*
X95634190Y-94665857D01*
X95634190Y-94761095D01*
X95681809Y-94903952D01*
X96253238Y-95475380D01*
X95634190Y-95475380D01*
%TO.C,U2.1*%
X113874190Y-127955380D02*
X113874190Y-128764904D01*
X113826571Y-128860142D01*
X113778952Y-128907761D01*
X113683714Y-128955380D01*
X113493238Y-128955380D01*
X113398000Y-128907761D01*
X113350380Y-128860142D01*
X113302761Y-128764904D01*
X113302761Y-127955380D01*
X112874190Y-128050619D02*
X112826571Y-128003000D01*
X112731333Y-127955380D01*
X112493238Y-127955380D01*
X112398000Y-128003000D01*
X112350380Y-128050619D01*
X112302761Y-128145857D01*
X112302761Y-128241095D01*
X112350380Y-128383952D01*
X112921809Y-128955380D01*
X112302761Y-128955380D01*
X111874190Y-128860142D02*
X111826571Y-128907761D01*
X111874190Y-128955380D01*
X111921809Y-128907761D01*
X111874190Y-128860142D01*
X111874190Y-128955380D01*
X110874190Y-128955380D02*
X111445619Y-128955380D01*
X111159904Y-128955380D02*
X111159904Y-127955380D01*
X111255142Y-128098238D01*
X111350380Y-128193476D01*
X111445619Y-128241095D01*
%TO.C,U1.2*%
X75774190Y-94475380D02*
X75774190Y-95284904D01*
X75726571Y-95380142D01*
X75678952Y-95427761D01*
X75583714Y-95475380D01*
X75393238Y-95475380D01*
X75298000Y-95427761D01*
X75250380Y-95380142D01*
X75202761Y-95284904D01*
X75202761Y-94475380D01*
X74202761Y-95475380D02*
X74774190Y-95475380D01*
X74488476Y-95475380D02*
X74488476Y-94475380D01*
X74583714Y-94618238D01*
X74678952Y-94713476D01*
X74774190Y-94761095D01*
X73774190Y-95380142D02*
X73726571Y-95427761D01*
X73774190Y-95475380D01*
X73821809Y-95427761D01*
X73774190Y-95380142D01*
X73774190Y-95475380D01*
X73345619Y-94570619D02*
X73298000Y-94523000D01*
X73202761Y-94475380D01*
X72964666Y-94475380D01*
X72869428Y-94523000D01*
X72821809Y-94570619D01*
X72774190Y-94665857D01*
X72774190Y-94761095D01*
X72821809Y-94903952D01*
X73393238Y-95475380D01*
X72774190Y-95475380D01*
%TO.C,U1.1*%
X91014190Y-127955380D02*
X91014190Y-128764904D01*
X90966571Y-128860142D01*
X90918952Y-128907761D01*
X90823714Y-128955380D01*
X90633238Y-128955380D01*
X90538000Y-128907761D01*
X90490380Y-128860142D01*
X90442761Y-128764904D01*
X90442761Y-127955380D01*
X89442761Y-128955380D02*
X90014190Y-128955380D01*
X89728476Y-128955380D02*
X89728476Y-127955380D01*
X89823714Y-128098238D01*
X89918952Y-128193476D01*
X90014190Y-128241095D01*
X89014190Y-128860142D02*
X88966571Y-128907761D01*
X89014190Y-128955380D01*
X89061809Y-128907761D01*
X89014190Y-128860142D01*
X89014190Y-128955380D01*
X88014190Y-128955380D02*
X88585619Y-128955380D01*
X88299904Y-128955380D02*
X88299904Y-127955380D01*
X88395142Y-128098238D01*
X88490380Y-128193476D01*
X88585619Y-128241095D01*
D11*
%TO.C,A2.3*%
X214478000Y-71853000D02*
X214478000Y-69193000D01*
X196638000Y-71853000D02*
X196638000Y-69193000D01*
X214478000Y-71853000D02*
X196638000Y-71853000D01*
X215748000Y-71853000D02*
X217078000Y-71853000D01*
X214478000Y-69193000D02*
X196638000Y-69193000D01*
X217078000Y-71853000D02*
X217078000Y-70523000D01*
%TO.C,A2.4*%
X181458000Y-69183000D02*
X194218000Y-69183000D01*
X180188000Y-69183000D02*
X178858000Y-69183000D01*
X178858000Y-69183000D02*
X178858000Y-70513000D01*
X181458000Y-69183000D02*
X181458000Y-71843000D01*
X194218000Y-69183000D02*
X194218000Y-71843000D01*
X181458000Y-71843000D02*
X194218000Y-71843000D01*
%TO.C,A2.2*%
X226218000Y-117453000D02*
X226218000Y-120113000D01*
X203298000Y-117453000D02*
X203298000Y-120113000D01*
X200698000Y-117453000D02*
X200698000Y-118783000D01*
X203298000Y-117453000D02*
X226218000Y-117453000D01*
X203298000Y-120113000D02*
X226218000Y-120113000D01*
X202028000Y-117453000D02*
X200698000Y-117453000D01*
%TO.C,A2.1*%
X181458000Y-117453000D02*
X181458000Y-120113000D01*
X199298000Y-117453000D02*
X199298000Y-120113000D01*
X181458000Y-117453000D02*
X199298000Y-117453000D01*
X180188000Y-117453000D02*
X178858000Y-117453000D01*
X181458000Y-120113000D02*
X199298000Y-120113000D01*
X178858000Y-117453000D02*
X178858000Y-118783000D01*
%TO.C,U4.2*%
X141548000Y-96463000D02*
X141548000Y-97793000D01*
X144208000Y-99063000D02*
X141548000Y-99063000D01*
X141548000Y-99063000D02*
X141548000Y-116903000D01*
X144208000Y-116903000D02*
X141548000Y-116903000D01*
X144208000Y-99063000D02*
X144208000Y-116903000D01*
X142878000Y-96463000D02*
X141548000Y-96463000D01*
%TO.C,U4.1*%
X158118000Y-127053000D02*
X159448000Y-127053000D01*
X159448000Y-127053000D02*
X159448000Y-125723000D01*
X156788000Y-86293000D02*
X159448000Y-86293000D01*
X159448000Y-124453000D02*
X159448000Y-86293000D01*
X156788000Y-124453000D02*
X159448000Y-124453000D01*
X156788000Y-124453000D02*
X156788000Y-86293000D01*
%TO.C,U3.2*%
X118698000Y-96463000D02*
X118698000Y-97793000D01*
X121358000Y-99063000D02*
X118698000Y-99063000D01*
X118698000Y-99063000D02*
X118698000Y-116903000D01*
X121358000Y-116903000D02*
X118698000Y-116903000D01*
X121358000Y-99063000D02*
X121358000Y-116903000D01*
X120028000Y-96463000D02*
X118698000Y-96463000D01*
%TO.C,U3.1*%
X135268000Y-127063000D02*
X136598000Y-127063000D01*
X136598000Y-127063000D02*
X136598000Y-125733000D01*
X133938000Y-86303000D02*
X136598000Y-86303000D01*
X136598000Y-124463000D02*
X136598000Y-86303000D01*
X133938000Y-124463000D02*
X136598000Y-124463000D01*
X133938000Y-124463000D02*
X133938000Y-86303000D01*
%TO.C,U2.2*%
X97158000Y-96463000D02*
X95828000Y-96463000D01*
X98488000Y-99063000D02*
X98488000Y-116903000D01*
X98488000Y-116903000D02*
X95828000Y-116903000D01*
X95828000Y-99063000D02*
X95828000Y-116903000D01*
X98488000Y-99063000D02*
X95828000Y-99063000D01*
X95828000Y-96463000D02*
X95828000Y-97793000D01*
%TO.C,U2.1*%
X112398000Y-127063000D02*
X113728000Y-127063000D01*
X113728000Y-127063000D02*
X113728000Y-125733000D01*
X111068000Y-86303000D02*
X113728000Y-86303000D01*
X113728000Y-124463000D02*
X113728000Y-86303000D01*
X111068000Y-124463000D02*
X113728000Y-124463000D01*
X111068000Y-124463000D02*
X111068000Y-86303000D01*
%TO.C,U1.2*%
X72968000Y-96463000D02*
X72968000Y-97793000D01*
X75628000Y-99063000D02*
X72968000Y-99063000D01*
X72968000Y-99063000D02*
X72968000Y-116903000D01*
X75628000Y-116903000D02*
X72968000Y-116903000D01*
X75628000Y-99063000D02*
X75628000Y-116903000D01*
X74298000Y-96463000D02*
X72968000Y-96463000D01*
%TO.C,U1.1*%
X89538000Y-127063000D02*
X90868000Y-127063000D01*
X90868000Y-127063000D02*
X90868000Y-125733000D01*
X88208000Y-86303000D02*
X90868000Y-86303000D01*
X90868000Y-124463000D02*
X90868000Y-86303000D01*
X88208000Y-124463000D02*
X90868000Y-124463000D01*
X88208000Y-124463000D02*
X88208000Y-86303000D01*
%TO.C,A1*%
X120710000Y-60706000D02*
X120710000Y-59376000D01*
X120710000Y-64576000D02*
X69790000Y-64576000D01*
X120710000Y-61976000D02*
X118110000Y-61976000D01*
X120710000Y-64576000D02*
X120710000Y-61976000D01*
X118110000Y-61976000D02*
X118110000Y-59376000D01*
X120710000Y-59376000D02*
X119380000Y-59376000D01*
X118110000Y-59376000D02*
X69790000Y-59376000D01*
X69790000Y-64576000D02*
X69790000Y-59376000D01*
%TD*%
M02*
