%TF.GenerationSoftware,KiCad,Pcbnew,(6.0.10)*%
%TF.CreationDate,2025-04-13T20:47:06+02:00*%
%TF.ProjectId,pcb_shield,7063625f-7368-4696-956c-642e6b696361,1.0*%
%TF.SameCoordinates,Original*%
%TF.FileFunction,Soldermask,Bot*%
%TF.FilePolarity,Negative*%
%FSLAX46Y46*%
G04 Gerber Fmt 4.6, Leading zero omitted, Abs format (unit mm)*
G04 Created by KiCad (PCBNEW (6.0.10)) date 2025-04-13 20:47:06*
%MOMM*%
%LPD*%
G01*
G04 APERTURE LIST*
%ADD10C,1.600000*%
%ADD11O,1.600000X1.600000*%
%ADD12R,1.700000X1.700000*%
%ADD13O,1.700000X1.700000*%
%ADD14R,2.600000X2.600000*%
%ADD15C,2.600000*%
%ADD16R,1.600000X1.600000*%
%ADD17R,1.905000X2.000000*%
%ADD18O,1.905000X2.000000*%
G04 APERTURE END LIST*
D10*
%TO.C,R2*%
X148428000Y-71893000D03*
D11*
X161128000Y-71893000D03*
%TD*%
D10*
%TO.C,R1*%
X107858000Y-52553000D03*
D11*
X95158000Y-52553000D03*
%TD*%
D12*
%TO.C,A2.3*%
X215748000Y-70523000D03*
D13*
X213208000Y-70523000D03*
X210668000Y-70523000D03*
X208128000Y-70523000D03*
X205588000Y-70523000D03*
X203048000Y-70523000D03*
X200508000Y-70523000D03*
X197968000Y-70523000D03*
%TD*%
D12*
%TO.C,A2.4*%
X180188000Y-70513000D03*
D13*
X182728000Y-70513000D03*
X185268000Y-70513000D03*
X187808000Y-70513000D03*
X190348000Y-70513000D03*
X192888000Y-70513000D03*
%TD*%
D12*
%TO.C,A2.2*%
X202028000Y-118783000D03*
D13*
X204568000Y-118783000D03*
X207108000Y-118783000D03*
X209648000Y-118783000D03*
X212188000Y-118783000D03*
X214728000Y-118783000D03*
X217268000Y-118783000D03*
X219808000Y-118783000D03*
X222348000Y-118783000D03*
X224888000Y-118783000D03*
%TD*%
D12*
%TO.C,A2.1*%
X180188000Y-118783000D03*
D13*
X182728000Y-118783000D03*
X185268000Y-118783000D03*
X187808000Y-118783000D03*
X190348000Y-118783000D03*
X192888000Y-118783000D03*
X195428000Y-118783000D03*
X197968000Y-118783000D03*
%TD*%
D12*
%TO.C,A4.2*%
X212728000Y-97783000D03*
D13*
X210188000Y-97783000D03*
X207648000Y-97783000D03*
X205108000Y-97783000D03*
X202568000Y-97783000D03*
X200028000Y-97783000D03*
X197488000Y-97783000D03*
X194948000Y-97783000D03*
%TD*%
D12*
%TO.C,A4.1*%
X212718000Y-110483000D03*
D13*
X210178000Y-110483000D03*
X207638000Y-110483000D03*
X205098000Y-110483000D03*
X202558000Y-110483000D03*
X200018000Y-110483000D03*
X197478000Y-110483000D03*
X194938000Y-110483000D03*
%TD*%
%TO.C,A3.2*%
X194948000Y-76193000D03*
X197488000Y-76193000D03*
X200028000Y-76193000D03*
X202568000Y-76193000D03*
X205108000Y-76193000D03*
X207648000Y-76193000D03*
X210188000Y-76193000D03*
D12*
X212728000Y-76193000D03*
%TD*%
D13*
%TO.C,A3.1*%
X194948000Y-88893000D03*
X197488000Y-88893000D03*
X200028000Y-88893000D03*
X202568000Y-88893000D03*
X205108000Y-88893000D03*
X207648000Y-88893000D03*
X210188000Y-88893000D03*
D12*
X212728000Y-88893000D03*
%TD*%
%TO.C,U4.2*%
X142878000Y-97793000D03*
D13*
X142878000Y-100333000D03*
X142878000Y-102873000D03*
X142878000Y-105413000D03*
X142878000Y-107953000D03*
X142878000Y-110493000D03*
X142878000Y-113033000D03*
X142878000Y-115573000D03*
%TD*%
D12*
%TO.C,U4.1*%
X158118000Y-125723000D03*
D13*
X158118000Y-123183000D03*
X158118000Y-120643000D03*
X158118000Y-118103000D03*
X158118000Y-115563000D03*
X158118000Y-113023000D03*
X158118000Y-110483000D03*
X158118000Y-107943000D03*
X158118000Y-105403000D03*
X158118000Y-102863000D03*
X158118000Y-100323000D03*
X158118000Y-97783000D03*
X158118000Y-95243000D03*
X158118000Y-92703000D03*
X158118000Y-90163000D03*
X158118000Y-87623000D03*
%TD*%
D12*
%TO.C,U3.2*%
X120028000Y-97793000D03*
D13*
X120028000Y-100333000D03*
X120028000Y-102873000D03*
X120028000Y-105413000D03*
X120028000Y-107953000D03*
X120028000Y-110493000D03*
X120028000Y-113033000D03*
X120028000Y-115573000D03*
%TD*%
D12*
%TO.C,U3.1*%
X135268000Y-125733000D03*
D13*
X135268000Y-123193000D03*
X135268000Y-120653000D03*
X135268000Y-118113000D03*
X135268000Y-115573000D03*
X135268000Y-113033000D03*
X135268000Y-110493000D03*
X135268000Y-107953000D03*
X135268000Y-105413000D03*
X135268000Y-102873000D03*
X135268000Y-100333000D03*
X135268000Y-97793000D03*
X135268000Y-95253000D03*
X135268000Y-92713000D03*
X135268000Y-90173000D03*
X135268000Y-87633000D03*
%TD*%
%TO.C,U2.2*%
X97158000Y-115573000D03*
X97158000Y-113033000D03*
X97158000Y-110493000D03*
X97158000Y-107953000D03*
X97158000Y-105413000D03*
X97158000Y-102873000D03*
X97158000Y-100333000D03*
D12*
X97158000Y-97793000D03*
%TD*%
%TO.C,U2.1*%
X112398000Y-125733000D03*
D13*
X112398000Y-123193000D03*
X112398000Y-120653000D03*
X112398000Y-118113000D03*
X112398000Y-115573000D03*
X112398000Y-113033000D03*
X112398000Y-110493000D03*
X112398000Y-107953000D03*
X112398000Y-105413000D03*
X112398000Y-102873000D03*
X112398000Y-100333000D03*
X112398000Y-97793000D03*
X112398000Y-95253000D03*
X112398000Y-92713000D03*
X112398000Y-90173000D03*
X112398000Y-87633000D03*
%TD*%
D12*
%TO.C,U1.2*%
X74298000Y-97793000D03*
D13*
X74298000Y-100333000D03*
X74298000Y-102873000D03*
X74298000Y-105413000D03*
X74298000Y-107953000D03*
X74298000Y-110493000D03*
X74298000Y-113033000D03*
X74298000Y-115573000D03*
%TD*%
D12*
%TO.C,U1.1*%
X89538000Y-125733000D03*
D13*
X89538000Y-123193000D03*
X89538000Y-120653000D03*
X89538000Y-118113000D03*
X89538000Y-115573000D03*
X89538000Y-113033000D03*
X89538000Y-110493000D03*
X89538000Y-107953000D03*
X89538000Y-105413000D03*
X89538000Y-102873000D03*
X89538000Y-100333000D03*
X89538000Y-97793000D03*
X89538000Y-95253000D03*
X89538000Y-92713000D03*
X89538000Y-90173000D03*
X89538000Y-87633000D03*
%TD*%
D14*
%TO.C,J14*%
X243840000Y-71120000D03*
D15*
X243840000Y-66120000D03*
%TD*%
D12*
%TO.C,J4*%
X100975000Y-101600000D03*
D13*
X100975000Y-99060000D03*
X103515000Y-101600000D03*
X103515000Y-99060000D03*
X106055000Y-101600000D03*
X106055000Y-99060000D03*
X108595000Y-101600000D03*
X108595000Y-99060000D03*
%TD*%
D12*
%TO.C,J12*%
X172720000Y-87630000D03*
D13*
X175260000Y-87630000D03*
%TD*%
%TO.C,J15*%
X71120000Y-67081000D03*
X73660000Y-67081000D03*
X76200000Y-67081000D03*
X78740000Y-67081000D03*
X81280000Y-67081000D03*
X83820000Y-67081000D03*
X86360000Y-67081000D03*
X88900000Y-67081000D03*
X91440000Y-67081000D03*
X93980000Y-67081000D03*
X96520000Y-67081000D03*
X99060000Y-67081000D03*
X101600000Y-67081000D03*
X104140000Y-67081000D03*
X106680000Y-67081000D03*
X109220000Y-67081000D03*
X111760000Y-67081000D03*
X114300000Y-67081000D03*
X116840000Y-67081000D03*
D12*
X119380000Y-67081000D03*
%TD*%
%TO.C,J2*%
X78115000Y-101605000D03*
D13*
X78115000Y-99065000D03*
X80655000Y-101605000D03*
X80655000Y-99065000D03*
X83195000Y-101605000D03*
X83195000Y-99065000D03*
X85735000Y-101605000D03*
X85735000Y-99065000D03*
%TD*%
D12*
%TO.C,J19*%
X192840000Y-67564000D03*
D13*
X190300000Y-67564000D03*
X187760000Y-67564000D03*
X185220000Y-67564000D03*
X182680000Y-67564000D03*
X180140000Y-67564000D03*
%TD*%
D16*
%TO.C,C1*%
X223520000Y-84020000D03*
D10*
X223520000Y-81520000D03*
%TD*%
D12*
%TO.C,J6*%
X123825000Y-101630000D03*
D13*
X123825000Y-99090000D03*
X126365000Y-101630000D03*
X126365000Y-99090000D03*
X128905000Y-101630000D03*
X128905000Y-99090000D03*
X131445000Y-101630000D03*
X131445000Y-99090000D03*
%TD*%
D12*
%TO.C,J13*%
X172720000Y-80010000D03*
D13*
X175260000Y-80010000D03*
%TD*%
D12*
%TO.C,J3*%
X100975000Y-121290000D03*
D13*
X100975000Y-118750000D03*
X103515000Y-121290000D03*
X103515000Y-118750000D03*
X106055000Y-121290000D03*
X106055000Y-118750000D03*
X108595000Y-121290000D03*
X108595000Y-118750000D03*
%TD*%
D12*
%TO.C,J9*%
X172720000Y-97790000D03*
D13*
X175260000Y-97790000D03*
%TD*%
D12*
%TO.C,J18*%
X202030000Y-121920000D03*
D13*
X204570000Y-121920000D03*
X207110000Y-121920000D03*
X209650000Y-121920000D03*
X212190000Y-121920000D03*
X214730000Y-121920000D03*
%TD*%
D12*
%TO.C,J16*%
X119380000Y-57150000D03*
D13*
X116840000Y-57150000D03*
X114300000Y-57150000D03*
X111760000Y-57150000D03*
X109220000Y-57150000D03*
X106680000Y-57150000D03*
X104140000Y-57150000D03*
X101600000Y-57150000D03*
X99060000Y-57150000D03*
X96520000Y-57150000D03*
X93980000Y-57150000D03*
X91440000Y-57150000D03*
X88900000Y-57150000D03*
X86360000Y-57150000D03*
X83820000Y-57150000D03*
X81280000Y-57150000D03*
X78740000Y-57150000D03*
X76200000Y-57150000D03*
X73660000Y-57150000D03*
X71120000Y-57150000D03*
%TD*%
D17*
%TO.C,Q1*%
X172720000Y-110490000D03*
D18*
X175260000Y-110490000D03*
X177800000Y-110490000D03*
%TD*%
D12*
%TO.C,J8*%
X146685000Y-101600000D03*
D13*
X146685000Y-99060000D03*
X149225000Y-101600000D03*
X149225000Y-99060000D03*
X151765000Y-101600000D03*
X151765000Y-99060000D03*
X154305000Y-101600000D03*
X154305000Y-99060000D03*
%TD*%
D16*
%TO.C,C2*%
X223520000Y-105410000D03*
D10*
X223520000Y-102910000D03*
%TD*%
D12*
%TO.C,J10*%
X236220000Y-80030000D03*
D13*
X236220000Y-82570000D03*
X236220000Y-85110000D03*
X236220000Y-87650000D03*
%TD*%
D12*
%TO.C,J5*%
X123835000Y-121920000D03*
D13*
X123835000Y-119380000D03*
X126375000Y-121920000D03*
X126375000Y-119380000D03*
X128915000Y-121920000D03*
X128915000Y-119380000D03*
X131455000Y-121920000D03*
X131455000Y-119380000D03*
%TD*%
D12*
%TO.C,J1*%
X78115000Y-121925000D03*
D13*
X78115000Y-119385000D03*
X80655000Y-121925000D03*
X80655000Y-119385000D03*
X83195000Y-121925000D03*
X83195000Y-119385000D03*
X85735000Y-121925000D03*
X85735000Y-119385000D03*
%TD*%
D12*
%TO.C,J7*%
X146685000Y-121920000D03*
D13*
X146685000Y-119380000D03*
X149225000Y-121920000D03*
X149225000Y-119380000D03*
X151765000Y-121920000D03*
X151765000Y-119380000D03*
X154305000Y-121920000D03*
X154305000Y-119380000D03*
%TD*%
D12*
%TO.C,J11*%
X236220000Y-101600000D03*
D13*
X236220000Y-104140000D03*
X236220000Y-106680000D03*
X236220000Y-109220000D03*
%TD*%
D12*
%TO.C,J17*%
X180190000Y-121920000D03*
D13*
X182730000Y-121920000D03*
X185270000Y-121920000D03*
X187810000Y-121920000D03*
X190350000Y-121920000D03*
X192890000Y-121920000D03*
X195430000Y-121920000D03*
X197970000Y-121920000D03*
%TD*%
%TO.C,A1*%
X119380000Y-63246000D03*
X116840000Y-63246000D03*
X114300000Y-63246000D03*
X111760000Y-63246000D03*
X109220000Y-63246000D03*
X106680000Y-63246000D03*
X104140000Y-63246000D03*
X101600000Y-63246000D03*
X99060000Y-63246000D03*
X96520000Y-63246000D03*
X93980000Y-63246000D03*
X91440000Y-63246000D03*
X88900000Y-63246000D03*
X86360000Y-63246000D03*
X83820000Y-63246000D03*
X81280000Y-63246000D03*
X78740000Y-63246000D03*
X76200000Y-63246000D03*
X73660000Y-63246000D03*
X71120000Y-63246000D03*
D12*
X119380000Y-60706000D03*
D13*
X116840000Y-60706000D03*
X114300000Y-60706000D03*
X111760000Y-60706000D03*
X109220000Y-60706000D03*
X106680000Y-60706000D03*
X104140000Y-60706000D03*
X101600000Y-60706000D03*
X99060000Y-60706000D03*
X96520000Y-60706000D03*
X93980000Y-60706000D03*
X91440000Y-60706000D03*
X88900000Y-60706000D03*
X86360000Y-60706000D03*
X83820000Y-60706000D03*
X81280000Y-60706000D03*
X78740000Y-60706000D03*
X76200000Y-60706000D03*
X73660000Y-60706000D03*
X71120000Y-60706000D03*
%TD*%
M02*
