M48
; DRILL file {KiCad (6.0.10)} date Sun Apr 13 20:47:09 2025
; FORMAT={-:-/ absolute / inch / decimal}
; #@! TF.CreationDate,2025-04-13T20:47:09+02:00
; #@! TF.GenerationSoftware,Kicad,Pcbnew,(6.0.10)
; #@! TF.FileFunction,Plated,1,2,PTH
FMAT,2
INCH
; #@! TA.AperFunction,Plated,PTH,ViaDrill
T1C0.0157
; #@! TA.AperFunction,Plated,PTH,ComponentDrill
T2C0.0315
; #@! TA.AperFunction,Plated,PTH,ComponentDrill
T3C0.0394
; #@! TA.AperFunction,Plated,PTH,ComponentDrill
T4C0.0433
; #@! TA.AperFunction,Plated,PTH,ComponentDrill
T5C0.0512
%
G90
G05
T1
X4.6822Y-2.0692
X5.425Y-2.65
X5.525Y-3.075
X6.625Y-2.525
X6.65Y-2.575
X6.7126Y-2.7843
X7.2Y-4.35
X7.25Y-4.35
X7.45Y-4.2192
X7.55Y-3.562
X7.825Y-4.5
X7.825Y-4.55
X8.95Y-4.7
X9.0372Y-3.9242
T2
X3.7464Y-2.069
X4.2464Y-2.069
X5.8436Y-2.8304
X6.3436Y-2.8304
X8.8Y-3.2094
X8.8Y-3.3079
X8.8Y-4.0516
X8.8Y-4.15
T3
X2.8Y-2.25
X2.8Y-2.39
X2.8Y-2.49
X2.8Y-2.641
X2.9Y-2.25
X2.9Y-2.39
X2.9Y-2.49
X2.9Y-2.641
X2.9251Y-3.8501
X2.9251Y-3.9501
X2.9251Y-4.0501
X2.9251Y-4.1501
X2.9251Y-4.2501
X2.9251Y-4.3501
X2.9251Y-4.4501
X2.9251Y-4.5501
X3.0Y-2.25
X3.0Y-2.39
X3.0Y-2.49
X3.0Y-2.641
X3.0754Y-3.9002
X3.0754Y-4.0002
X3.0754Y-4.7002
X3.0754Y-4.8002
X3.1Y-2.25
X3.1Y-2.39
X3.1Y-2.49
X3.1Y-2.641
X3.1754Y-3.9002
X3.1754Y-4.0002
X3.1754Y-4.7002
X3.1754Y-4.8002
X3.2Y-2.25
X3.2Y-2.39
X3.2Y-2.49
X3.2Y-2.641
X3.2754Y-3.9002
X3.2754Y-4.0002
X3.2754Y-4.7002
X3.2754Y-4.8002
X3.3Y-2.25
X3.3Y-2.39
X3.3Y-2.49
X3.3Y-2.641
X3.3754Y-3.9002
X3.3754Y-4.0002
X3.3754Y-4.7002
X3.3754Y-4.8002
X3.4Y-2.25
X3.4Y-2.39
X3.4Y-2.49
X3.4Y-2.641
X3.5Y-2.25
X3.5Y-2.39
X3.5Y-2.49
X3.5Y-2.641
X3.5251Y-3.4501
X3.5251Y-3.5501
X3.5251Y-3.6501
X3.5251Y-3.7501
X3.5251Y-3.8501
X3.5251Y-3.9501
X3.5251Y-4.0501
X3.5251Y-4.1501
X3.5251Y-4.2501
X3.5251Y-4.3501
X3.5251Y-4.4501
X3.5251Y-4.5501
X3.5251Y-4.6501
X3.5251Y-4.7501
X3.5251Y-4.8501
X3.5251Y-4.9501
X3.6Y-2.25
X3.6Y-2.39
X3.6Y-2.49
X3.6Y-2.641
X3.7Y-2.25
X3.7Y-2.39
X3.7Y-2.49
X3.7Y-2.641
X3.8Y-2.25
X3.8Y-2.39
X3.8Y-2.49
X3.8Y-2.641
X3.8251Y-3.8501
X3.8251Y-3.9501
X3.8251Y-4.0501
X3.8251Y-4.1501
X3.8251Y-4.2501
X3.8251Y-4.3501
X3.8251Y-4.4501
X3.8251Y-4.5501
X3.9Y-2.25
X3.9Y-2.39
X3.9Y-2.49
X3.9Y-2.641
X3.9754Y-3.9
X3.9754Y-4.0
X3.9754Y-4.6752
X3.9754Y-4.7752
X4.0Y-2.25
X4.0Y-2.39
X4.0Y-2.49
X4.0Y-2.641
X4.0754Y-3.9
X4.0754Y-4.0
X4.0754Y-4.6752
X4.0754Y-4.7752
X4.1Y-2.25
X4.1Y-2.39
X4.1Y-2.49
X4.1Y-2.641
X4.1754Y-3.9
X4.1754Y-4.0
X4.1754Y-4.6752
X4.1754Y-4.7752
X4.2Y-2.25
X4.2Y-2.39
X4.2Y-2.49
X4.2Y-2.641
X4.2754Y-3.9
X4.2754Y-4.0
X4.2754Y-4.6752
X4.2754Y-4.7752
X4.3Y-2.25
X4.3Y-2.39
X4.3Y-2.49
X4.3Y-2.641
X4.4Y-2.25
X4.4Y-2.39
X4.4Y-2.49
X4.4Y-2.641
X4.4251Y-3.4501
X4.4251Y-3.5501
X4.4251Y-3.6501
X4.4251Y-3.7501
X4.4251Y-3.8501
X4.4251Y-3.9501
X4.4251Y-4.0501
X4.4251Y-4.1501
X4.4251Y-4.2501
X4.4251Y-4.3501
X4.4251Y-4.4501
X4.4251Y-4.5501
X4.4251Y-4.6501
X4.4251Y-4.7501
X4.4251Y-4.8501
X4.4251Y-4.9501
X4.5Y-2.25
X4.5Y-2.39
X4.5Y-2.49
X4.5Y-2.641
X4.6Y-2.25
X4.6Y-2.39
X4.6Y-2.49
X4.6Y-2.641
X4.7Y-2.25
X4.7Y-2.39
X4.7Y-2.49
X4.7Y-2.641
X4.7255Y-3.8501
X4.7255Y-3.9501
X4.7255Y-4.0501
X4.7255Y-4.1501
X4.7255Y-4.2501
X4.7255Y-4.3501
X4.7255Y-4.4501
X4.7255Y-4.5501
X4.875Y-3.9012
X4.875Y-4.0012
X4.8754Y-4.7
X4.8754Y-4.8
X4.975Y-3.9012
X4.975Y-4.0012
X4.9754Y-4.7
X4.9754Y-4.8
X5.075Y-3.9012
X5.075Y-4.0012
X5.0754Y-4.7
X5.0754Y-4.8
X5.175Y-3.9012
X5.175Y-4.0012
X5.1754Y-4.7
X5.1754Y-4.8
X5.3255Y-3.4501
X5.3255Y-3.5501
X5.3255Y-3.6501
X5.3255Y-3.7501
X5.3255Y-3.8501
X5.3255Y-3.9501
X5.3255Y-4.0501
X5.3255Y-4.1501
X5.3255Y-4.2501
X5.3255Y-4.3501
X5.3255Y-4.4501
X5.3255Y-4.5501
X5.3255Y-4.6501
X5.3255Y-4.7501
X5.3255Y-4.8501
X5.3255Y-4.9501
X5.6251Y-3.8501
X5.6251Y-3.9501
X5.6251Y-4.0501
X5.6251Y-4.1501
X5.6251Y-4.2501
X5.6251Y-4.3501
X5.6251Y-4.4501
X5.6251Y-4.5501
X5.775Y-3.9
X5.775Y-4.0
X5.775Y-4.7
X5.775Y-4.8
X5.875Y-3.9
X5.875Y-4.0
X5.875Y-4.7
X5.875Y-4.8
X5.975Y-3.9
X5.975Y-4.0
X5.975Y-4.7
X5.975Y-4.8
X6.075Y-3.9
X6.075Y-4.0
X6.075Y-4.7
X6.075Y-4.8
X6.2251Y-3.4497
X6.2251Y-3.5497
X6.2251Y-3.6497
X6.2251Y-3.7497
X6.2251Y-3.8497
X6.2251Y-3.9497
X6.2251Y-4.0497
X6.2251Y-4.1497
X6.2251Y-4.2497
X6.2251Y-4.3497
X6.2251Y-4.4497
X6.2251Y-4.5497
X6.2251Y-4.6497
X6.2251Y-4.7497
X6.2251Y-4.8497
X6.2251Y-4.9497
X6.8Y-3.15
X6.8Y-3.45
X6.8Y-3.85
X6.9Y-3.15
X6.9Y-3.45
X6.9Y-3.85
X7.0921Y-2.66
X7.094Y-2.7761
X7.094Y-4.6765
X7.0941Y-4.8
X7.1921Y-2.66
X7.194Y-2.7761
X7.194Y-4.6765
X7.1941Y-4.8
X7.2921Y-2.66
X7.294Y-2.7761
X7.294Y-4.6765
X7.2941Y-4.8
X7.3921Y-2.66
X7.394Y-2.7761
X7.394Y-4.6765
X7.3941Y-4.8
X7.4921Y-2.66
X7.494Y-2.7761
X7.494Y-4.6765
X7.4941Y-4.8
X7.5921Y-2.66
X7.594Y-2.7761
X7.594Y-4.6765
X7.5941Y-4.8
X7.6747Y-4.3497
X7.6751Y-2.9997
X7.6751Y-3.4997
X7.6751Y-3.8497
X7.694Y-4.6765
X7.6941Y-4.8
X7.7747Y-4.3497
X7.7751Y-2.9997
X7.7751Y-3.4997
X7.7751Y-3.8497
X7.794Y-2.7765
X7.794Y-4.6765
X7.7941Y-4.8
X7.8747Y-4.3497
X7.8751Y-2.9997
X7.8751Y-3.4997
X7.8751Y-3.8497
X7.894Y-2.7765
X7.9539Y-4.6765
X7.9539Y-4.8
X7.9747Y-4.3497
X7.9751Y-2.9997
X7.9751Y-3.4997
X7.9751Y-3.8497
X7.994Y-2.7765
X8.0539Y-4.6765
X8.0539Y-4.8
X8.0747Y-4.3497
X8.0751Y-2.9997
X8.0751Y-3.4997
X8.0751Y-3.8497
X8.094Y-2.7765
X8.1539Y-4.6765
X8.1539Y-4.8
X8.1747Y-4.3497
X8.1751Y-2.9997
X8.1751Y-3.4997
X8.1751Y-3.8497
X8.194Y-2.7765
X8.2539Y-4.6765
X8.2539Y-4.8
X8.2747Y-4.3497
X8.2751Y-2.9997
X8.2751Y-3.4997
X8.2751Y-3.8497
X8.294Y-2.7765
X8.3539Y-4.6765
X8.3539Y-4.8
X8.3747Y-4.3497
X8.3751Y-2.9997
X8.3751Y-3.4997
X8.3751Y-3.8497
X8.394Y-2.7765
X8.4539Y-4.6765
X8.4539Y-4.8
X8.494Y-2.7765
X8.5539Y-4.6765
X8.6539Y-4.6765
X8.7539Y-4.6765
X8.8539Y-4.6765
X9.3Y-3.1508
X9.3Y-3.2508
X9.3Y-3.3508
X9.3Y-3.4508
X9.3Y-4.0
X9.3Y-4.1
X9.3Y-4.2
X9.3Y-4.3
T4
X6.8Y-4.35
X6.9Y-4.35
X7.0Y-4.35
T5
X9.6Y-2.6031
X9.6Y-2.8
T0
M30
