%TF.GenerationSoftware,KiCad,Pcbnew,(6.0.10)*%
%TF.CreationDate,2025-04-13T20:47:06+02:00*%
%TF.ProjectId,pcb_shield,7063625f-7368-4696-956c-642e6b696361,1.0*%
%TF.SameCoordinates,Original*%
%TF.FileFunction,Copper,L2,Bot*%
%TF.FilePolarity,Positive*%
%FSLAX46Y46*%
G04 Gerber Fmt 4.6, Leading zero omitted, Abs format (unit mm)*
G04 Created by KiCad (PCBNEW (6.0.10)) date 2025-04-13 20:47:06*
%MOMM*%
%LPD*%
G01*
G04 APERTURE LIST*
%TA.AperFunction,ComponentPad*%
%ADD10C,1.600000*%
%TD*%
%TA.AperFunction,ComponentPad*%
%ADD11O,1.600000X1.600000*%
%TD*%
%TA.AperFunction,ComponentPad*%
%ADD12R,1.700000X1.700000*%
%TD*%
%TA.AperFunction,ComponentPad*%
%ADD13O,1.700000X1.700000*%
%TD*%
%TA.AperFunction,ComponentPad*%
%ADD14R,2.600000X2.600000*%
%TD*%
%TA.AperFunction,ComponentPad*%
%ADD15C,2.600000*%
%TD*%
%TA.AperFunction,ComponentPad*%
%ADD16R,1.600000X1.600000*%
%TD*%
%TA.AperFunction,ComponentPad*%
%ADD17R,1.905000X2.000000*%
%TD*%
%TA.AperFunction,ComponentPad*%
%ADD18O,1.905000X2.000000*%
%TD*%
%TA.AperFunction,ViaPad*%
%ADD19C,0.800000*%
%TD*%
%TA.AperFunction,Conductor*%
%ADD20C,0.250000*%
%TD*%
%TA.AperFunction,Conductor*%
%ADD21C,0.500000*%
%TD*%
%TA.AperFunction,Conductor*%
%ADD22C,1.000000*%
%TD*%
G04 APERTURE END LIST*
D10*
%TO.P,R2,1*%
%TO.N,/18 RXD*%
X148428000Y-71893000D03*
D11*
%TO.P,R2,2*%
X161128000Y-71893000D03*
%TD*%
D10*
%TO.P,R1,1*%
%TO.N,/18 RXD*%
X107858000Y-52553000D03*
D11*
%TO.P,R1,2*%
%TO.N,Net-(A1-Pad27)*%
X95158000Y-52553000D03*
%TD*%
D12*
%TO.P,A2.3,1,Pin_1*%
%TO.N,unconnected-(A2.3-Pad1)*%
X215748000Y-70523000D03*
D13*
%TO.P,A2.3,2,Pin_2*%
%TO.N,unconnected-(A2.3-Pad2)*%
X213208000Y-70523000D03*
%TO.P,A2.3,3,Pin_3*%
%TO.N,unconnected-(A2.3-Pad3)*%
X210668000Y-70523000D03*
%TO.P,A2.3,4,Pin_4*%
%TO.N,unconnected-(A2.3-Pad4)*%
X208128000Y-70523000D03*
%TO.P,A2.3,5,Pin_5*%
%TO.N,5V*%
X205588000Y-70523000D03*
%TO.P,A2.3,6,Pin_6*%
%TO.N,GND*%
X203048000Y-70523000D03*
%TO.P,A2.3,7,Pin_7*%
%TO.N,Net-(A2.3-Pad7)*%
X200508000Y-70523000D03*
%TO.P,A2.3,8,Pin_8*%
%TO.N,unconnected-(A2.3-Pad8)*%
X197968000Y-70523000D03*
%TD*%
D12*
%TO.P,A2.4,1,Pin_1*%
%TO.N,Net-(J19-Pad6)*%
X180188000Y-70513000D03*
D13*
%TO.P,A2.4,2,Pin_2*%
%TO.N,Net-(J19-Pad5)*%
X182728000Y-70513000D03*
%TO.P,A2.4,3,Pin_3*%
%TO.N,Net-(J19-Pad4)*%
X185268000Y-70513000D03*
%TO.P,A2.4,4,Pin_4*%
%TO.N,Net-(J19-Pad3)*%
X187808000Y-70513000D03*
%TO.P,A2.4,5,Pin_5*%
%TO.N,Net-(J19-Pad2)*%
X190348000Y-70513000D03*
%TO.P,A2.4,6,Pin_6*%
%TO.N,Net-(J19-Pad1)*%
X192888000Y-70513000D03*
%TD*%
D12*
%TO.P,A2.2,1,Pin_1*%
%TO.N,Net-(A3.2-Pad1)*%
X202028000Y-118783000D03*
D13*
%TO.P,A2.2,2,Pin_2*%
%TO.N,Net-(J12-Pad1)*%
X204568000Y-118783000D03*
%TO.P,A2.2,3,Pin_3*%
%TO.N,Net-(J13-Pad1)*%
X207108000Y-118783000D03*
%TO.P,A2.2,4,Pin_4*%
%TO.N,Net-(J18-Pad4)*%
X209648000Y-118783000D03*
%TO.P,A2.2,5,Pin_5*%
%TO.N,Net-(J18-Pad5)*%
X212188000Y-118783000D03*
%TO.P,A2.2,6,Pin_6*%
%TO.N,Net-(J18-Pad6)*%
X214728000Y-118783000D03*
%TO.P,A2.2,7,Pin_7*%
%TO.N,unconnected-(A2.2-Pad7)*%
X217268000Y-118783000D03*
%TO.P,A2.2,8,Pin_8*%
%TO.N,unconnected-(A2.2-Pad8)*%
X219808000Y-118783000D03*
%TO.P,A2.2,9,Pin_9*%
%TO.N,unconnected-(A2.2-Pad9)*%
X222348000Y-118783000D03*
%TO.P,A2.2,10,Pin_10*%
%TO.N,unconnected-(A2.2-Pad10)*%
X224888000Y-118783000D03*
%TD*%
D12*
%TO.P,A2.1,1,Pin_1*%
%TO.N,/14 TXD*%
X180188000Y-118783000D03*
D13*
%TO.P,A2.1,2,Pin_2*%
%TO.N,/18 RXD*%
X182728000Y-118783000D03*
%TO.P,A2.1,3,Pin_3*%
%TO.N,Net-(A3.2-Pad7)*%
X185268000Y-118783000D03*
%TO.P,A2.1,4,Pin_4*%
%TO.N,Net-(A4.2-Pad7)*%
X187808000Y-118783000D03*
%TO.P,A2.1,5,Pin_5*%
%TO.N,Net-(J17-Pad5)*%
X190348000Y-118783000D03*
%TO.P,A2.1,6,Pin_6*%
%TO.N,Net-(A3.2-Pad8)*%
X192888000Y-118783000D03*
%TO.P,A2.1,7,Pin_7*%
%TO.N,Net-(A4.2-Pad8)*%
X195428000Y-118783000D03*
%TO.P,A2.1,8,Pin_8*%
%TO.N,Net-(J17-Pad8)*%
X197968000Y-118783000D03*
%TD*%
D12*
%TO.P,A4.2,1,Pin_1*%
%TO.N,Net-(A3.2-Pad1)*%
X212728000Y-97783000D03*
D13*
%TO.P,A4.2,2,Pin_2*%
%TO.N,unconnected-(A4.2-Pad2)*%
X210188000Y-97783000D03*
%TO.P,A4.2,3,Pin_3*%
%TO.N,unconnected-(A4.2-Pad3)*%
X207648000Y-97783000D03*
%TO.P,A4.2,4,Pin_4*%
%TO.N,unconnected-(A4.2-Pad4)*%
X205108000Y-97783000D03*
%TO.P,A4.2,5,Pin_5*%
%TO.N,unconnected-(A4.2-Pad5)*%
X202568000Y-97783000D03*
%TO.P,A4.2,6,Pin_6*%
%TO.N,unconnected-(A4.2-Pad6)*%
X200028000Y-97783000D03*
%TO.P,A4.2,7,Pin_7*%
%TO.N,Net-(A4.2-Pad7)*%
X197488000Y-97783000D03*
%TO.P,A4.2,8,Pin_8*%
%TO.N,Net-(A4.2-Pad8)*%
X194948000Y-97783000D03*
%TD*%
D12*
%TO.P,A4.1,1,Pin_1*%
%TO.N,Net-(A3.1-Pad1)*%
X212718000Y-110483000D03*
D13*
%TO.P,A4.1,2,Pin_2*%
%TO.N,Net-(A3.1-Pad2)*%
X210178000Y-110483000D03*
%TO.P,A4.1,3,Pin_3*%
%TO.N,Net-(J11-Pad4)*%
X207638000Y-110483000D03*
%TO.P,A4.1,4,Pin_4*%
%TO.N,Net-(J11-Pad3)*%
X205098000Y-110483000D03*
%TO.P,A4.1,5,Pin_5*%
%TO.N,Net-(J11-Pad2)*%
X202558000Y-110483000D03*
%TO.P,A4.1,6,Pin_6*%
%TO.N,Net-(J11-Pad1)*%
X200018000Y-110483000D03*
%TO.P,A4.1,7,Pin_7*%
%TO.N,5V*%
X197478000Y-110483000D03*
%TO.P,A4.1,8,Pin_8*%
%TO.N,Net-(A2.3-Pad7)*%
X194938000Y-110483000D03*
%TD*%
%TO.P,A3.2,8,Pin_8*%
%TO.N,Net-(A3.2-Pad8)*%
X194948000Y-76193000D03*
%TO.P,A3.2,7,Pin_7*%
%TO.N,Net-(A3.2-Pad7)*%
X197488000Y-76193000D03*
%TO.P,A3.2,6,Pin_6*%
%TO.N,unconnected-(A3.2-Pad6)*%
X200028000Y-76193000D03*
%TO.P,A3.2,5,Pin_5*%
%TO.N,unconnected-(A3.2-Pad5)*%
X202568000Y-76193000D03*
%TO.P,A3.2,4,Pin_4*%
%TO.N,unconnected-(A3.2-Pad4)*%
X205108000Y-76193000D03*
%TO.P,A3.2,3,Pin_3*%
%TO.N,unconnected-(A3.2-Pad3)*%
X207648000Y-76193000D03*
%TO.P,A3.2,2,Pin_2*%
%TO.N,unconnected-(A3.2-Pad2)*%
X210188000Y-76193000D03*
D12*
%TO.P,A3.2,1,Pin_1*%
%TO.N,Net-(A3.2-Pad1)*%
X212728000Y-76193000D03*
%TD*%
D13*
%TO.P,A3.1,8,Pin_8*%
%TO.N,Net-(A2.3-Pad7)*%
X194948000Y-88893000D03*
%TO.P,A3.1,7,Pin_7*%
%TO.N,5V*%
X197488000Y-88893000D03*
%TO.P,A3.1,6,Pin_6*%
%TO.N,Net-(A3.1-Pad6)*%
X200028000Y-88893000D03*
%TO.P,A3.1,5,Pin_5*%
%TO.N,Net-(A3.1-Pad5)*%
X202568000Y-88893000D03*
%TO.P,A3.1,4,Pin_4*%
%TO.N,Net-(A3.1-Pad4)*%
X205108000Y-88893000D03*
%TO.P,A3.1,3,Pin_3*%
%TO.N,Net-(A3.1-Pad3)*%
X207648000Y-88893000D03*
%TO.P,A3.1,2,Pin_2*%
%TO.N,Net-(A3.1-Pad2)*%
X210188000Y-88893000D03*
D12*
%TO.P,A3.1,1,Pin_1*%
%TO.N,Net-(A3.1-Pad1)*%
X212728000Y-88893000D03*
%TD*%
%TO.P,U4.2,1,Pin_1*%
%TO.N,Net-(A1-Pad15)*%
X142878000Y-97793000D03*
D13*
%TO.P,U4.2,2,Pin_2*%
%TO.N,Net-(A1-Pad16)*%
X142878000Y-100333000D03*
%TO.P,U4.2,3,Pin_3*%
%TO.N,Net-(A1-Pad17)*%
X142878000Y-102873000D03*
%TO.P,U4.2,4,Pin_4*%
%TO.N,Net-(A1-Pad18)*%
X142878000Y-105413000D03*
%TO.P,U4.2,5,Pin_5*%
%TO.N,Net-(A1-Pad19)*%
X142878000Y-107953000D03*
%TO.P,U4.2,6,Pin_6*%
%TO.N,Net-(A1-Pad4)*%
X142878000Y-110493000D03*
%TO.P,U4.2,7,Pin_7*%
%TO.N,5V*%
X142878000Y-113033000D03*
%TO.P,U4.2,8,Pin_8*%
%TO.N,Net-(A1-Pad20)*%
X142878000Y-115573000D03*
%TD*%
D12*
%TO.P,U4.1,1,Pin_1*%
%TO.N,Net-(J7-Pad1)*%
X158118000Y-125723000D03*
D13*
%TO.P,U4.1,2,Pin_2*%
%TO.N,Net-(J7-Pad3)*%
X158118000Y-123183000D03*
%TO.P,U4.1,3,Pin_3*%
%TO.N,Net-(J7-Pad5)*%
X158118000Y-120643000D03*
%TO.P,U4.1,4,Pin_4*%
%TO.N,Net-(J7-Pad7)*%
X158118000Y-118103000D03*
%TO.P,U4.1,5,Pin_5*%
%TO.N,Net-(J7-Pad8)*%
X158118000Y-115563000D03*
%TO.P,U4.1,6,Pin_6*%
%TO.N,Net-(J7-Pad6)*%
X158118000Y-113023000D03*
%TO.P,U4.1,7,Pin_7*%
%TO.N,Net-(J7-Pad4)*%
X158118000Y-110483000D03*
%TO.P,U4.1,8,Pin_8*%
%TO.N,Net-(J7-Pad2)*%
X158118000Y-107943000D03*
%TO.P,U4.1,9,Pin_9*%
%TO.N,Net-(J8-Pad1)*%
X158118000Y-105403000D03*
%TO.P,U4.1,10,Pin_10*%
%TO.N,Net-(J8-Pad3)*%
X158118000Y-102863000D03*
%TO.P,U4.1,11,Pin_11*%
%TO.N,Net-(J8-Pad5)*%
X158118000Y-100323000D03*
%TO.P,U4.1,12,Pin_12*%
%TO.N,Net-(J8-Pad7)*%
X158118000Y-97783000D03*
%TO.P,U4.1,13,Pin_13*%
%TO.N,Net-(J8-Pad8)*%
X158118000Y-95243000D03*
%TO.P,U4.1,14,Pin_14*%
%TO.N,Net-(J8-Pad6)*%
X158118000Y-92703000D03*
%TO.P,U4.1,15,Pin_15*%
%TO.N,Net-(J8-Pad4)*%
X158118000Y-90163000D03*
%TO.P,U4.1,16,Pin_16*%
%TO.N,Net-(J8-Pad2)*%
X158118000Y-87623000D03*
%TD*%
D12*
%TO.P,U3.2,1,Pin_1*%
%TO.N,Net-(A1-Pad15)*%
X120028000Y-97793000D03*
D13*
%TO.P,U3.2,2,Pin_2*%
%TO.N,Net-(A1-Pad16)*%
X120028000Y-100333000D03*
%TO.P,U3.2,3,Pin_3*%
%TO.N,Net-(A1-Pad17)*%
X120028000Y-102873000D03*
%TO.P,U3.2,4,Pin_4*%
%TO.N,Net-(A1-Pad18)*%
X120028000Y-105413000D03*
%TO.P,U3.2,5,Pin_5*%
%TO.N,Net-(A1-Pad19)*%
X120028000Y-107953000D03*
%TO.P,U3.2,6,Pin_6*%
%TO.N,Net-(A1-Pad6)*%
X120028000Y-110493000D03*
%TO.P,U3.2,7,Pin_7*%
%TO.N,5V*%
X120028000Y-113033000D03*
%TO.P,U3.2,8,Pin_8*%
%TO.N,Net-(A1-Pad20)*%
X120028000Y-115573000D03*
%TD*%
D12*
%TO.P,U3.1,1,Pin_1*%
%TO.N,Net-(J5-Pad1)*%
X135268000Y-125733000D03*
D13*
%TO.P,U3.1,2,Pin_2*%
%TO.N,Net-(J5-Pad3)*%
X135268000Y-123193000D03*
%TO.P,U3.1,3,Pin_3*%
%TO.N,Net-(J5-Pad5)*%
X135268000Y-120653000D03*
%TO.P,U3.1,4,Pin_4*%
%TO.N,Net-(J5-Pad7)*%
X135268000Y-118113000D03*
%TO.P,U3.1,5,Pin_5*%
%TO.N,Net-(J5-Pad8)*%
X135268000Y-115573000D03*
%TO.P,U3.1,6,Pin_6*%
%TO.N,Net-(J5-Pad6)*%
X135268000Y-113033000D03*
%TO.P,U3.1,7,Pin_7*%
%TO.N,Net-(J5-Pad4)*%
X135268000Y-110493000D03*
%TO.P,U3.1,8,Pin_8*%
%TO.N,Net-(J5-Pad2)*%
X135268000Y-107953000D03*
%TO.P,U3.1,9,Pin_9*%
%TO.N,Net-(J6-Pad1)*%
X135268000Y-105413000D03*
%TO.P,U3.1,10,Pin_10*%
%TO.N,Net-(J6-Pad3)*%
X135268000Y-102873000D03*
%TO.P,U3.1,11,Pin_11*%
%TO.N,Net-(J6-Pad5)*%
X135268000Y-100333000D03*
%TO.P,U3.1,12,Pin_12*%
%TO.N,Net-(J6-Pad7)*%
X135268000Y-97793000D03*
%TO.P,U3.1,13,Pin_13*%
%TO.N,Net-(J6-Pad8)*%
X135268000Y-95253000D03*
%TO.P,U3.1,14,Pin_14*%
%TO.N,Net-(J6-Pad6)*%
X135268000Y-92713000D03*
%TO.P,U3.1,15,Pin_15*%
%TO.N,Net-(J6-Pad4)*%
X135268000Y-90173000D03*
%TO.P,U3.1,16,Pin_16*%
%TO.N,Net-(J6-Pad2)*%
X135268000Y-87633000D03*
%TD*%
%TO.P,U2.2,8,Pin_8*%
%TO.N,Net-(A1-Pad20)*%
X97158000Y-115573000D03*
%TO.P,U2.2,7,Pin_7*%
%TO.N,5V*%
X97158000Y-113033000D03*
%TO.P,U2.2,6,Pin_6*%
%TO.N,Net-(A1-Pad7)*%
X97158000Y-110493000D03*
%TO.P,U2.2,5,Pin_5*%
%TO.N,Net-(A1-Pad19)*%
X97158000Y-107953000D03*
%TO.P,U2.2,4,Pin_4*%
%TO.N,Net-(A1-Pad18)*%
X97158000Y-105413000D03*
%TO.P,U2.2,3,Pin_3*%
%TO.N,Net-(A1-Pad17)*%
X97158000Y-102873000D03*
%TO.P,U2.2,2,Pin_2*%
%TO.N,Net-(A1-Pad16)*%
X97158000Y-100333000D03*
D12*
%TO.P,U2.2,1,Pin_1*%
%TO.N,Net-(A1-Pad15)*%
X97158000Y-97793000D03*
%TD*%
%TO.P,U2.1,1,Pin_1*%
%TO.N,Net-(J3-Pad1)*%
X112398000Y-125733000D03*
D13*
%TO.P,U2.1,2,Pin_2*%
%TO.N,Net-(J3-Pad3)*%
X112398000Y-123193000D03*
%TO.P,U2.1,3,Pin_3*%
%TO.N,Net-(J3-Pad5)*%
X112398000Y-120653000D03*
%TO.P,U2.1,4,Pin_4*%
%TO.N,Net-(J3-Pad7)*%
X112398000Y-118113000D03*
%TO.P,U2.1,5,Pin_5*%
%TO.N,Net-(J3-Pad8)*%
X112398000Y-115573000D03*
%TO.P,U2.1,6,Pin_6*%
%TO.N,Net-(J3-Pad6)*%
X112398000Y-113033000D03*
%TO.P,U2.1,7,Pin_7*%
%TO.N,Net-(J3-Pad4)*%
X112398000Y-110493000D03*
%TO.P,U2.1,8,Pin_8*%
%TO.N,Net-(J3-Pad2)*%
X112398000Y-107953000D03*
%TO.P,U2.1,9,Pin_9*%
%TO.N,Net-(J4-Pad1)*%
X112398000Y-105413000D03*
%TO.P,U2.1,10,Pin_10*%
%TO.N,Net-(J4-Pad3)*%
X112398000Y-102873000D03*
%TO.P,U2.1,11,Pin_11*%
%TO.N,Net-(J4-Pad5)*%
X112398000Y-100333000D03*
%TO.P,U2.1,12,Pin_12*%
%TO.N,Net-(J4-Pad7)*%
X112398000Y-97793000D03*
%TO.P,U2.1,13,Pin_13*%
%TO.N,Net-(J4-Pad8)*%
X112398000Y-95253000D03*
%TO.P,U2.1,14,Pin_14*%
%TO.N,Net-(J4-Pad6)*%
X112398000Y-92713000D03*
%TO.P,U2.1,15,Pin_15*%
%TO.N,Net-(J4-Pad4)*%
X112398000Y-90173000D03*
%TO.P,U2.1,16,Pin_16*%
%TO.N,Net-(J4-Pad2)*%
X112398000Y-87633000D03*
%TD*%
D12*
%TO.P,U1.2,1,Pin_1*%
%TO.N,Net-(A1-Pad15)*%
X74298000Y-97793000D03*
D13*
%TO.P,U1.2,2,Pin_2*%
%TO.N,Net-(A1-Pad16)*%
X74298000Y-100333000D03*
%TO.P,U1.2,3,Pin_3*%
%TO.N,Net-(A1-Pad17)*%
X74298000Y-102873000D03*
%TO.P,U1.2,4,Pin_4*%
%TO.N,Net-(A1-Pad18)*%
X74298000Y-105413000D03*
%TO.P,U1.2,5,Pin_5*%
%TO.N,Net-(A1-Pad19)*%
X74298000Y-107953000D03*
%TO.P,U1.2,6,Pin_6*%
%TO.N,Net-(U1.2-Pad6)*%
X74298000Y-110493000D03*
%TO.P,U1.2,7,Pin_7*%
%TO.N,5V*%
X74298000Y-113033000D03*
%TO.P,U1.2,8,Pin_8*%
%TO.N,Net-(A1-Pad20)*%
X74298000Y-115573000D03*
%TD*%
D12*
%TO.P,U1.1,1,Pin_1*%
%TO.N,Net-(J1-Pad1)*%
X89538000Y-125733000D03*
D13*
%TO.P,U1.1,2,Pin_2*%
%TO.N,Net-(J1-Pad3)*%
X89538000Y-123193000D03*
%TO.P,U1.1,3,Pin_3*%
%TO.N,Net-(J1-Pad5)*%
X89538000Y-120653000D03*
%TO.P,U1.1,4,Pin_4*%
%TO.N,Net-(J1-Pad7)*%
X89538000Y-118113000D03*
%TO.P,U1.1,5,Pin_5*%
%TO.N,Net-(J1-Pad8)*%
X89538000Y-115573000D03*
%TO.P,U1.1,6,Pin_6*%
%TO.N,Net-(J1-Pad6)*%
X89538000Y-113033000D03*
%TO.P,U1.1,7,Pin_7*%
%TO.N,Net-(J1-Pad4)*%
X89538000Y-110493000D03*
%TO.P,U1.1,8,Pin_8*%
%TO.N,Net-(J1-Pad2)*%
X89538000Y-107953000D03*
%TO.P,U1.1,9,Pin_9*%
%TO.N,Net-(J2-Pad1)*%
X89538000Y-105413000D03*
%TO.P,U1.1,10,Pin_10*%
%TO.N,Net-(J2-Pad3)*%
X89538000Y-102873000D03*
%TO.P,U1.1,11,Pin_11*%
%TO.N,Net-(J2-Pad5)*%
X89538000Y-100333000D03*
%TO.P,U1.1,12,Pin_12*%
%TO.N,Net-(J2-Pad7)*%
X89538000Y-97793000D03*
%TO.P,U1.1,13,Pin_13*%
%TO.N,Net-(J2-Pad8)*%
X89538000Y-95253000D03*
%TO.P,U1.1,14,Pin_14*%
%TO.N,Net-(J2-Pad6)*%
X89538000Y-92713000D03*
%TO.P,U1.1,15,Pin_15*%
%TO.N,Net-(J2-Pad4)*%
X89538000Y-90173000D03*
%TO.P,U1.1,16,Pin_16*%
%TO.N,Net-(J2-Pad2)*%
X89538000Y-87633000D03*
%TD*%
D14*
%TO.P,J14,1*%
%TO.N,Net-(A3.1-Pad2)*%
X243840000Y-71120000D03*
D15*
%TO.P,J14,2*%
%TO.N,Net-(A3.1-Pad1)*%
X243840000Y-66120000D03*
%TD*%
D12*
%TO.P,J4,1,Pin_1*%
%TO.N,Net-(J4-Pad1)*%
X100975000Y-101600000D03*
D13*
%TO.P,J4,2,Pin_2*%
%TO.N,Net-(J4-Pad2)*%
X100975000Y-99060000D03*
%TO.P,J4,3,Pin_3*%
%TO.N,Net-(J4-Pad3)*%
X103515000Y-101600000D03*
%TO.P,J4,4,Pin_4*%
%TO.N,Net-(J4-Pad4)*%
X103515000Y-99060000D03*
%TO.P,J4,5,Pin_5*%
%TO.N,Net-(J4-Pad5)*%
X106055000Y-101600000D03*
%TO.P,J4,6,Pin_6*%
%TO.N,Net-(J4-Pad6)*%
X106055000Y-99060000D03*
%TO.P,J4,7,Pin_7*%
%TO.N,Net-(J4-Pad7)*%
X108595000Y-101600000D03*
%TO.P,J4,8,Pin_8*%
%TO.N,Net-(J4-Pad8)*%
X108595000Y-99060000D03*
%TD*%
D12*
%TO.P,J12,1,Pin_1*%
%TO.N,Net-(J12-Pad1)*%
X172720000Y-87630000D03*
D13*
%TO.P,J12,2,Pin_2*%
%TO.N,Net-(A2.3-Pad7)*%
X175260000Y-87630000D03*
%TD*%
%TO.P,J15,20,Pin_20*%
%TO.N,Net-(A1-Pad20)*%
X71120000Y-67081000D03*
%TO.P,J15,19,Pin_19*%
%TO.N,Net-(A1-Pad19)*%
X73660000Y-67081000D03*
%TO.P,J15,18,Pin_18*%
%TO.N,Net-(A1-Pad18)*%
X76200000Y-67081000D03*
%TO.P,J15,17,Pin_17*%
%TO.N,Net-(A1-Pad17)*%
X78740000Y-67081000D03*
%TO.P,J15,16,Pin_16*%
%TO.N,Net-(A1-Pad16)*%
X81280000Y-67081000D03*
%TO.P,J15,15,Pin_15*%
%TO.N,Net-(A1-Pad15)*%
X83820000Y-67081000D03*
%TO.P,J15,14,Pin_14*%
%TO.N,Net-(A1-Pad14)*%
X86360000Y-67081000D03*
%TO.P,J15,13,Pin_13*%
%TO.N,GND*%
X88900000Y-67081000D03*
%TO.P,J15,12,Pin_12*%
%TO.N,11 SCLK*%
X91440000Y-67081000D03*
%TO.P,J15,11,Pin_11*%
%TO.N,9 MISO*%
X93980000Y-67081000D03*
%TO.P,J15,10,Pin_10*%
%TO.N,10 MOSI*%
X96520000Y-67081000D03*
%TO.P,J15,9,Pin_9*%
%TO.N,3V3*%
X99060000Y-67081000D03*
%TO.P,J15,8,Pin_8*%
%TO.N,Net-(U1.2-Pad6)*%
X101600000Y-67081000D03*
%TO.P,J15,7,Pin_7*%
%TO.N,Net-(A1-Pad7)*%
X104140000Y-67081000D03*
%TO.P,J15,6,Pin_6*%
%TO.N,Net-(A1-Pad6)*%
X106680000Y-67081000D03*
%TO.P,J15,5,Pin_5*%
%TO.N,GND*%
X109220000Y-67081000D03*
%TO.P,J15,4,Pin_4*%
%TO.N,Net-(A1-Pad4)*%
X111760000Y-67081000D03*
%TO.P,J15,3,Pin_3*%
%TO.N,SCL*%
X114300000Y-67081000D03*
%TO.P,J15,2,Pin_2*%
%TO.N,SDA*%
X116840000Y-67081000D03*
D12*
%TO.P,J15,1,Pin_1*%
%TO.N,3V3*%
X119380000Y-67081000D03*
%TD*%
%TO.P,J2,1,Pin_1*%
%TO.N,Net-(J2-Pad1)*%
X78115000Y-101605000D03*
D13*
%TO.P,J2,2,Pin_2*%
%TO.N,Net-(J2-Pad2)*%
X78115000Y-99065000D03*
%TO.P,J2,3,Pin_3*%
%TO.N,Net-(J2-Pad3)*%
X80655000Y-101605000D03*
%TO.P,J2,4,Pin_4*%
%TO.N,Net-(J2-Pad4)*%
X80655000Y-99065000D03*
%TO.P,J2,5,Pin_5*%
%TO.N,Net-(J2-Pad5)*%
X83195000Y-101605000D03*
%TO.P,J2,6,Pin_6*%
%TO.N,Net-(J2-Pad6)*%
X83195000Y-99065000D03*
%TO.P,J2,7,Pin_7*%
%TO.N,Net-(J2-Pad7)*%
X85735000Y-101605000D03*
%TO.P,J2,8,Pin_8*%
%TO.N,Net-(J2-Pad8)*%
X85735000Y-99065000D03*
%TD*%
D12*
%TO.P,J19,1,Pin_1*%
%TO.N,Net-(J19-Pad1)*%
X192840000Y-67564000D03*
D13*
%TO.P,J19,2,Pin_2*%
%TO.N,Net-(J19-Pad2)*%
X190300000Y-67564000D03*
%TO.P,J19,3,Pin_3*%
%TO.N,Net-(J19-Pad3)*%
X187760000Y-67564000D03*
%TO.P,J19,4,Pin_4*%
%TO.N,Net-(J19-Pad4)*%
X185220000Y-67564000D03*
%TO.P,J19,5,Pin_5*%
%TO.N,Net-(J19-Pad5)*%
X182680000Y-67564000D03*
%TO.P,J19,6,Pin_6*%
%TO.N,Net-(J19-Pad6)*%
X180140000Y-67564000D03*
%TD*%
D16*
%TO.P,C1,1*%
%TO.N,Net-(A3.1-Pad1)*%
X223520000Y-84020000D03*
D10*
%TO.P,C1,2*%
%TO.N,Net-(A3.1-Pad2)*%
X223520000Y-81520000D03*
%TD*%
D12*
%TO.P,J6,1,Pin_1*%
%TO.N,Net-(J6-Pad1)*%
X123825000Y-101630000D03*
D13*
%TO.P,J6,2,Pin_2*%
%TO.N,Net-(J6-Pad2)*%
X123825000Y-99090000D03*
%TO.P,J6,3,Pin_3*%
%TO.N,Net-(J6-Pad3)*%
X126365000Y-101630000D03*
%TO.P,J6,4,Pin_4*%
%TO.N,Net-(J6-Pad4)*%
X126365000Y-99090000D03*
%TO.P,J6,5,Pin_5*%
%TO.N,Net-(J6-Pad5)*%
X128905000Y-101630000D03*
%TO.P,J6,6,Pin_6*%
%TO.N,Net-(J6-Pad6)*%
X128905000Y-99090000D03*
%TO.P,J6,7,Pin_7*%
%TO.N,Net-(J6-Pad7)*%
X131445000Y-101630000D03*
%TO.P,J6,8,Pin_8*%
%TO.N,Net-(J6-Pad8)*%
X131445000Y-99090000D03*
%TD*%
D12*
%TO.P,J13,1,Pin_1*%
%TO.N,Net-(J13-Pad1)*%
X172720000Y-80010000D03*
D13*
%TO.P,J13,2,Pin_2*%
%TO.N,Net-(A2.3-Pad7)*%
X175260000Y-80010000D03*
%TD*%
D12*
%TO.P,J3,1,Pin_1*%
%TO.N,Net-(J3-Pad1)*%
X100975000Y-121290000D03*
D13*
%TO.P,J3,2,Pin_2*%
%TO.N,Net-(J3-Pad2)*%
X100975000Y-118750000D03*
%TO.P,J3,3,Pin_3*%
%TO.N,Net-(J3-Pad3)*%
X103515000Y-121290000D03*
%TO.P,J3,4,Pin_4*%
%TO.N,Net-(J3-Pad4)*%
X103515000Y-118750000D03*
%TO.P,J3,5,Pin_5*%
%TO.N,Net-(J3-Pad5)*%
X106055000Y-121290000D03*
%TO.P,J3,6,Pin_6*%
%TO.N,Net-(J3-Pad6)*%
X106055000Y-118750000D03*
%TO.P,J3,7,Pin_7*%
%TO.N,Net-(J3-Pad7)*%
X108595000Y-121290000D03*
%TO.P,J3,8,Pin_8*%
%TO.N,Net-(J3-Pad8)*%
X108595000Y-118750000D03*
%TD*%
D12*
%TO.P,J9,1,Pin_1*%
%TO.N,Net-(A3.1-Pad2)*%
X172720000Y-97790000D03*
D13*
%TO.P,J9,2,Pin_2*%
%TO.N,Net-(J9-Pad2)*%
X175260000Y-97790000D03*
%TD*%
D12*
%TO.P,J18,1,Pin_1*%
%TO.N,Net-(A3.2-Pad1)*%
X202030000Y-121920000D03*
D13*
%TO.P,J18,2,Pin_2*%
%TO.N,Net-(J12-Pad1)*%
X204570000Y-121920000D03*
%TO.P,J18,3,Pin_3*%
%TO.N,Net-(J13-Pad1)*%
X207110000Y-121920000D03*
%TO.P,J18,4,Pin_4*%
%TO.N,Net-(J18-Pad4)*%
X209650000Y-121920000D03*
%TO.P,J18,5,Pin_5*%
%TO.N,Net-(J18-Pad5)*%
X212190000Y-121920000D03*
%TO.P,J18,6,Pin_6*%
%TO.N,Net-(J18-Pad6)*%
X214730000Y-121920000D03*
%TD*%
D12*
%TO.P,J16,1,Pin_1*%
%TO.N,5V*%
X119380000Y-57150000D03*
D13*
%TO.P,J16,2,Pin_2*%
X116840000Y-57150000D03*
%TO.P,J16,3,Pin_3*%
%TO.N,GND*%
X114300000Y-57150000D03*
%TO.P,J16,4,Pin_4*%
%TO.N,/14 TXD*%
X111760000Y-57150000D03*
%TO.P,J16,5,Pin_5*%
%TO.N,/18 RXD*%
X109220000Y-57150000D03*
%TO.P,J16,6,Pin_6*%
%TO.N,Net-(A1-Pad26)*%
X106680000Y-57150000D03*
%TO.P,J16,7,Pin_7*%
%TO.N,Net-(A1-Pad27)*%
X104140000Y-57150000D03*
%TO.P,J16,8,Pin_8*%
%TO.N,23*%
X101600000Y-57150000D03*
%TO.P,J16,9,Pin_9*%
%TO.N,24*%
X99060000Y-57150000D03*
%TO.P,J16,10,Pin_10*%
%TO.N,GND*%
X96520000Y-57150000D03*
%TO.P,J16,11,Pin_11*%
%TO.N,25*%
X93980000Y-57150000D03*
%TO.P,J16,12,Pin_12*%
%TO.N,8*%
X91440000Y-57150000D03*
%TO.P,J16,13,Pin_13*%
%TO.N,7*%
X88900000Y-57150000D03*
%TO.P,J16,14,Pin_14*%
%TO.N,Net-(A1-Pad34)*%
X86360000Y-57150000D03*
%TO.P,J16,15,Pin_15*%
%TO.N,GND*%
X83820000Y-57150000D03*
%TO.P,J16,16,Pin_16*%
%TO.N,12*%
X81280000Y-57150000D03*
%TO.P,J16,17,Pin_17*%
%TO.N,GND*%
X78740000Y-57150000D03*
%TO.P,J16,18,Pin_18*%
%TO.N,16*%
X76200000Y-57150000D03*
%TO.P,J16,19,Pin_19*%
%TO.N,20*%
X73660000Y-57150000D03*
%TO.P,J16,20,Pin_20*%
%TO.N,21*%
X71120000Y-57150000D03*
%TD*%
D17*
%TO.P,Q1,1,B*%
%TO.N,Net-(J18-Pad4)*%
X172720000Y-110490000D03*
D18*
%TO.P,Q1,2,C*%
%TO.N,Net-(A3.1-Pad1)*%
X175260000Y-110490000D03*
%TO.P,Q1,3,E*%
%TO.N,Net-(J9-Pad2)*%
X177800000Y-110490000D03*
%TD*%
D12*
%TO.P,J8,1,Pin_1*%
%TO.N,Net-(J8-Pad1)*%
X146685000Y-101600000D03*
D13*
%TO.P,J8,2,Pin_2*%
%TO.N,Net-(J8-Pad2)*%
X146685000Y-99060000D03*
%TO.P,J8,3,Pin_3*%
%TO.N,Net-(J8-Pad3)*%
X149225000Y-101600000D03*
%TO.P,J8,4,Pin_4*%
%TO.N,Net-(J8-Pad4)*%
X149225000Y-99060000D03*
%TO.P,J8,5,Pin_5*%
%TO.N,Net-(J8-Pad5)*%
X151765000Y-101600000D03*
%TO.P,J8,6,Pin_6*%
%TO.N,Net-(J8-Pad6)*%
X151765000Y-99060000D03*
%TO.P,J8,7,Pin_7*%
%TO.N,Net-(J8-Pad7)*%
X154305000Y-101600000D03*
%TO.P,J8,8,Pin_8*%
%TO.N,Net-(J8-Pad8)*%
X154305000Y-99060000D03*
%TD*%
D16*
%TO.P,C2,1*%
%TO.N,Net-(A3.1-Pad1)*%
X223520000Y-105410000D03*
D10*
%TO.P,C2,2*%
%TO.N,Net-(A3.1-Pad2)*%
X223520000Y-102910000D03*
%TD*%
D12*
%TO.P,J10,1,Pin_1*%
%TO.N,Net-(A3.1-Pad6)*%
X236220000Y-80030000D03*
D13*
%TO.P,J10,2,Pin_2*%
%TO.N,Net-(A3.1-Pad5)*%
X236220000Y-82570000D03*
%TO.P,J10,3,Pin_3*%
%TO.N,Net-(A3.1-Pad4)*%
X236220000Y-85110000D03*
%TO.P,J10,4,Pin_4*%
%TO.N,Net-(A3.1-Pad3)*%
X236220000Y-87650000D03*
%TD*%
D12*
%TO.P,J5,1,Pin_1*%
%TO.N,Net-(J5-Pad1)*%
X123835000Y-121920000D03*
D13*
%TO.P,J5,2,Pin_2*%
%TO.N,Net-(J5-Pad2)*%
X123835000Y-119380000D03*
%TO.P,J5,3,Pin_3*%
%TO.N,Net-(J5-Pad3)*%
X126375000Y-121920000D03*
%TO.P,J5,4,Pin_4*%
%TO.N,Net-(J5-Pad4)*%
X126375000Y-119380000D03*
%TO.P,J5,5,Pin_5*%
%TO.N,Net-(J5-Pad5)*%
X128915000Y-121920000D03*
%TO.P,J5,6,Pin_6*%
%TO.N,Net-(J5-Pad6)*%
X128915000Y-119380000D03*
%TO.P,J5,7,Pin_7*%
%TO.N,Net-(J5-Pad7)*%
X131455000Y-121920000D03*
%TO.P,J5,8,Pin_8*%
%TO.N,Net-(J5-Pad8)*%
X131455000Y-119380000D03*
%TD*%
D12*
%TO.P,J1,1,Pin_1*%
%TO.N,Net-(J1-Pad1)*%
X78115000Y-121925000D03*
D13*
%TO.P,J1,2,Pin_2*%
%TO.N,Net-(J1-Pad2)*%
X78115000Y-119385000D03*
%TO.P,J1,3,Pin_3*%
%TO.N,Net-(J1-Pad3)*%
X80655000Y-121925000D03*
%TO.P,J1,4,Pin_4*%
%TO.N,Net-(J1-Pad4)*%
X80655000Y-119385000D03*
%TO.P,J1,5,Pin_5*%
%TO.N,Net-(J1-Pad5)*%
X83195000Y-121925000D03*
%TO.P,J1,6,Pin_6*%
%TO.N,Net-(J1-Pad6)*%
X83195000Y-119385000D03*
%TO.P,J1,7,Pin_7*%
%TO.N,Net-(J1-Pad7)*%
X85735000Y-121925000D03*
%TO.P,J1,8,Pin_8*%
%TO.N,Net-(J1-Pad8)*%
X85735000Y-119385000D03*
%TD*%
D12*
%TO.P,J7,1,Pin_1*%
%TO.N,Net-(J7-Pad1)*%
X146685000Y-121920000D03*
D13*
%TO.P,J7,2,Pin_2*%
%TO.N,Net-(J7-Pad2)*%
X146685000Y-119380000D03*
%TO.P,J7,3,Pin_3*%
%TO.N,Net-(J7-Pad3)*%
X149225000Y-121920000D03*
%TO.P,J7,4,Pin_4*%
%TO.N,Net-(J7-Pad4)*%
X149225000Y-119380000D03*
%TO.P,J7,5,Pin_5*%
%TO.N,Net-(J7-Pad5)*%
X151765000Y-121920000D03*
%TO.P,J7,6,Pin_6*%
%TO.N,Net-(J7-Pad6)*%
X151765000Y-119380000D03*
%TO.P,J7,7,Pin_7*%
%TO.N,Net-(J7-Pad7)*%
X154305000Y-121920000D03*
%TO.P,J7,8,Pin_8*%
%TO.N,Net-(J7-Pad8)*%
X154305000Y-119380000D03*
%TD*%
D12*
%TO.P,J11,1,Pin_1*%
%TO.N,Net-(J11-Pad1)*%
X236220000Y-101600000D03*
D13*
%TO.P,J11,2,Pin_2*%
%TO.N,Net-(J11-Pad2)*%
X236220000Y-104140000D03*
%TO.P,J11,3,Pin_3*%
%TO.N,Net-(J11-Pad3)*%
X236220000Y-106680000D03*
%TO.P,J11,4,Pin_4*%
%TO.N,Net-(J11-Pad4)*%
X236220000Y-109220000D03*
%TD*%
D12*
%TO.P,J17,1,Pin_1*%
%TO.N,/14 TXD*%
X180190000Y-121920000D03*
D13*
%TO.P,J17,2,Pin_2*%
%TO.N,/18 RXD*%
X182730000Y-121920000D03*
%TO.P,J17,3,Pin_3*%
%TO.N,Net-(A3.2-Pad7)*%
X185270000Y-121920000D03*
%TO.P,J17,4,Pin_4*%
%TO.N,Net-(A4.2-Pad7)*%
X187810000Y-121920000D03*
%TO.P,J17,5,Pin_5*%
%TO.N,Net-(J17-Pad5)*%
X190350000Y-121920000D03*
%TO.P,J17,6,Pin_6*%
%TO.N,Net-(A3.2-Pad8)*%
X192890000Y-121920000D03*
%TO.P,J17,7,Pin_7*%
%TO.N,Net-(A4.2-Pad8)*%
X195430000Y-121920000D03*
%TO.P,J17,8,Pin_8*%
%TO.N,Net-(J17-Pad8)*%
X197970000Y-121920000D03*
%TD*%
%TO.P,A1,1,Pin_1*%
%TO.N,3V3*%
X119380000Y-63246000D03*
%TO.P,A1,2,Pin_2*%
%TO.N,SDA*%
X116840000Y-63246000D03*
%TO.P,A1,3,Pin_3*%
%TO.N,SCL*%
X114300000Y-63246000D03*
%TO.P,A1,4,Pin_4*%
%TO.N,Net-(A1-Pad4)*%
X111760000Y-63246000D03*
%TO.P,A1,5,Pin_5*%
%TO.N,GND*%
X109220000Y-63246000D03*
%TO.P,A1,6,Pin_6*%
%TO.N,Net-(A1-Pad6)*%
X106680000Y-63246000D03*
%TO.P,A1,7,Pin_7*%
%TO.N,Net-(A1-Pad7)*%
X104140000Y-63246000D03*
%TO.P,A1,8,Pin_8*%
%TO.N,Net-(U1.2-Pad6)*%
X101600000Y-63246000D03*
%TO.P,A1,9,Pin_9*%
%TO.N,3V3*%
X99060000Y-63246000D03*
%TO.P,A1,10,Pin_10*%
%TO.N,10 MOSI*%
X96520000Y-63246000D03*
%TO.P,A1,11,Pin_11*%
%TO.N,9 MISO*%
X93980000Y-63246000D03*
%TO.P,A1,12,Pin_12*%
%TO.N,11 SCLK*%
X91440000Y-63246000D03*
%TO.P,A1,13,Pin_13*%
%TO.N,GND*%
X88900000Y-63246000D03*
%TO.P,A1,14,Pin_14*%
%TO.N,Net-(A1-Pad14)*%
X86360000Y-63246000D03*
%TO.P,A1,15,Pin_15*%
%TO.N,Net-(A1-Pad15)*%
X83820000Y-63246000D03*
%TO.P,A1,16,Pin_16*%
%TO.N,Net-(A1-Pad16)*%
X81280000Y-63246000D03*
%TO.P,A1,17,Pin_17*%
%TO.N,Net-(A1-Pad17)*%
X78740000Y-63246000D03*
%TO.P,A1,18,Pin_18*%
%TO.N,Net-(A1-Pad18)*%
X76200000Y-63246000D03*
%TO.P,A1,19,Pin_19*%
%TO.N,Net-(A1-Pad19)*%
X73660000Y-63246000D03*
%TO.P,A1,20,Pin_20*%
%TO.N,Net-(A1-Pad20)*%
X71120000Y-63246000D03*
D12*
%TO.P,A1,21,Pin_21*%
%TO.N,5V*%
X119380000Y-60706000D03*
D13*
%TO.P,A1,22,Pin_22*%
X116840000Y-60706000D03*
%TO.P,A1,23,Pin_23*%
%TO.N,GND*%
X114300000Y-60706000D03*
%TO.P,A1,24,Pin_24*%
%TO.N,/14 TXD*%
X111760000Y-60706000D03*
%TO.P,A1,25,Pin_25*%
%TO.N,/18 RXD*%
X109220000Y-60706000D03*
%TO.P,A1,26,Pin_26*%
%TO.N,Net-(A1-Pad26)*%
X106680000Y-60706000D03*
%TO.P,A1,27,Pin_27*%
%TO.N,Net-(A1-Pad27)*%
X104140000Y-60706000D03*
%TO.P,A1,28,Pin_28*%
%TO.N,23*%
X101600000Y-60706000D03*
%TO.P,A1,29,Pin_29*%
%TO.N,24*%
X99060000Y-60706000D03*
%TO.P,A1,30,Pin_30*%
%TO.N,GND*%
X96520000Y-60706000D03*
%TO.P,A1,31,Pin_31*%
%TO.N,25*%
X93980000Y-60706000D03*
%TO.P,A1,32,Pin_32*%
%TO.N,8*%
X91440000Y-60706000D03*
%TO.P,A1,33,Pin_33*%
%TO.N,7*%
X88900000Y-60706000D03*
%TO.P,A1,34,Pin_34*%
%TO.N,Net-(A1-Pad34)*%
X86360000Y-60706000D03*
%TO.P,A1,35,Pin_35*%
%TO.N,GND*%
X83820000Y-60706000D03*
%TO.P,A1,36,Pin_36*%
%TO.N,12*%
X81280000Y-60706000D03*
%TO.P,A1,37,Pin_37*%
%TO.N,GND*%
X78740000Y-60706000D03*
%TO.P,A1,38,Pin_38*%
%TO.N,16*%
X76200000Y-60706000D03*
%TO.P,A1,39,Pin_39*%
%TO.N,20*%
X73660000Y-60706000D03*
%TO.P,A1,40,Pin_40*%
%TO.N,21*%
X71120000Y-60706000D03*
%TD*%
D19*
%TO.N,/14 TXD*%
X118928000Y-52558000D03*
%TO.N,GND*%
X140335000Y-78105000D03*
X168910000Y-65405000D03*
%TO.N,5V*%
X168275000Y-64135000D03*
X137795000Y-67310000D03*
%TO.N,Net-(A3.2-Pad8)*%
X191770000Y-90475000D03*
X189230000Y-107168000D03*
%TO.N,Net-(A3.1-Pad2)*%
X170500000Y-70720000D03*
%TO.N,Net-(A3.1-Pad1)*%
X229545000Y-99675000D03*
%TO.N,Net-(A3.2-Pad1)*%
X227330000Y-119380000D03*
%TO.N,Net-(J12-Pad1)*%
X198755000Y-115570000D03*
X182880000Y-110490000D03*
%TO.N,Net-(J13-Pad1)*%
X198755000Y-114300000D03*
X184150000Y-110490000D03*
%TD*%
D20*
%TO.N,/14 TXD*%
X118928000Y-52558000D02*
X116352000Y-52558000D01*
X116352000Y-52558000D02*
X111760000Y-57150000D01*
D21*
%TO.N,GND*%
X163195000Y-75565000D02*
X163195000Y-68580000D01*
X163195000Y-68580000D02*
X166370000Y-65405000D01*
X160655000Y-78105000D02*
X163195000Y-75565000D01*
X140335000Y-78105000D02*
X160655000Y-78105000D01*
X166370000Y-65405000D02*
X168910000Y-65405000D01*
%TO.N,5V*%
X137795000Y-67310000D02*
X139085000Y-66020000D01*
X139085000Y-66020000D02*
X162580000Y-66020000D01*
X164465000Y-64135000D02*
X168275000Y-64135000D01*
X162580000Y-66020000D02*
X164465000Y-64135000D01*
D20*
%TO.N,Net-(A1-Pad7)*%
X94615000Y-92075000D02*
X104140000Y-82550000D01*
X94615000Y-107950000D02*
X94615000Y-92075000D01*
X97155000Y-110490000D02*
X94615000Y-107950000D01*
X104140000Y-82550000D02*
X104140000Y-63246000D01*
%TO.N,Net-(A3.2-Pad8)*%
X191770000Y-90475000D02*
X191770000Y-79375000D01*
X191770000Y-79375000D02*
X194945000Y-76200000D01*
X189230000Y-115120000D02*
X192890000Y-118780000D01*
X189230000Y-107168000D02*
X189230000Y-115120000D01*
D22*
%TO.N,Net-(A3.1-Pad2)*%
X220020000Y-76180000D02*
X220020000Y-73640000D01*
X225552000Y-62992000D02*
X233680000Y-71120000D01*
X223520000Y-102910000D02*
X223520000Y-92340000D01*
X170487000Y-67257000D02*
X170500000Y-67270000D01*
X174752000Y-62992000D02*
X225552000Y-62992000D01*
X233680000Y-71120000D02*
X243840000Y-71120000D01*
X168910000Y-97790000D02*
X166370000Y-95250000D01*
X220020000Y-88840000D02*
X220020000Y-76180000D01*
X223520000Y-79680000D02*
X220020000Y-76180000D01*
X170500000Y-67270000D02*
X170500000Y-70720000D01*
X233660000Y-71100000D02*
X233680000Y-71120000D01*
X222560000Y-71100000D02*
X233660000Y-71100000D01*
X170487000Y-67257000D02*
X174752000Y-62992000D01*
X166370000Y-95250000D02*
X166370000Y-71374000D01*
X220020000Y-73640000D02*
X222560000Y-71100000D01*
X169287000Y-68457000D02*
X170487000Y-67257000D01*
X223520000Y-92340000D02*
X220020000Y-88840000D01*
X223520000Y-81520000D02*
X223520000Y-79680000D01*
X166370000Y-71374000D02*
X169287000Y-68457000D01*
X172720000Y-97790000D02*
X168910000Y-97790000D01*
%TO.N,Net-(A3.1-Pad1)*%
X171460000Y-105410000D02*
X172720000Y-105410000D01*
X223520000Y-105410000D02*
X229870000Y-105410000D01*
X232410000Y-77470000D02*
X234950000Y-74930000D01*
X168910000Y-105410000D02*
X160845000Y-113475000D01*
X234950000Y-74930000D02*
X245110000Y-74930000D01*
X226060000Y-127000000D02*
X232410000Y-120650000D01*
X223520000Y-84020000D02*
X228705000Y-84020000D01*
X232410000Y-120650000D02*
X232410000Y-102870000D01*
X232410000Y-80315000D02*
X232410000Y-77470000D01*
X175260000Y-107950000D02*
X175260000Y-110490000D01*
X160845000Y-113475000D02*
X160845000Y-122758000D01*
X171460000Y-105410000D02*
X168910000Y-105410000D01*
X232410000Y-102870000D02*
X232410000Y-80315000D01*
X160845000Y-122758000D02*
X165087000Y-127000000D01*
X228705000Y-84020000D02*
X232410000Y-80315000D01*
X247650000Y-72390000D02*
X247650000Y-69930000D01*
X172720000Y-105410000D02*
X175260000Y-107950000D01*
X247650000Y-69930000D02*
X243840000Y-66120000D01*
X165087000Y-127000000D02*
X226060000Y-127000000D01*
X232410000Y-102540000D02*
X229545000Y-99675000D01*
X229870000Y-105410000D02*
X232410000Y-102870000D01*
X245110000Y-74930000D02*
X247650000Y-72390000D01*
X232410000Y-102870000D02*
X232410000Y-102540000D01*
D20*
%TO.N,Net-(J1-Pad1)*%
X88265000Y-127000000D02*
X89535000Y-125730000D01*
X81915000Y-127000000D02*
X88265000Y-127000000D01*
X78115000Y-123200000D02*
X81915000Y-127000000D01*
X78115000Y-121925000D02*
X78115000Y-123200000D01*
%TO.N,Net-(J1-Pad2)*%
X89535000Y-107950000D02*
X78115000Y-119370000D01*
%TO.N,Net-(J1-Pad3)*%
X89535000Y-123190000D02*
X86995000Y-125730000D01*
X80655000Y-121925000D02*
X80655000Y-123200000D01*
X83185000Y-125730000D02*
X84455000Y-125730000D01*
X80655000Y-123200000D02*
X83185000Y-125730000D01*
X86995000Y-125730000D02*
X84460000Y-125730000D01*
%TO.N,Net-(J1-Pad4)*%
X89535000Y-110490000D02*
X80655000Y-119370000D01*
%TO.N,Net-(J1-Pad5)*%
X89535000Y-120650000D02*
X85725000Y-124460000D01*
X84455000Y-124460000D02*
X83195000Y-123200000D01*
X85725000Y-124460000D02*
X84455000Y-124460000D01*
X83195000Y-123200000D02*
X83195000Y-121925000D01*
%TO.N,Net-(J1-Pad6)*%
X89535000Y-113030000D02*
X83195000Y-119370000D01*
%TO.N,Net-(J1-Pad7)*%
X89535000Y-118110000D02*
X85735000Y-121910000D01*
%TO.N,Net-(A1-Pad4)*%
X139065000Y-82550000D02*
X135890000Y-79375000D01*
X142875000Y-110490000D02*
X141605000Y-110490000D01*
X141605000Y-110490000D02*
X139065000Y-107950000D01*
X139065000Y-107950000D02*
X139065000Y-82550000D01*
X113030000Y-79375000D02*
X111760000Y-78105000D01*
X135890000Y-79375000D02*
X113030000Y-79375000D01*
X111760000Y-78105000D02*
X111760000Y-63246000D01*
%TO.N,Net-(A1-Pad6)*%
X120025000Y-110495000D02*
X116205000Y-106675000D01*
X116205000Y-84455000D02*
X112395000Y-80645000D01*
X106680000Y-78105000D02*
X106680000Y-63246000D01*
X109220000Y-80645000D02*
X106680000Y-78105000D01*
X116205000Y-106675000D02*
X116205000Y-84455000D01*
X112395000Y-80645000D02*
X109220000Y-80645000D01*
%TO.N,Net-(U1.2-Pad6)*%
X101600000Y-77470000D02*
X101600000Y-63246000D01*
X64770000Y-83820000D02*
X67310000Y-81280000D01*
X67310000Y-81280000D02*
X97790000Y-81280000D01*
X74295000Y-110490000D02*
X69850000Y-110490000D01*
X69850000Y-110490000D02*
X64770000Y-105410000D01*
X97790000Y-81280000D02*
X101600000Y-77470000D01*
X64770000Y-105410000D02*
X64770000Y-83820000D01*
%TO.N,Net-(J1-Pad8)*%
X89535000Y-115570000D02*
X85735000Y-119370000D01*
%TO.N,Net-(J2-Pad1)*%
X81915000Y-106680000D02*
X88265000Y-106680000D01*
X88265000Y-106680000D02*
X89535000Y-105410000D01*
X78115000Y-101605000D02*
X78115000Y-102880000D01*
X78115000Y-102880000D02*
X81915000Y-106680000D01*
%TO.N,Net-(A3.2-Pad7)*%
X185270000Y-118780000D02*
X185270000Y-78890000D01*
X190500000Y-73660000D02*
X194945000Y-73660000D01*
X194945000Y-73660000D02*
X197485000Y-76200000D01*
X185270000Y-78890000D02*
X190500000Y-73660000D01*
%TO.N,Net-(A4.2-Pad7)*%
X195580000Y-93980000D02*
X189230000Y-93980000D01*
X186690000Y-111760000D02*
X187810000Y-112880000D01*
X186690000Y-96520000D02*
X186690000Y-111760000D01*
X187810000Y-112880000D02*
X187810000Y-118780000D01*
X197485000Y-95885000D02*
X195580000Y-93980000D01*
X197485000Y-97780000D02*
X197485000Y-95885000D01*
X189230000Y-93980000D02*
X186690000Y-96520000D01*
%TO.N,Net-(J2-Pad2)*%
X89535000Y-87630000D02*
X78115000Y-99050000D01*
%TO.N,Net-(J2-Pad3)*%
X80655000Y-102880000D02*
X83185000Y-105410000D01*
X89535000Y-102870000D02*
X86995000Y-105410000D01*
X80655000Y-101605000D02*
X80655000Y-102880000D01*
X83185000Y-105410000D02*
X84455000Y-105410000D01*
X86995000Y-105410000D02*
X84460000Y-105410000D01*
%TO.N,Net-(A4.2-Pad8)*%
X195430000Y-118780000D02*
X195430000Y-114150000D01*
X194945000Y-97780000D02*
X193050000Y-97780000D01*
X193050000Y-97780000D02*
X191770000Y-99060000D01*
X191770000Y-99060000D02*
X191770000Y-110490000D01*
X195430000Y-114150000D02*
X191770000Y-110490000D01*
%TO.N,Net-(J2-Pad4)*%
X89535000Y-90170000D02*
X80655000Y-99050000D01*
%TO.N,Net-(A3.2-Pad1)*%
X224790000Y-109220000D02*
X218440000Y-109220000D01*
X215900000Y-83820000D02*
X215900000Y-101600000D01*
X227330000Y-111760000D02*
X224790000Y-109220000D01*
X227330000Y-119380000D02*
X227330000Y-111760000D01*
X212725000Y-76200000D02*
X212725000Y-80645000D01*
X212725000Y-97780000D02*
X215900000Y-100955000D01*
X215900000Y-100955000D02*
X215900000Y-101600000D01*
X212725000Y-80645000D02*
X215900000Y-83820000D01*
X218440000Y-109220000D02*
X215900000Y-106680000D01*
X215900000Y-101600000D02*
X215900000Y-106680000D01*
%TO.N,Net-(J12-Pad1)*%
X172720000Y-90170000D02*
X173990000Y-91440000D01*
X179070000Y-91440000D02*
X182880000Y-95250000D01*
X182880000Y-95250000D02*
X182880000Y-110490000D01*
X172720000Y-87630000D02*
X172720000Y-90170000D01*
X173990000Y-91440000D02*
X179070000Y-91440000D01*
X201360000Y-115570000D02*
X204570000Y-118780000D01*
X198755000Y-115570000D02*
X201360000Y-115570000D01*
%TO.N,Net-(J13-Pad1)*%
X172720000Y-82550000D02*
X173990000Y-83820000D01*
X198755000Y-114300000D02*
X202630000Y-114300000D01*
X182880000Y-87630000D02*
X184150000Y-88900000D01*
X172720000Y-80010000D02*
X172720000Y-82550000D01*
X173990000Y-83820000D02*
X177800000Y-83820000D01*
X184150000Y-88900000D02*
X184150000Y-110490000D01*
X202630000Y-114300000D02*
X207110000Y-118780000D01*
X177800000Y-83820000D02*
X179070000Y-83820000D01*
X179070000Y-83820000D02*
X182880000Y-87630000D01*
%TO.N,Net-(J18-Pad4)*%
X209650000Y-121820000D02*
X209650000Y-118780000D01*
X175387000Y-123063000D02*
X175387000Y-114935000D01*
X172720000Y-112268000D02*
X172720000Y-110490000D01*
X209650000Y-121920000D02*
X209650000Y-124868000D01*
X175387000Y-114935000D02*
X172720000Y-112268000D01*
X209650000Y-124868000D02*
X209169000Y-125349000D01*
X209169000Y-125349000D02*
X177673000Y-125349000D01*
X177673000Y-125349000D02*
X175387000Y-123063000D01*
%TO.N,Net-(J2-Pad5)*%
X85725000Y-104140000D02*
X84455000Y-104140000D01*
X84455000Y-104140000D02*
X83195000Y-102880000D01*
X83195000Y-102880000D02*
X83195000Y-101605000D01*
X89535000Y-100330000D02*
X85725000Y-104140000D01*
%TO.N,Net-(J2-Pad6)*%
X89535000Y-92710000D02*
X83195000Y-99050000D01*
%TO.N,Net-(J2-Pad7)*%
X89535000Y-97790000D02*
X85735000Y-101590000D01*
X85735000Y-101590000D02*
X85735000Y-101605000D01*
%TO.N,Net-(J2-Pad8)*%
X89535000Y-95250000D02*
X85735000Y-99050000D01*
%TO.N,Net-(J3-Pad1)*%
X100975000Y-122565000D02*
X104775000Y-126365000D01*
X100975000Y-121290000D02*
X100975000Y-122565000D01*
X104775000Y-126365000D02*
X111125000Y-126365000D01*
X111125000Y-126365000D02*
X112395000Y-125095000D01*
%TO.N,Net-(J3-Pad2)*%
X112395000Y-107315000D02*
X100975000Y-118735000D01*
%TO.N,Net-(J3-Pad3)*%
X112395000Y-122555000D02*
X109855000Y-125095000D01*
X109855000Y-125095000D02*
X107320000Y-125095000D01*
X103515000Y-122565000D02*
X106045000Y-125095000D01*
X103515000Y-121290000D02*
X103515000Y-122565000D01*
X106045000Y-125095000D02*
X107315000Y-125095000D01*
%TO.N,Net-(J3-Pad4)*%
X112395000Y-109855000D02*
X103515000Y-118735000D01*
%TO.N,Net-(J3-Pad5)*%
X106055000Y-122565000D02*
X106055000Y-121290000D01*
X107315000Y-123825000D02*
X106055000Y-122565000D01*
X112395000Y-120015000D02*
X108585000Y-123825000D01*
X108585000Y-123825000D02*
X107315000Y-123825000D01*
%TO.N,Net-(J3-Pad6)*%
X112395000Y-112395000D02*
X106055000Y-118735000D01*
%TO.N,Net-(J3-Pad7)*%
X112395000Y-117475000D02*
X108595000Y-121275000D01*
%TO.N,Net-(J3-Pad8)*%
X112395000Y-114935000D02*
X108595000Y-118735000D01*
%TO.N,Net-(J4-Pad1)*%
X100975000Y-101605000D02*
X100975000Y-102880000D01*
X100975000Y-102880000D02*
X104775000Y-106680000D01*
X111125000Y-106680000D02*
X112395000Y-105410000D01*
X104775000Y-106680000D02*
X111125000Y-106680000D01*
%TO.N,Net-(J4-Pad2)*%
X112395000Y-87630000D02*
X100975000Y-99050000D01*
%TO.N,Net-(J4-Pad3)*%
X103515000Y-102880000D02*
X106045000Y-105410000D01*
X109855000Y-105410000D02*
X107320000Y-105410000D01*
X103515000Y-101605000D02*
X103515000Y-102880000D01*
X106045000Y-105410000D02*
X107315000Y-105410000D01*
X112395000Y-102870000D02*
X109855000Y-105410000D01*
%TO.N,Net-(J4-Pad4)*%
X112395000Y-90170000D02*
X103515000Y-99050000D01*
%TO.N,Net-(J4-Pad5)*%
X106055000Y-102880000D02*
X106055000Y-101605000D01*
X107315000Y-104140000D02*
X106055000Y-102880000D01*
X108585000Y-104140000D02*
X107315000Y-104140000D01*
X112395000Y-100330000D02*
X108585000Y-104140000D01*
%TO.N,Net-(J4-Pad6)*%
X112395000Y-92710000D02*
X106055000Y-99050000D01*
%TO.N,Net-(J4-Pad7)*%
X112395000Y-97790000D02*
X108595000Y-101590000D01*
X108595000Y-101590000D02*
X108595000Y-101600000D01*
%TO.N,Net-(J4-Pad8)*%
X112395000Y-95250000D02*
X108595000Y-99050000D01*
%TO.N,Net-(J5-Pad1)*%
X123835000Y-121920000D02*
X123835000Y-123195000D01*
X123835000Y-123195000D02*
X127635000Y-126995000D01*
X133985000Y-126995000D02*
X135255000Y-125725000D01*
X127635000Y-126995000D02*
X133985000Y-126995000D01*
%TO.N,Net-(J5-Pad2)*%
X135255000Y-107945000D02*
X123835000Y-119365000D01*
%TO.N,Net-(J5-Pad3)*%
X132715000Y-125725000D02*
X130180000Y-125725000D01*
X126375000Y-123195000D02*
X128905000Y-125725000D01*
X128905000Y-125725000D02*
X130175000Y-125725000D01*
X135255000Y-123185000D02*
X132715000Y-125725000D01*
X126375000Y-121920000D02*
X126375000Y-123195000D01*
%TO.N,Net-(J5-Pad4)*%
X135255000Y-110485000D02*
X126375000Y-119365000D01*
%TO.N,Net-(J5-Pad5)*%
X135255000Y-120645000D02*
X131445000Y-124455000D01*
X131445000Y-124455000D02*
X130175000Y-124455000D01*
X128915000Y-123195000D02*
X128915000Y-121920000D01*
X130175000Y-124455000D02*
X128915000Y-123195000D01*
%TO.N,Net-(J5-Pad6)*%
X135255000Y-113025000D02*
X128915000Y-119365000D01*
%TO.N,Net-(J5-Pad7)*%
X135255000Y-118105000D02*
X131455000Y-121905000D01*
%TO.N,Net-(J5-Pad8)*%
X135255000Y-115565000D02*
X131455000Y-119365000D01*
%TO.N,Net-(J6-Pad1)*%
X133985000Y-106680000D02*
X135255000Y-105410000D01*
X123835000Y-101605000D02*
X123835000Y-102880000D01*
X127635000Y-106680000D02*
X133985000Y-106680000D01*
X123835000Y-102880000D02*
X127635000Y-106680000D01*
%TO.N,Net-(J6-Pad2)*%
X135255000Y-87630000D02*
X123835000Y-99050000D01*
%TO.N,Net-(J6-Pad3)*%
X135255000Y-102870000D02*
X132715000Y-105410000D01*
X126375000Y-102880000D02*
X128905000Y-105410000D01*
X132715000Y-105410000D02*
X130180000Y-105410000D01*
X128905000Y-105410000D02*
X130175000Y-105410000D01*
X126375000Y-101605000D02*
X126375000Y-102880000D01*
%TO.N,Net-(J6-Pad4)*%
X135255000Y-90170000D02*
X126375000Y-99050000D01*
%TO.N,Net-(J6-Pad5)*%
X128915000Y-102880000D02*
X128915000Y-101605000D01*
X130175000Y-104140000D02*
X128915000Y-102880000D01*
X135255000Y-100330000D02*
X131445000Y-104140000D01*
X131445000Y-104140000D02*
X130175000Y-104140000D01*
%TO.N,Net-(J6-Pad6)*%
X135255000Y-92710000D02*
X128915000Y-99050000D01*
%TO.N,Net-(J6-Pad7)*%
X135255000Y-97790000D02*
X131455000Y-101590000D01*
%TO.N,Net-(J6-Pad8)*%
X135255000Y-95250000D02*
X131455000Y-99050000D01*
%TO.N,Net-(J7-Pad1)*%
X150495000Y-127000000D02*
X156845000Y-127000000D01*
X146695000Y-121925000D02*
X146695000Y-123200000D01*
X146695000Y-123200000D02*
X150495000Y-127000000D01*
X156845000Y-127000000D02*
X158115000Y-125730000D01*
%TO.N,Net-(J7-Pad2)*%
X158115000Y-107950000D02*
X146695000Y-119370000D01*
%TO.N,Net-(J7-Pad3)*%
X151765000Y-125730000D02*
X153035000Y-125730000D01*
X149235000Y-123200000D02*
X151765000Y-125730000D01*
X149235000Y-121925000D02*
X149235000Y-123200000D01*
X155575000Y-125730000D02*
X153040000Y-125730000D01*
X158115000Y-123190000D02*
X155575000Y-125730000D01*
%TO.N,Net-(J7-Pad4)*%
X158115000Y-110490000D02*
X149235000Y-119370000D01*
%TO.N,Net-(J7-Pad5)*%
X158115000Y-120650000D02*
X154305000Y-124460000D01*
X151775000Y-123200000D02*
X151775000Y-121925000D01*
X153035000Y-124460000D02*
X151775000Y-123200000D01*
X154305000Y-124460000D02*
X153035000Y-124460000D01*
%TO.N,Net-(J7-Pad6)*%
X158115000Y-113030000D02*
X151775000Y-119370000D01*
%TO.N,Net-(J7-Pad7)*%
X158115000Y-118110000D02*
X154315000Y-121910000D01*
%TO.N,Net-(J7-Pad8)*%
X158115000Y-115570000D02*
X154315000Y-119370000D01*
%TO.N,Net-(J8-Pad1)*%
X146695000Y-101605000D02*
X146695000Y-102880000D01*
X146695000Y-102880000D02*
X150495000Y-106680000D01*
X150495000Y-106680000D02*
X156845000Y-106680000D01*
X156845000Y-106680000D02*
X158115000Y-105410000D01*
%TO.N,Net-(J8-Pad2)*%
X158115000Y-87630000D02*
X146695000Y-99050000D01*
%TO.N,Net-(J8-Pad3)*%
X155575000Y-105410000D02*
X153040000Y-105410000D01*
X158115000Y-102870000D02*
X155575000Y-105410000D01*
X149235000Y-101605000D02*
X149235000Y-102880000D01*
X149235000Y-102880000D02*
X151765000Y-105410000D01*
X151765000Y-105410000D02*
X153035000Y-105410000D01*
%TO.N,Net-(J8-Pad4)*%
X158115000Y-90170000D02*
X149235000Y-99050000D01*
%TO.N,Net-(J8-Pad5)*%
X151775000Y-102880000D02*
X151775000Y-101605000D01*
X153035000Y-104140000D02*
X151775000Y-102880000D01*
X154305000Y-104140000D02*
X153035000Y-104140000D01*
X158115000Y-100330000D02*
X154305000Y-104140000D01*
%TO.N,Net-(J8-Pad6)*%
X158115000Y-92710000D02*
X151775000Y-99050000D01*
%TO.N,Net-(J8-Pad7)*%
X158115000Y-97790000D02*
X154315000Y-101590000D01*
%TO.N,Net-(J8-Pad8)*%
X158115000Y-95250000D02*
X154315000Y-99050000D01*
%TD*%
M02*
