%TF.GenerationSoftware,KiCad,Pcbnew,(6.0.10)*%
%TF.CreationDate,2025-04-13T20:47:06+02:00*%
%TF.ProjectId,pcb_shield,7063625f-7368-4696-956c-642e6b696361,1.0*%
%TF.SameCoordinates,Original*%
%TF.FileFunction,Copper,L1,Top*%
%TF.FilePolarity,Positive*%
%FSLAX46Y46*%
G04 Gerber Fmt 4.6, Leading zero omitted, Abs format (unit mm)*
G04 Created by KiCad (PCBNEW (6.0.10)) date 2025-04-13 20:47:06*
%MOMM*%
%LPD*%
G01*
G04 APERTURE LIST*
G04 Aperture macros list*
%AMRoundRect*
0 Rectangle with rounded corners*
0 $1 Rounding radius*
0 $2 $3 $4 $5 $6 $7 $8 $9 X,Y pos of 4 corners*
0 Add a 4 corners polygon primitive as box body*
4,1,4,$2,$3,$4,$5,$6,$7,$8,$9,$2,$3,0*
0 Add four circle primitives for the rounded corners*
1,1,$1+$1,$2,$3*
1,1,$1+$1,$4,$5*
1,1,$1+$1,$6,$7*
1,1,$1+$1,$8,$9*
0 Add four rect primitives between the rounded corners*
20,1,$1+$1,$2,$3,$4,$5,0*
20,1,$1+$1,$4,$5,$6,$7,0*
20,1,$1+$1,$6,$7,$8,$9,0*
20,1,$1+$1,$8,$9,$2,$3,0*%
G04 Aperture macros list end*
%TA.AperFunction,SMDPad,CuDef*%
%ADD10RoundRect,0.250000X-0.400000X-0.625000X0.400000X-0.625000X0.400000X0.625000X-0.400000X0.625000X0*%
%TD*%
%TA.AperFunction,ComponentPad*%
%ADD11C,1.600000*%
%TD*%
%TA.AperFunction,ComponentPad*%
%ADD12O,1.600000X1.600000*%
%TD*%
%TA.AperFunction,ComponentPad*%
%ADD13R,1.700000X1.700000*%
%TD*%
%TA.AperFunction,ComponentPad*%
%ADD14O,1.700000X1.700000*%
%TD*%
%TA.AperFunction,ComponentPad*%
%ADD15R,2.600000X2.600000*%
%TD*%
%TA.AperFunction,ComponentPad*%
%ADD16C,2.600000*%
%TD*%
%TA.AperFunction,ComponentPad*%
%ADD17R,1.600000X1.600000*%
%TD*%
%TA.AperFunction,SMDPad,CuDef*%
%ADD18C,2.000000*%
%TD*%
%TA.AperFunction,ComponentPad*%
%ADD19R,1.905000X2.000000*%
%TD*%
%TA.AperFunction,ComponentPad*%
%ADD20O,1.905000X2.000000*%
%TD*%
%TA.AperFunction,ViaPad*%
%ADD21C,0.800000*%
%TD*%
%TA.AperFunction,Conductor*%
%ADD22C,0.250000*%
%TD*%
%TA.AperFunction,Conductor*%
%ADD23C,0.500000*%
%TD*%
%TA.AperFunction,Conductor*%
%ADD24C,1.000000*%
%TD*%
%TA.AperFunction,Conductor*%
%ADD25C,0.400000*%
%TD*%
G04 APERTURE END LIST*
D10*
%TO.P,B2,2*%
%TO.N,/14 TXD*%
X155808000Y-63153000D03*
%TO.P,B2,1*%
X152708000Y-63153000D03*
%TD*%
%TO.P,B1,1*%
%TO.N,/18 RXD*%
X152708000Y-67903000D03*
%TO.P,B1,2*%
X155808000Y-67903000D03*
%TD*%
D11*
%TO.P,R2,1*%
%TO.N,/18 RXD*%
X148428000Y-71893000D03*
D12*
%TO.P,R2,2*%
X161128000Y-71893000D03*
%TD*%
D11*
%TO.P,R1,1*%
%TO.N,/18 RXD*%
X107858000Y-52553000D03*
D12*
%TO.P,R1,2*%
%TO.N,Net-(A1-Pad27)*%
X95158000Y-52553000D03*
%TD*%
D13*
%TO.P,A2.3,1,Pin_1*%
%TO.N,unconnected-(A2.3-Pad1)*%
X215748000Y-70523000D03*
D14*
%TO.P,A2.3,2,Pin_2*%
%TO.N,unconnected-(A2.3-Pad2)*%
X213208000Y-70523000D03*
%TO.P,A2.3,3,Pin_3*%
%TO.N,unconnected-(A2.3-Pad3)*%
X210668000Y-70523000D03*
%TO.P,A2.3,4,Pin_4*%
%TO.N,unconnected-(A2.3-Pad4)*%
X208128000Y-70523000D03*
%TO.P,A2.3,5,Pin_5*%
%TO.N,5V*%
X205588000Y-70523000D03*
%TO.P,A2.3,6,Pin_6*%
%TO.N,GND*%
X203048000Y-70523000D03*
%TO.P,A2.3,7,Pin_7*%
%TO.N,Net-(A2.3-Pad7)*%
X200508000Y-70523000D03*
%TO.P,A2.3,8,Pin_8*%
%TO.N,unconnected-(A2.3-Pad8)*%
X197968000Y-70523000D03*
%TD*%
D13*
%TO.P,A2.4,1,Pin_1*%
%TO.N,Net-(J19-Pad6)*%
X180188000Y-70513000D03*
D14*
%TO.P,A2.4,2,Pin_2*%
%TO.N,Net-(J19-Pad5)*%
X182728000Y-70513000D03*
%TO.P,A2.4,3,Pin_3*%
%TO.N,Net-(J19-Pad4)*%
X185268000Y-70513000D03*
%TO.P,A2.4,4,Pin_4*%
%TO.N,Net-(J19-Pad3)*%
X187808000Y-70513000D03*
%TO.P,A2.4,5,Pin_5*%
%TO.N,Net-(J19-Pad2)*%
X190348000Y-70513000D03*
%TO.P,A2.4,6,Pin_6*%
%TO.N,Net-(J19-Pad1)*%
X192888000Y-70513000D03*
%TD*%
D13*
%TO.P,A2.2,1,Pin_1*%
%TO.N,Net-(A3.2-Pad1)*%
X202028000Y-118783000D03*
D14*
%TO.P,A2.2,2,Pin_2*%
%TO.N,Net-(J12-Pad1)*%
X204568000Y-118783000D03*
%TO.P,A2.2,3,Pin_3*%
%TO.N,Net-(J13-Pad1)*%
X207108000Y-118783000D03*
%TO.P,A2.2,4,Pin_4*%
%TO.N,Net-(J18-Pad4)*%
X209648000Y-118783000D03*
%TO.P,A2.2,5,Pin_5*%
%TO.N,Net-(J18-Pad5)*%
X212188000Y-118783000D03*
%TO.P,A2.2,6,Pin_6*%
%TO.N,Net-(J18-Pad6)*%
X214728000Y-118783000D03*
%TO.P,A2.2,7,Pin_7*%
%TO.N,unconnected-(A2.2-Pad7)*%
X217268000Y-118783000D03*
%TO.P,A2.2,8,Pin_8*%
%TO.N,unconnected-(A2.2-Pad8)*%
X219808000Y-118783000D03*
%TO.P,A2.2,9,Pin_9*%
%TO.N,unconnected-(A2.2-Pad9)*%
X222348000Y-118783000D03*
%TO.P,A2.2,10,Pin_10*%
%TO.N,unconnected-(A2.2-Pad10)*%
X224888000Y-118783000D03*
%TD*%
D13*
%TO.P,A2.1,1,Pin_1*%
%TO.N,/14 TXD*%
X180188000Y-118783000D03*
D14*
%TO.P,A2.1,2,Pin_2*%
%TO.N,/18 RXD*%
X182728000Y-118783000D03*
%TO.P,A2.1,3,Pin_3*%
%TO.N,Net-(A3.2-Pad7)*%
X185268000Y-118783000D03*
%TO.P,A2.1,4,Pin_4*%
%TO.N,Net-(A4.2-Pad7)*%
X187808000Y-118783000D03*
%TO.P,A2.1,5,Pin_5*%
%TO.N,Net-(J17-Pad5)*%
X190348000Y-118783000D03*
%TO.P,A2.1,6,Pin_6*%
%TO.N,Net-(A3.2-Pad8)*%
X192888000Y-118783000D03*
%TO.P,A2.1,7,Pin_7*%
%TO.N,Net-(A4.2-Pad8)*%
X195428000Y-118783000D03*
%TO.P,A2.1,8,Pin_8*%
%TO.N,Net-(J17-Pad8)*%
X197968000Y-118783000D03*
%TD*%
D13*
%TO.P,A4.2,1,Pin_1*%
%TO.N,Net-(A3.2-Pad1)*%
X212728000Y-97783000D03*
D14*
%TO.P,A4.2,2,Pin_2*%
%TO.N,unconnected-(A4.2-Pad2)*%
X210188000Y-97783000D03*
%TO.P,A4.2,3,Pin_3*%
%TO.N,unconnected-(A4.2-Pad3)*%
X207648000Y-97783000D03*
%TO.P,A4.2,4,Pin_4*%
%TO.N,unconnected-(A4.2-Pad4)*%
X205108000Y-97783000D03*
%TO.P,A4.2,5,Pin_5*%
%TO.N,unconnected-(A4.2-Pad5)*%
X202568000Y-97783000D03*
%TO.P,A4.2,6,Pin_6*%
%TO.N,unconnected-(A4.2-Pad6)*%
X200028000Y-97783000D03*
%TO.P,A4.2,7,Pin_7*%
%TO.N,Net-(A4.2-Pad7)*%
X197488000Y-97783000D03*
%TO.P,A4.2,8,Pin_8*%
%TO.N,Net-(A4.2-Pad8)*%
X194948000Y-97783000D03*
%TD*%
D13*
%TO.P,A4.1,1,Pin_1*%
%TO.N,Net-(A3.1-Pad1)*%
X212718000Y-110483000D03*
D14*
%TO.P,A4.1,2,Pin_2*%
%TO.N,Net-(A3.1-Pad2)*%
X210178000Y-110483000D03*
%TO.P,A4.1,3,Pin_3*%
%TO.N,Net-(J11-Pad4)*%
X207638000Y-110483000D03*
%TO.P,A4.1,4,Pin_4*%
%TO.N,Net-(J11-Pad3)*%
X205098000Y-110483000D03*
%TO.P,A4.1,5,Pin_5*%
%TO.N,Net-(J11-Pad2)*%
X202558000Y-110483000D03*
%TO.P,A4.1,6,Pin_6*%
%TO.N,Net-(J11-Pad1)*%
X200018000Y-110483000D03*
%TO.P,A4.1,7,Pin_7*%
%TO.N,5V*%
X197478000Y-110483000D03*
%TO.P,A4.1,8,Pin_8*%
%TO.N,Net-(A2.3-Pad7)*%
X194938000Y-110483000D03*
%TD*%
%TO.P,A3.2,8,Pin_8*%
%TO.N,Net-(A3.2-Pad8)*%
X194948000Y-76193000D03*
%TO.P,A3.2,7,Pin_7*%
%TO.N,Net-(A3.2-Pad7)*%
X197488000Y-76193000D03*
%TO.P,A3.2,6,Pin_6*%
%TO.N,unconnected-(A3.2-Pad6)*%
X200028000Y-76193000D03*
%TO.P,A3.2,5,Pin_5*%
%TO.N,unconnected-(A3.2-Pad5)*%
X202568000Y-76193000D03*
%TO.P,A3.2,4,Pin_4*%
%TO.N,unconnected-(A3.2-Pad4)*%
X205108000Y-76193000D03*
%TO.P,A3.2,3,Pin_3*%
%TO.N,unconnected-(A3.2-Pad3)*%
X207648000Y-76193000D03*
%TO.P,A3.2,2,Pin_2*%
%TO.N,unconnected-(A3.2-Pad2)*%
X210188000Y-76193000D03*
D13*
%TO.P,A3.2,1,Pin_1*%
%TO.N,Net-(A3.2-Pad1)*%
X212728000Y-76193000D03*
%TD*%
D14*
%TO.P,A3.1,8,Pin_8*%
%TO.N,Net-(A2.3-Pad7)*%
X194948000Y-88893000D03*
%TO.P,A3.1,7,Pin_7*%
%TO.N,5V*%
X197488000Y-88893000D03*
%TO.P,A3.1,6,Pin_6*%
%TO.N,Net-(A3.1-Pad6)*%
X200028000Y-88893000D03*
%TO.P,A3.1,5,Pin_5*%
%TO.N,Net-(A3.1-Pad5)*%
X202568000Y-88893000D03*
%TO.P,A3.1,4,Pin_4*%
%TO.N,Net-(A3.1-Pad4)*%
X205108000Y-88893000D03*
%TO.P,A3.1,3,Pin_3*%
%TO.N,Net-(A3.1-Pad3)*%
X207648000Y-88893000D03*
%TO.P,A3.1,2,Pin_2*%
%TO.N,Net-(A3.1-Pad2)*%
X210188000Y-88893000D03*
D13*
%TO.P,A3.1,1,Pin_1*%
%TO.N,Net-(A3.1-Pad1)*%
X212728000Y-88893000D03*
%TD*%
%TO.P,U4.2,1,Pin_1*%
%TO.N,Net-(A1-Pad15)*%
X142878000Y-97793000D03*
D14*
%TO.P,U4.2,2,Pin_2*%
%TO.N,Net-(A1-Pad16)*%
X142878000Y-100333000D03*
%TO.P,U4.2,3,Pin_3*%
%TO.N,Net-(A1-Pad17)*%
X142878000Y-102873000D03*
%TO.P,U4.2,4,Pin_4*%
%TO.N,Net-(A1-Pad18)*%
X142878000Y-105413000D03*
%TO.P,U4.2,5,Pin_5*%
%TO.N,Net-(A1-Pad19)*%
X142878000Y-107953000D03*
%TO.P,U4.2,6,Pin_6*%
%TO.N,Net-(A1-Pad4)*%
X142878000Y-110493000D03*
%TO.P,U4.2,7,Pin_7*%
%TO.N,5V*%
X142878000Y-113033000D03*
%TO.P,U4.2,8,Pin_8*%
%TO.N,Net-(A1-Pad20)*%
X142878000Y-115573000D03*
%TD*%
D13*
%TO.P,U4.1,1,Pin_1*%
%TO.N,Net-(J7-Pad1)*%
X158118000Y-125723000D03*
D14*
%TO.P,U4.1,2,Pin_2*%
%TO.N,Net-(J7-Pad3)*%
X158118000Y-123183000D03*
%TO.P,U4.1,3,Pin_3*%
%TO.N,Net-(J7-Pad5)*%
X158118000Y-120643000D03*
%TO.P,U4.1,4,Pin_4*%
%TO.N,Net-(J7-Pad7)*%
X158118000Y-118103000D03*
%TO.P,U4.1,5,Pin_5*%
%TO.N,Net-(J7-Pad8)*%
X158118000Y-115563000D03*
%TO.P,U4.1,6,Pin_6*%
%TO.N,Net-(J7-Pad6)*%
X158118000Y-113023000D03*
%TO.P,U4.1,7,Pin_7*%
%TO.N,Net-(J7-Pad4)*%
X158118000Y-110483000D03*
%TO.P,U4.1,8,Pin_8*%
%TO.N,Net-(J7-Pad2)*%
X158118000Y-107943000D03*
%TO.P,U4.1,9,Pin_9*%
%TO.N,Net-(J8-Pad1)*%
X158118000Y-105403000D03*
%TO.P,U4.1,10,Pin_10*%
%TO.N,Net-(J8-Pad3)*%
X158118000Y-102863000D03*
%TO.P,U4.1,11,Pin_11*%
%TO.N,Net-(J8-Pad5)*%
X158118000Y-100323000D03*
%TO.P,U4.1,12,Pin_12*%
%TO.N,Net-(J8-Pad7)*%
X158118000Y-97783000D03*
%TO.P,U4.1,13,Pin_13*%
%TO.N,Net-(J8-Pad8)*%
X158118000Y-95243000D03*
%TO.P,U4.1,14,Pin_14*%
%TO.N,Net-(J8-Pad6)*%
X158118000Y-92703000D03*
%TO.P,U4.1,15,Pin_15*%
%TO.N,Net-(J8-Pad4)*%
X158118000Y-90163000D03*
%TO.P,U4.1,16,Pin_16*%
%TO.N,Net-(J8-Pad2)*%
X158118000Y-87623000D03*
%TD*%
D13*
%TO.P,U3.2,1,Pin_1*%
%TO.N,Net-(A1-Pad15)*%
X120028000Y-97793000D03*
D14*
%TO.P,U3.2,2,Pin_2*%
%TO.N,Net-(A1-Pad16)*%
X120028000Y-100333000D03*
%TO.P,U3.2,3,Pin_3*%
%TO.N,Net-(A1-Pad17)*%
X120028000Y-102873000D03*
%TO.P,U3.2,4,Pin_4*%
%TO.N,Net-(A1-Pad18)*%
X120028000Y-105413000D03*
%TO.P,U3.2,5,Pin_5*%
%TO.N,Net-(A1-Pad19)*%
X120028000Y-107953000D03*
%TO.P,U3.2,6,Pin_6*%
%TO.N,Net-(A1-Pad6)*%
X120028000Y-110493000D03*
%TO.P,U3.2,7,Pin_7*%
%TO.N,5V*%
X120028000Y-113033000D03*
%TO.P,U3.2,8,Pin_8*%
%TO.N,Net-(A1-Pad20)*%
X120028000Y-115573000D03*
%TD*%
D13*
%TO.P,U3.1,1,Pin_1*%
%TO.N,Net-(J5-Pad1)*%
X135268000Y-125733000D03*
D14*
%TO.P,U3.1,2,Pin_2*%
%TO.N,Net-(J5-Pad3)*%
X135268000Y-123193000D03*
%TO.P,U3.1,3,Pin_3*%
%TO.N,Net-(J5-Pad5)*%
X135268000Y-120653000D03*
%TO.P,U3.1,4,Pin_4*%
%TO.N,Net-(J5-Pad7)*%
X135268000Y-118113000D03*
%TO.P,U3.1,5,Pin_5*%
%TO.N,Net-(J5-Pad8)*%
X135268000Y-115573000D03*
%TO.P,U3.1,6,Pin_6*%
%TO.N,Net-(J5-Pad6)*%
X135268000Y-113033000D03*
%TO.P,U3.1,7,Pin_7*%
%TO.N,Net-(J5-Pad4)*%
X135268000Y-110493000D03*
%TO.P,U3.1,8,Pin_8*%
%TO.N,Net-(J5-Pad2)*%
X135268000Y-107953000D03*
%TO.P,U3.1,9,Pin_9*%
%TO.N,Net-(J6-Pad1)*%
X135268000Y-105413000D03*
%TO.P,U3.1,10,Pin_10*%
%TO.N,Net-(J6-Pad3)*%
X135268000Y-102873000D03*
%TO.P,U3.1,11,Pin_11*%
%TO.N,Net-(J6-Pad5)*%
X135268000Y-100333000D03*
%TO.P,U3.1,12,Pin_12*%
%TO.N,Net-(J6-Pad7)*%
X135268000Y-97793000D03*
%TO.P,U3.1,13,Pin_13*%
%TO.N,Net-(J6-Pad8)*%
X135268000Y-95253000D03*
%TO.P,U3.1,14,Pin_14*%
%TO.N,Net-(J6-Pad6)*%
X135268000Y-92713000D03*
%TO.P,U3.1,15,Pin_15*%
%TO.N,Net-(J6-Pad4)*%
X135268000Y-90173000D03*
%TO.P,U3.1,16,Pin_16*%
%TO.N,Net-(J6-Pad2)*%
X135268000Y-87633000D03*
%TD*%
%TO.P,U2.2,8,Pin_8*%
%TO.N,Net-(A1-Pad20)*%
X97158000Y-115573000D03*
%TO.P,U2.2,7,Pin_7*%
%TO.N,5V*%
X97158000Y-113033000D03*
%TO.P,U2.2,6,Pin_6*%
%TO.N,Net-(A1-Pad7)*%
X97158000Y-110493000D03*
%TO.P,U2.2,5,Pin_5*%
%TO.N,Net-(A1-Pad19)*%
X97158000Y-107953000D03*
%TO.P,U2.2,4,Pin_4*%
%TO.N,Net-(A1-Pad18)*%
X97158000Y-105413000D03*
%TO.P,U2.2,3,Pin_3*%
%TO.N,Net-(A1-Pad17)*%
X97158000Y-102873000D03*
%TO.P,U2.2,2,Pin_2*%
%TO.N,Net-(A1-Pad16)*%
X97158000Y-100333000D03*
D13*
%TO.P,U2.2,1,Pin_1*%
%TO.N,Net-(A1-Pad15)*%
X97158000Y-97793000D03*
%TD*%
%TO.P,U2.1,1,Pin_1*%
%TO.N,Net-(J3-Pad1)*%
X112398000Y-125733000D03*
D14*
%TO.P,U2.1,2,Pin_2*%
%TO.N,Net-(J3-Pad3)*%
X112398000Y-123193000D03*
%TO.P,U2.1,3,Pin_3*%
%TO.N,Net-(J3-Pad5)*%
X112398000Y-120653000D03*
%TO.P,U2.1,4,Pin_4*%
%TO.N,Net-(J3-Pad7)*%
X112398000Y-118113000D03*
%TO.P,U2.1,5,Pin_5*%
%TO.N,Net-(J3-Pad8)*%
X112398000Y-115573000D03*
%TO.P,U2.1,6,Pin_6*%
%TO.N,Net-(J3-Pad6)*%
X112398000Y-113033000D03*
%TO.P,U2.1,7,Pin_7*%
%TO.N,Net-(J3-Pad4)*%
X112398000Y-110493000D03*
%TO.P,U2.1,8,Pin_8*%
%TO.N,Net-(J3-Pad2)*%
X112398000Y-107953000D03*
%TO.P,U2.1,9,Pin_9*%
%TO.N,Net-(J4-Pad1)*%
X112398000Y-105413000D03*
%TO.P,U2.1,10,Pin_10*%
%TO.N,Net-(J4-Pad3)*%
X112398000Y-102873000D03*
%TO.P,U2.1,11,Pin_11*%
%TO.N,Net-(J4-Pad5)*%
X112398000Y-100333000D03*
%TO.P,U2.1,12,Pin_12*%
%TO.N,Net-(J4-Pad7)*%
X112398000Y-97793000D03*
%TO.P,U2.1,13,Pin_13*%
%TO.N,Net-(J4-Pad8)*%
X112398000Y-95253000D03*
%TO.P,U2.1,14,Pin_14*%
%TO.N,Net-(J4-Pad6)*%
X112398000Y-92713000D03*
%TO.P,U2.1,15,Pin_15*%
%TO.N,Net-(J4-Pad4)*%
X112398000Y-90173000D03*
%TO.P,U2.1,16,Pin_16*%
%TO.N,Net-(J4-Pad2)*%
X112398000Y-87633000D03*
%TD*%
D13*
%TO.P,U1.2,1,Pin_1*%
%TO.N,Net-(A1-Pad15)*%
X74298000Y-97793000D03*
D14*
%TO.P,U1.2,2,Pin_2*%
%TO.N,Net-(A1-Pad16)*%
X74298000Y-100333000D03*
%TO.P,U1.2,3,Pin_3*%
%TO.N,Net-(A1-Pad17)*%
X74298000Y-102873000D03*
%TO.P,U1.2,4,Pin_4*%
%TO.N,Net-(A1-Pad18)*%
X74298000Y-105413000D03*
%TO.P,U1.2,5,Pin_5*%
%TO.N,Net-(A1-Pad19)*%
X74298000Y-107953000D03*
%TO.P,U1.2,6,Pin_6*%
%TO.N,Net-(U1.2-Pad6)*%
X74298000Y-110493000D03*
%TO.P,U1.2,7,Pin_7*%
%TO.N,5V*%
X74298000Y-113033000D03*
%TO.P,U1.2,8,Pin_8*%
%TO.N,Net-(A1-Pad20)*%
X74298000Y-115573000D03*
%TD*%
D13*
%TO.P,U1.1,1,Pin_1*%
%TO.N,Net-(J1-Pad1)*%
X89538000Y-125733000D03*
D14*
%TO.P,U1.1,2,Pin_2*%
%TO.N,Net-(J1-Pad3)*%
X89538000Y-123193000D03*
%TO.P,U1.1,3,Pin_3*%
%TO.N,Net-(J1-Pad5)*%
X89538000Y-120653000D03*
%TO.P,U1.1,4,Pin_4*%
%TO.N,Net-(J1-Pad7)*%
X89538000Y-118113000D03*
%TO.P,U1.1,5,Pin_5*%
%TO.N,Net-(J1-Pad8)*%
X89538000Y-115573000D03*
%TO.P,U1.1,6,Pin_6*%
%TO.N,Net-(J1-Pad6)*%
X89538000Y-113033000D03*
%TO.P,U1.1,7,Pin_7*%
%TO.N,Net-(J1-Pad4)*%
X89538000Y-110493000D03*
%TO.P,U1.1,8,Pin_8*%
%TO.N,Net-(J1-Pad2)*%
X89538000Y-107953000D03*
%TO.P,U1.1,9,Pin_9*%
%TO.N,Net-(J2-Pad1)*%
X89538000Y-105413000D03*
%TO.P,U1.1,10,Pin_10*%
%TO.N,Net-(J2-Pad3)*%
X89538000Y-102873000D03*
%TO.P,U1.1,11,Pin_11*%
%TO.N,Net-(J2-Pad5)*%
X89538000Y-100333000D03*
%TO.P,U1.1,12,Pin_12*%
%TO.N,Net-(J2-Pad7)*%
X89538000Y-97793000D03*
%TO.P,U1.1,13,Pin_13*%
%TO.N,Net-(J2-Pad8)*%
X89538000Y-95253000D03*
%TO.P,U1.1,14,Pin_14*%
%TO.N,Net-(J2-Pad6)*%
X89538000Y-92713000D03*
%TO.P,U1.1,15,Pin_15*%
%TO.N,Net-(J2-Pad4)*%
X89538000Y-90173000D03*
%TO.P,U1.1,16,Pin_16*%
%TO.N,Net-(J2-Pad2)*%
X89538000Y-87633000D03*
%TD*%
D15*
%TO.P,J14,1*%
%TO.N,Net-(A3.1-Pad2)*%
X243840000Y-71120000D03*
D16*
%TO.P,J14,2*%
%TO.N,Net-(A3.1-Pad1)*%
X243840000Y-66120000D03*
%TD*%
D13*
%TO.P,J4,1,Pin_1*%
%TO.N,Net-(J4-Pad1)*%
X100975000Y-101600000D03*
D14*
%TO.P,J4,2,Pin_2*%
%TO.N,Net-(J4-Pad2)*%
X100975000Y-99060000D03*
%TO.P,J4,3,Pin_3*%
%TO.N,Net-(J4-Pad3)*%
X103515000Y-101600000D03*
%TO.P,J4,4,Pin_4*%
%TO.N,Net-(J4-Pad4)*%
X103515000Y-99060000D03*
%TO.P,J4,5,Pin_5*%
%TO.N,Net-(J4-Pad5)*%
X106055000Y-101600000D03*
%TO.P,J4,6,Pin_6*%
%TO.N,Net-(J4-Pad6)*%
X106055000Y-99060000D03*
%TO.P,J4,7,Pin_7*%
%TO.N,Net-(J4-Pad7)*%
X108595000Y-101600000D03*
%TO.P,J4,8,Pin_8*%
%TO.N,Net-(J4-Pad8)*%
X108595000Y-99060000D03*
%TD*%
D13*
%TO.P,J12,1,Pin_1*%
%TO.N,Net-(J12-Pad1)*%
X172720000Y-87630000D03*
D14*
%TO.P,J12,2,Pin_2*%
%TO.N,Net-(A2.3-Pad7)*%
X175260000Y-87630000D03*
%TD*%
%TO.P,J15,20,Pin_20*%
%TO.N,Net-(A1-Pad20)*%
X71120000Y-67081000D03*
%TO.P,J15,19,Pin_19*%
%TO.N,Net-(A1-Pad19)*%
X73660000Y-67081000D03*
%TO.P,J15,18,Pin_18*%
%TO.N,Net-(A1-Pad18)*%
X76200000Y-67081000D03*
%TO.P,J15,17,Pin_17*%
%TO.N,Net-(A1-Pad17)*%
X78740000Y-67081000D03*
%TO.P,J15,16,Pin_16*%
%TO.N,Net-(A1-Pad16)*%
X81280000Y-67081000D03*
%TO.P,J15,15,Pin_15*%
%TO.N,Net-(A1-Pad15)*%
X83820000Y-67081000D03*
%TO.P,J15,14,Pin_14*%
%TO.N,Net-(A1-Pad14)*%
X86360000Y-67081000D03*
%TO.P,J15,13,Pin_13*%
%TO.N,GND*%
X88900000Y-67081000D03*
%TO.P,J15,12,Pin_12*%
%TO.N,11 SCLK*%
X91440000Y-67081000D03*
%TO.P,J15,11,Pin_11*%
%TO.N,9 MISO*%
X93980000Y-67081000D03*
%TO.P,J15,10,Pin_10*%
%TO.N,10 MOSI*%
X96520000Y-67081000D03*
%TO.P,J15,9,Pin_9*%
%TO.N,3V3*%
X99060000Y-67081000D03*
%TO.P,J15,8,Pin_8*%
%TO.N,Net-(U1.2-Pad6)*%
X101600000Y-67081000D03*
%TO.P,J15,7,Pin_7*%
%TO.N,Net-(A1-Pad7)*%
X104140000Y-67081000D03*
%TO.P,J15,6,Pin_6*%
%TO.N,Net-(A1-Pad6)*%
X106680000Y-67081000D03*
%TO.P,J15,5,Pin_5*%
%TO.N,GND*%
X109220000Y-67081000D03*
%TO.P,J15,4,Pin_4*%
%TO.N,Net-(A1-Pad4)*%
X111760000Y-67081000D03*
%TO.P,J15,3,Pin_3*%
%TO.N,SCL*%
X114300000Y-67081000D03*
%TO.P,J15,2,Pin_2*%
%TO.N,SDA*%
X116840000Y-67081000D03*
D13*
%TO.P,J15,1,Pin_1*%
%TO.N,3V3*%
X119380000Y-67081000D03*
%TD*%
%TO.P,J2,1,Pin_1*%
%TO.N,Net-(J2-Pad1)*%
X78115000Y-101605000D03*
D14*
%TO.P,J2,2,Pin_2*%
%TO.N,Net-(J2-Pad2)*%
X78115000Y-99065000D03*
%TO.P,J2,3,Pin_3*%
%TO.N,Net-(J2-Pad3)*%
X80655000Y-101605000D03*
%TO.P,J2,4,Pin_4*%
%TO.N,Net-(J2-Pad4)*%
X80655000Y-99065000D03*
%TO.P,J2,5,Pin_5*%
%TO.N,Net-(J2-Pad5)*%
X83195000Y-101605000D03*
%TO.P,J2,6,Pin_6*%
%TO.N,Net-(J2-Pad6)*%
X83195000Y-99065000D03*
%TO.P,J2,7,Pin_7*%
%TO.N,Net-(J2-Pad7)*%
X85735000Y-101605000D03*
%TO.P,J2,8,Pin_8*%
%TO.N,Net-(J2-Pad8)*%
X85735000Y-99065000D03*
%TD*%
D13*
%TO.P,J19,1,Pin_1*%
%TO.N,Net-(J19-Pad1)*%
X192840000Y-67564000D03*
D14*
%TO.P,J19,2,Pin_2*%
%TO.N,Net-(J19-Pad2)*%
X190300000Y-67564000D03*
%TO.P,J19,3,Pin_3*%
%TO.N,Net-(J19-Pad3)*%
X187760000Y-67564000D03*
%TO.P,J19,4,Pin_4*%
%TO.N,Net-(J19-Pad4)*%
X185220000Y-67564000D03*
%TO.P,J19,5,Pin_5*%
%TO.N,Net-(J19-Pad5)*%
X182680000Y-67564000D03*
%TO.P,J19,6,Pin_6*%
%TO.N,Net-(J19-Pad6)*%
X180140000Y-67564000D03*
%TD*%
D17*
%TO.P,C1,1*%
%TO.N,Net-(A3.1-Pad1)*%
X223520000Y-84020000D03*
D11*
%TO.P,C1,2*%
%TO.N,Net-(A3.1-Pad2)*%
X223520000Y-81520000D03*
%TD*%
D13*
%TO.P,J6,1,Pin_1*%
%TO.N,Net-(J6-Pad1)*%
X123825000Y-101630000D03*
D14*
%TO.P,J6,2,Pin_2*%
%TO.N,Net-(J6-Pad2)*%
X123825000Y-99090000D03*
%TO.P,J6,3,Pin_3*%
%TO.N,Net-(J6-Pad3)*%
X126365000Y-101630000D03*
%TO.P,J6,4,Pin_4*%
%TO.N,Net-(J6-Pad4)*%
X126365000Y-99090000D03*
%TO.P,J6,5,Pin_5*%
%TO.N,Net-(J6-Pad5)*%
X128905000Y-101630000D03*
%TO.P,J6,6,Pin_6*%
%TO.N,Net-(J6-Pad6)*%
X128905000Y-99090000D03*
%TO.P,J6,7,Pin_7*%
%TO.N,Net-(J6-Pad7)*%
X131445000Y-101630000D03*
%TO.P,J6,8,Pin_8*%
%TO.N,Net-(J6-Pad8)*%
X131445000Y-99090000D03*
%TD*%
D13*
%TO.P,J13,1,Pin_1*%
%TO.N,Net-(J13-Pad1)*%
X172720000Y-80010000D03*
D14*
%TO.P,J13,2,Pin_2*%
%TO.N,Net-(A2.3-Pad7)*%
X175260000Y-80010000D03*
%TD*%
D13*
%TO.P,J3,1,Pin_1*%
%TO.N,Net-(J3-Pad1)*%
X100975000Y-121290000D03*
D14*
%TO.P,J3,2,Pin_2*%
%TO.N,Net-(J3-Pad2)*%
X100975000Y-118750000D03*
%TO.P,J3,3,Pin_3*%
%TO.N,Net-(J3-Pad3)*%
X103515000Y-121290000D03*
%TO.P,J3,4,Pin_4*%
%TO.N,Net-(J3-Pad4)*%
X103515000Y-118750000D03*
%TO.P,J3,5,Pin_5*%
%TO.N,Net-(J3-Pad5)*%
X106055000Y-121290000D03*
%TO.P,J3,6,Pin_6*%
%TO.N,Net-(J3-Pad6)*%
X106055000Y-118750000D03*
%TO.P,J3,7,Pin_7*%
%TO.N,Net-(J3-Pad7)*%
X108595000Y-121290000D03*
%TO.P,J3,8,Pin_8*%
%TO.N,Net-(J3-Pad8)*%
X108595000Y-118750000D03*
%TD*%
D13*
%TO.P,J9,1,Pin_1*%
%TO.N,Net-(A3.1-Pad2)*%
X172720000Y-97790000D03*
D14*
%TO.P,J9,2,Pin_2*%
%TO.N,Net-(J9-Pad2)*%
X175260000Y-97790000D03*
%TD*%
D13*
%TO.P,J18,1,Pin_1*%
%TO.N,Net-(A3.2-Pad1)*%
X202030000Y-121920000D03*
D14*
%TO.P,J18,2,Pin_2*%
%TO.N,Net-(J12-Pad1)*%
X204570000Y-121920000D03*
%TO.P,J18,3,Pin_3*%
%TO.N,Net-(J13-Pad1)*%
X207110000Y-121920000D03*
%TO.P,J18,4,Pin_4*%
%TO.N,Net-(J18-Pad4)*%
X209650000Y-121920000D03*
%TO.P,J18,5,Pin_5*%
%TO.N,Net-(J18-Pad5)*%
X212190000Y-121920000D03*
%TO.P,J18,6,Pin_6*%
%TO.N,Net-(J18-Pad6)*%
X214730000Y-121920000D03*
%TD*%
D18*
%TO.P,RXD1,1,1*%
%TO.N,/18 RXD*%
X161600000Y-81895000D03*
%TD*%
D13*
%TO.P,J16,1,Pin_1*%
%TO.N,5V*%
X119380000Y-57150000D03*
D14*
%TO.P,J16,2,Pin_2*%
X116840000Y-57150000D03*
%TO.P,J16,3,Pin_3*%
%TO.N,GND*%
X114300000Y-57150000D03*
%TO.P,J16,4,Pin_4*%
%TO.N,/14 TXD*%
X111760000Y-57150000D03*
%TO.P,J16,5,Pin_5*%
%TO.N,/18 RXD*%
X109220000Y-57150000D03*
%TO.P,J16,6,Pin_6*%
%TO.N,Net-(A1-Pad26)*%
X106680000Y-57150000D03*
%TO.P,J16,7,Pin_7*%
%TO.N,Net-(A1-Pad27)*%
X104140000Y-57150000D03*
%TO.P,J16,8,Pin_8*%
%TO.N,23*%
X101600000Y-57150000D03*
%TO.P,J16,9,Pin_9*%
%TO.N,24*%
X99060000Y-57150000D03*
%TO.P,J16,10,Pin_10*%
%TO.N,GND*%
X96520000Y-57150000D03*
%TO.P,J16,11,Pin_11*%
%TO.N,25*%
X93980000Y-57150000D03*
%TO.P,J16,12,Pin_12*%
%TO.N,8*%
X91440000Y-57150000D03*
%TO.P,J16,13,Pin_13*%
%TO.N,7*%
X88900000Y-57150000D03*
%TO.P,J16,14,Pin_14*%
%TO.N,Net-(A1-Pad34)*%
X86360000Y-57150000D03*
%TO.P,J16,15,Pin_15*%
%TO.N,GND*%
X83820000Y-57150000D03*
%TO.P,J16,16,Pin_16*%
%TO.N,12*%
X81280000Y-57150000D03*
%TO.P,J16,17,Pin_17*%
%TO.N,GND*%
X78740000Y-57150000D03*
%TO.P,J16,18,Pin_18*%
%TO.N,16*%
X76200000Y-57150000D03*
%TO.P,J16,19,Pin_19*%
%TO.N,20*%
X73660000Y-57150000D03*
%TO.P,J16,20,Pin_20*%
%TO.N,21*%
X71120000Y-57150000D03*
%TD*%
D19*
%TO.P,Q1,1,B*%
%TO.N,Net-(J18-Pad4)*%
X172720000Y-110490000D03*
D20*
%TO.P,Q1,2,C*%
%TO.N,Net-(A3.1-Pad1)*%
X175260000Y-110490000D03*
%TO.P,Q1,3,E*%
%TO.N,Net-(J9-Pad2)*%
X177800000Y-110490000D03*
%TD*%
D18*
%TO.P,5V1,1,1*%
%TO.N,5V*%
X203650000Y-66170000D03*
%TD*%
%TO.P,GND3,1,1*%
%TO.N,Net-(A1-Pad20)*%
X66858000Y-111613000D03*
%TD*%
%TO.P,5V2,1,1*%
%TO.N,5V*%
X149408000Y-82403000D03*
%TD*%
D13*
%TO.P,J8,1,Pin_1*%
%TO.N,Net-(J8-Pad1)*%
X146685000Y-101600000D03*
D14*
%TO.P,J8,2,Pin_2*%
%TO.N,Net-(J8-Pad2)*%
X146685000Y-99060000D03*
%TO.P,J8,3,Pin_3*%
%TO.N,Net-(J8-Pad3)*%
X149225000Y-101600000D03*
%TO.P,J8,4,Pin_4*%
%TO.N,Net-(J8-Pad4)*%
X149225000Y-99060000D03*
%TO.P,J8,5,Pin_5*%
%TO.N,Net-(J8-Pad5)*%
X151765000Y-101600000D03*
%TO.P,J8,6,Pin_6*%
%TO.N,Net-(J8-Pad6)*%
X151765000Y-99060000D03*
%TO.P,J8,7,Pin_7*%
%TO.N,Net-(J8-Pad7)*%
X154305000Y-101600000D03*
%TO.P,J8,8,Pin_8*%
%TO.N,Net-(J8-Pad8)*%
X154305000Y-99060000D03*
%TD*%
D18*
%TO.P,STEP2,1,1*%
%TO.N,Net-(A3.2-Pad7)*%
X190683000Y-83673000D03*
%TD*%
%TO.P,STEP1,1,1*%
%TO.N,Net-(A4.2-Pad7)*%
X191318000Y-103358000D03*
%TD*%
%TO.P,DIR2,1,1*%
%TO.N,Net-(A4.2-Pad8)*%
X191318000Y-99548000D03*
%TD*%
D17*
%TO.P,C2,1*%
%TO.N,Net-(A3.1-Pad1)*%
X223520000Y-105410000D03*
D11*
%TO.P,C2,2*%
%TO.N,Net-(A3.1-Pad2)*%
X223520000Y-102910000D03*
%TD*%
D18*
%TO.P,VMOT1,1,1*%
%TO.N,Net-(A3.1-Pad1)*%
X227640000Y-97770000D03*
%TD*%
D13*
%TO.P,J10,1,Pin_1*%
%TO.N,Net-(A3.1-Pad6)*%
X236220000Y-80030000D03*
D14*
%TO.P,J10,2,Pin_2*%
%TO.N,Net-(A3.1-Pad5)*%
X236220000Y-82570000D03*
%TO.P,J10,3,Pin_3*%
%TO.N,Net-(A3.1-Pad4)*%
X236220000Y-85110000D03*
%TO.P,J10,4,Pin_4*%
%TO.N,Net-(A3.1-Pad3)*%
X236220000Y-87650000D03*
%TD*%
D18*
%TO.P,DIR1,1,1*%
%TO.N,Net-(A3.2-Pad8)*%
X190683000Y-77323000D03*
%TD*%
%TO.P,TXD1,1,1*%
%TO.N,/14 TXD*%
X169220000Y-101580000D03*
%TD*%
D13*
%TO.P,J5,1,Pin_1*%
%TO.N,Net-(J5-Pad1)*%
X123835000Y-121920000D03*
D14*
%TO.P,J5,2,Pin_2*%
%TO.N,Net-(J5-Pad2)*%
X123835000Y-119380000D03*
%TO.P,J5,3,Pin_3*%
%TO.N,Net-(J5-Pad3)*%
X126375000Y-121920000D03*
%TO.P,J5,4,Pin_4*%
%TO.N,Net-(J5-Pad4)*%
X126375000Y-119380000D03*
%TO.P,J5,5,Pin_5*%
%TO.N,Net-(J5-Pad5)*%
X128915000Y-121920000D03*
%TO.P,J5,6,Pin_6*%
%TO.N,Net-(J5-Pad6)*%
X128915000Y-119380000D03*
%TO.P,J5,7,Pin_7*%
%TO.N,Net-(J5-Pad7)*%
X131455000Y-121920000D03*
%TO.P,J5,8,Pin_8*%
%TO.N,Net-(J5-Pad8)*%
X131455000Y-119380000D03*
%TD*%
D18*
%TO.P,GND2,1,1*%
%TO.N,Net-(A2.3-Pad7)*%
X181793000Y-94468000D03*
%TD*%
D13*
%TO.P,J1,1,Pin_1*%
%TO.N,Net-(J1-Pad1)*%
X78115000Y-121925000D03*
D14*
%TO.P,J1,2,Pin_2*%
%TO.N,Net-(J1-Pad2)*%
X78115000Y-119385000D03*
%TO.P,J1,3,Pin_3*%
%TO.N,Net-(J1-Pad3)*%
X80655000Y-121925000D03*
%TO.P,J1,4,Pin_4*%
%TO.N,Net-(J1-Pad4)*%
X80655000Y-119385000D03*
%TO.P,J1,5,Pin_5*%
%TO.N,Net-(J1-Pad5)*%
X83195000Y-121925000D03*
%TO.P,J1,6,Pin_6*%
%TO.N,Net-(J1-Pad6)*%
X83195000Y-119385000D03*
%TO.P,J1,7,Pin_7*%
%TO.N,Net-(J1-Pad7)*%
X85735000Y-121925000D03*
%TO.P,J1,8,Pin_8*%
%TO.N,Net-(J1-Pad8)*%
X85735000Y-119385000D03*
%TD*%
D18*
%TO.P,GND1,1,1*%
%TO.N,Net-(A3.1-Pad2)*%
X170500000Y-73220000D03*
%TD*%
D13*
%TO.P,J7,1,Pin_1*%
%TO.N,Net-(J7-Pad1)*%
X146685000Y-121920000D03*
D14*
%TO.P,J7,2,Pin_2*%
%TO.N,Net-(J7-Pad2)*%
X146685000Y-119380000D03*
%TO.P,J7,3,Pin_3*%
%TO.N,Net-(J7-Pad3)*%
X149225000Y-121920000D03*
%TO.P,J7,4,Pin_4*%
%TO.N,Net-(J7-Pad4)*%
X149225000Y-119380000D03*
%TO.P,J7,5,Pin_5*%
%TO.N,Net-(J7-Pad5)*%
X151765000Y-121920000D03*
%TO.P,J7,6,Pin_6*%
%TO.N,Net-(J7-Pad6)*%
X151765000Y-119380000D03*
%TO.P,J7,7,Pin_7*%
%TO.N,Net-(J7-Pad7)*%
X154305000Y-121920000D03*
%TO.P,J7,8,Pin_8*%
%TO.N,Net-(J7-Pad8)*%
X154305000Y-119380000D03*
%TD*%
D13*
%TO.P,J11,1,Pin_1*%
%TO.N,Net-(J11-Pad1)*%
X236220000Y-101600000D03*
D14*
%TO.P,J11,2,Pin_2*%
%TO.N,Net-(J11-Pad2)*%
X236220000Y-104140000D03*
%TO.P,J11,3,Pin_3*%
%TO.N,Net-(J11-Pad3)*%
X236220000Y-106680000D03*
%TO.P,J11,4,Pin_4*%
%TO.N,Net-(J11-Pad4)*%
X236220000Y-109220000D03*
%TD*%
D13*
%TO.P,J17,1,Pin_1*%
%TO.N,/14 TXD*%
X180190000Y-121920000D03*
D14*
%TO.P,J17,2,Pin_2*%
%TO.N,/18 RXD*%
X182730000Y-121920000D03*
%TO.P,J17,3,Pin_3*%
%TO.N,Net-(A3.2-Pad7)*%
X185270000Y-121920000D03*
%TO.P,J17,4,Pin_4*%
%TO.N,Net-(A4.2-Pad7)*%
X187810000Y-121920000D03*
%TO.P,J17,5,Pin_5*%
%TO.N,Net-(J17-Pad5)*%
X190350000Y-121920000D03*
%TO.P,J17,6,Pin_6*%
%TO.N,Net-(A3.2-Pad8)*%
X192890000Y-121920000D03*
%TO.P,J17,7,Pin_7*%
%TO.N,Net-(A4.2-Pad8)*%
X195430000Y-121920000D03*
%TO.P,J17,8,Pin_8*%
%TO.N,Net-(J17-Pad8)*%
X197970000Y-121920000D03*
%TD*%
%TO.P,A1,1,Pin_1*%
%TO.N,3V3*%
X119380000Y-63246000D03*
%TO.P,A1,2,Pin_2*%
%TO.N,SDA*%
X116840000Y-63246000D03*
%TO.P,A1,3,Pin_3*%
%TO.N,SCL*%
X114300000Y-63246000D03*
%TO.P,A1,4,Pin_4*%
%TO.N,Net-(A1-Pad4)*%
X111760000Y-63246000D03*
%TO.P,A1,5,Pin_5*%
%TO.N,GND*%
X109220000Y-63246000D03*
%TO.P,A1,6,Pin_6*%
%TO.N,Net-(A1-Pad6)*%
X106680000Y-63246000D03*
%TO.P,A1,7,Pin_7*%
%TO.N,Net-(A1-Pad7)*%
X104140000Y-63246000D03*
%TO.P,A1,8,Pin_8*%
%TO.N,Net-(U1.2-Pad6)*%
X101600000Y-63246000D03*
%TO.P,A1,9,Pin_9*%
%TO.N,3V3*%
X99060000Y-63246000D03*
%TO.P,A1,10,Pin_10*%
%TO.N,10 MOSI*%
X96520000Y-63246000D03*
%TO.P,A1,11,Pin_11*%
%TO.N,9 MISO*%
X93980000Y-63246000D03*
%TO.P,A1,12,Pin_12*%
%TO.N,11 SCLK*%
X91440000Y-63246000D03*
%TO.P,A1,13,Pin_13*%
%TO.N,GND*%
X88900000Y-63246000D03*
%TO.P,A1,14,Pin_14*%
%TO.N,Net-(A1-Pad14)*%
X86360000Y-63246000D03*
%TO.P,A1,15,Pin_15*%
%TO.N,Net-(A1-Pad15)*%
X83820000Y-63246000D03*
%TO.P,A1,16,Pin_16*%
%TO.N,Net-(A1-Pad16)*%
X81280000Y-63246000D03*
%TO.P,A1,17,Pin_17*%
%TO.N,Net-(A1-Pad17)*%
X78740000Y-63246000D03*
%TO.P,A1,18,Pin_18*%
%TO.N,Net-(A1-Pad18)*%
X76200000Y-63246000D03*
%TO.P,A1,19,Pin_19*%
%TO.N,Net-(A1-Pad19)*%
X73660000Y-63246000D03*
%TO.P,A1,20,Pin_20*%
%TO.N,Net-(A1-Pad20)*%
X71120000Y-63246000D03*
D13*
%TO.P,A1,21,Pin_21*%
%TO.N,5V*%
X119380000Y-60706000D03*
D14*
%TO.P,A1,22,Pin_22*%
X116840000Y-60706000D03*
%TO.P,A1,23,Pin_23*%
%TO.N,GND*%
X114300000Y-60706000D03*
%TO.P,A1,24,Pin_24*%
%TO.N,/14 TXD*%
X111760000Y-60706000D03*
%TO.P,A1,25,Pin_25*%
%TO.N,/18 RXD*%
X109220000Y-60706000D03*
%TO.P,A1,26,Pin_26*%
%TO.N,Net-(A1-Pad26)*%
X106680000Y-60706000D03*
%TO.P,A1,27,Pin_27*%
%TO.N,Net-(A1-Pad27)*%
X104140000Y-60706000D03*
%TO.P,A1,28,Pin_28*%
%TO.N,23*%
X101600000Y-60706000D03*
%TO.P,A1,29,Pin_29*%
%TO.N,24*%
X99060000Y-60706000D03*
%TO.P,A1,30,Pin_30*%
%TO.N,GND*%
X96520000Y-60706000D03*
%TO.P,A1,31,Pin_31*%
%TO.N,25*%
X93980000Y-60706000D03*
%TO.P,A1,32,Pin_32*%
%TO.N,8*%
X91440000Y-60706000D03*
%TO.P,A1,33,Pin_33*%
%TO.N,7*%
X88900000Y-60706000D03*
%TO.P,A1,34,Pin_34*%
%TO.N,Net-(A1-Pad34)*%
X86360000Y-60706000D03*
%TO.P,A1,35,Pin_35*%
%TO.N,GND*%
X83820000Y-60706000D03*
%TO.P,A1,36,Pin_36*%
%TO.N,12*%
X81280000Y-60706000D03*
%TO.P,A1,37,Pin_37*%
%TO.N,GND*%
X78740000Y-60706000D03*
%TO.P,A1,38,Pin_38*%
%TO.N,16*%
X76200000Y-60706000D03*
%TO.P,A1,39,Pin_39*%
%TO.N,20*%
X73660000Y-60706000D03*
%TO.P,A1,40,Pin_40*%
%TO.N,21*%
X71120000Y-60706000D03*
%TD*%
D21*
%TO.N,/14 TXD*%
X118928000Y-52558000D03*
%TO.N,GND*%
X140335000Y-78105000D03*
X168910000Y-65405000D03*
%TO.N,5V*%
X168275000Y-64135000D03*
X137795000Y-67310000D03*
%TO.N,Net-(A3.2-Pad8)*%
X191770000Y-90475000D03*
X189230000Y-107168000D03*
%TO.N,Net-(A3.1-Pad2)*%
X170500000Y-70720000D03*
%TO.N,Net-(A3.1-Pad1)*%
X229545000Y-99675000D03*
%TO.N,Net-(A3.2-Pad1)*%
X227330000Y-119380000D03*
%TO.N,Net-(J12-Pad1)*%
X198755000Y-115570000D03*
X182880000Y-110490000D03*
%TO.N,Net-(J13-Pad1)*%
X198755000Y-114300000D03*
X184150000Y-110490000D03*
%TD*%
D22*
%TO.N,/18 RXD*%
X152548000Y-67743000D02*
X152708000Y-67903000D01*
X149768000Y-67743000D02*
X152548000Y-67743000D01*
X155968000Y-67743000D02*
X155808000Y-67903000D01*
X161768000Y-67743000D02*
X155968000Y-67743000D01*
%TO.N,/14 TXD*%
X152381000Y-63480000D02*
X152708000Y-63153000D01*
X131755000Y-63480000D02*
X152381000Y-63480000D01*
X156135000Y-63480000D02*
X155808000Y-63153000D01*
X164064000Y-63480000D02*
X156135000Y-63480000D01*
X167005000Y-66421000D02*
X167005000Y-103795000D01*
D23*
%TO.N,5V*%
X144558000Y-87253000D02*
X149408000Y-82403000D01*
X144558000Y-87933000D02*
X144558000Y-87253000D01*
X144558000Y-87933000D02*
X144558000Y-111347000D01*
X144558000Y-72168000D02*
X144558000Y-87933000D01*
D22*
%TO.N,/18 RXD*%
X148428000Y-69723000D02*
X148428000Y-71893000D01*
X143455000Y-64750000D02*
X148428000Y-69723000D01*
X140001000Y-64750000D02*
X143455000Y-64750000D01*
X140001000Y-64750000D02*
X146775000Y-64750000D01*
X130955000Y-64750000D02*
X140001000Y-64750000D01*
X161128000Y-71893000D02*
X164465000Y-75230000D01*
X164465000Y-75230000D02*
X164465000Y-75826000D01*
X164465000Y-84760000D02*
X164465000Y-75826000D01*
X164465000Y-75826000D02*
X164465000Y-70440000D01*
X161768000Y-67743000D02*
X164465000Y-70440000D01*
X146775000Y-64750000D02*
X149768000Y-67743000D01*
X120033000Y-53828000D02*
X130955000Y-64750000D01*
X112542000Y-53828000D02*
X120033000Y-53828000D01*
X109220000Y-57150000D02*
X112542000Y-53828000D01*
%TO.N,Net-(A1-Pad27)*%
X95158000Y-53953000D02*
X96098000Y-54893000D01*
X95158000Y-52553000D02*
X95158000Y-53953000D01*
X96098000Y-54893000D02*
X96958000Y-54893000D01*
X97318000Y-54893000D02*
X96958000Y-54893000D01*
X103708000Y-54893000D02*
X97318000Y-54893000D01*
X103788000Y-54973000D02*
X103708000Y-54893000D01*
X104140000Y-55325000D02*
X103788000Y-54973000D01*
X104140000Y-57150000D02*
X104140000Y-55325000D01*
%TO.N,/18 RXD*%
X109220000Y-53915000D02*
X107858000Y-52553000D01*
X109220000Y-57150000D02*
X109220000Y-53915000D01*
D24*
%TO.N,Net-(A3.1-Pad2)*%
X223520000Y-102910000D02*
X215091000Y-102910000D01*
X215091000Y-102910000D02*
X210185000Y-107816000D01*
X210185000Y-107816000D02*
X210185000Y-110480000D01*
D22*
%TO.N,Net-(A1-Pad19)*%
X120028000Y-107953000D02*
X118748000Y-106673000D01*
X118748000Y-106673000D02*
X118398000Y-106673000D01*
X98432000Y-106673000D02*
X118398000Y-106673000D01*
X121308000Y-106673000D02*
X120028000Y-107953000D01*
X121458000Y-106673000D02*
X121308000Y-106673000D01*
X121458000Y-106673000D02*
X141598000Y-106673000D01*
%TO.N,Net-(A1-Pad18)*%
X141620000Y-104155000D02*
X142875000Y-105410000D01*
X121285000Y-104155000D02*
X141620000Y-104155000D01*
X120025000Y-105415000D02*
X121285000Y-104155000D01*
X118753000Y-104143000D02*
X120025000Y-105415000D01*
X98422000Y-104143000D02*
X118753000Y-104143000D01*
X95888000Y-104143000D02*
X97155000Y-105410000D01*
X75562000Y-104143000D02*
X95888000Y-104143000D01*
X68580000Y-99695000D02*
X74295000Y-105410000D01*
X74295000Y-105410000D02*
X75562000Y-104143000D01*
X97155000Y-105410000D02*
X98422000Y-104143000D01*
X76200000Y-83820000D02*
X68580000Y-91440000D01*
X68580000Y-91440000D02*
X68580000Y-99695000D01*
X76200000Y-63246000D02*
X76200000Y-83820000D01*
%TO.N,Net-(A1-Pad19)*%
X141598000Y-106673000D02*
X142875000Y-107950000D01*
X75502000Y-106743000D02*
X95948000Y-106743000D01*
X74295000Y-107950000D02*
X75502000Y-106743000D01*
X66675000Y-100330000D02*
X74295000Y-107950000D01*
X66675000Y-91440000D02*
X66675000Y-100330000D01*
X97155000Y-107950000D02*
X98432000Y-106673000D01*
X73660000Y-84455000D02*
X66675000Y-91440000D01*
X95948000Y-106743000D02*
X97155000Y-107950000D01*
X73660000Y-63246000D02*
X73660000Y-84455000D01*
D24*
%TO.N,Net-(A3.1-Pad2)*%
X210185000Y-86246000D02*
X210185000Y-88900000D01*
X214911000Y-81520000D02*
X210185000Y-86246000D01*
X223520000Y-81520000D02*
X214911000Y-81520000D01*
D25*
%TO.N,Net-(A1-Pad20)*%
X141605000Y-114300000D02*
X142875000Y-115570000D01*
X121300000Y-114300000D02*
X141605000Y-114300000D01*
X98422000Y-114303000D02*
X118753000Y-114303000D01*
X118753000Y-114303000D02*
X120025000Y-115575000D01*
X97155000Y-115570000D02*
X98422000Y-114303000D01*
X120025000Y-115575000D02*
X121300000Y-114300000D01*
X95885000Y-114300000D02*
X97155000Y-115570000D01*
X75565000Y-114300000D02*
X95885000Y-114300000D01*
X74295000Y-115570000D02*
X75565000Y-114300000D01*
D23*
%TO.N,5V*%
X144558000Y-111347000D02*
X142875000Y-113030000D01*
X139700000Y-67310000D02*
X144558000Y-72168000D01*
X137795000Y-67310000D02*
X139700000Y-67310000D01*
D22*
%TO.N,Net-(A1-Pad17)*%
X74295000Y-102870000D02*
X87633507Y-102870000D01*
X88890507Y-101613000D02*
X95898000Y-101613000D01*
X70485000Y-99060000D02*
X74295000Y-102870000D01*
X70485000Y-91440000D02*
X70485000Y-99060000D01*
X78740000Y-83185000D02*
X70485000Y-91440000D01*
X95898000Y-101613000D02*
X97155000Y-102870000D01*
X78740000Y-63246000D02*
X78740000Y-83185000D01*
X87633507Y-102870000D02*
X88890507Y-101613000D01*
%TO.N,/14 TXD*%
X118928000Y-52558000D02*
X120833000Y-52558000D01*
X120833000Y-52558000D02*
X131755000Y-63480000D01*
X167005000Y-103795000D02*
X167005000Y-103810000D01*
X111760000Y-57150000D02*
X111760000Y-60706000D01*
X169220000Y-101580000D02*
X167005000Y-103795000D01*
X167005000Y-110744000D02*
X175041000Y-118780000D01*
X167005000Y-103810000D02*
X167005000Y-110744000D01*
X175041000Y-118780000D02*
X180190000Y-118780000D01*
X180190000Y-118780000D02*
X180190000Y-121920000D01*
X164064000Y-63480000D02*
X167005000Y-66421000D01*
%TO.N,/18 RXD*%
X177026000Y-125730000D02*
X164465000Y-113169000D01*
X182730000Y-123340000D02*
X180340000Y-125730000D01*
X182730000Y-118780000D02*
X182730000Y-123340000D01*
X164465000Y-113169000D02*
X164465000Y-84760000D01*
X180340000Y-125730000D02*
X177026000Y-125730000D01*
X109220000Y-60706000D02*
X109220000Y-57150000D01*
X161600000Y-81895000D02*
X164465000Y-84760000D01*
%TO.N,3V3*%
X99060000Y-63246000D02*
X99060000Y-67081000D01*
X119380000Y-63246000D02*
X119380000Y-67081000D01*
%TO.N,SDA*%
X116840000Y-63246000D02*
X116840000Y-67081000D01*
%TO.N,SCL*%
X114300000Y-63246000D02*
X114300000Y-67081000D01*
D23*
%TO.N,GND*%
X83820000Y-57150000D02*
X83820000Y-60706000D01*
X200025000Y-65405000D02*
X168910000Y-65405000D01*
X203050000Y-70520000D02*
X203050000Y-68430000D01*
X88900000Y-63246000D02*
X88900000Y-67081000D01*
X109220000Y-76835000D02*
X109220000Y-67081000D01*
X96520000Y-57150000D02*
X96520000Y-60706000D01*
X140335000Y-78105000D02*
X110490000Y-78105000D01*
X114300000Y-57150000D02*
X114300000Y-60706000D01*
X203050000Y-68430000D02*
X200025000Y-65405000D01*
X78740000Y-57150000D02*
X78740000Y-60706000D01*
X109220000Y-63246000D02*
X109220000Y-67081000D01*
X110490000Y-78105000D02*
X109220000Y-76835000D01*
%TO.N,Net-(A1-Pad27)*%
X104140000Y-57150000D02*
X104140000Y-60706000D01*
D22*
%TO.N,10 MOSI*%
X96520000Y-63246000D02*
X96520000Y-67081000D01*
%TO.N,9 MISO*%
X93980000Y-63246000D02*
X93980000Y-67081000D01*
%TO.N,11 SCLK*%
X91440000Y-63246000D02*
X91440000Y-67081000D01*
D23*
%TO.N,5V*%
X130810000Y-67310000D02*
X124206000Y-60706000D01*
X201295000Y-64135000D02*
X205590000Y-68430000D01*
X215900000Y-72390000D02*
X207460000Y-72390000D01*
X201930000Y-78740000D02*
X215900000Y-78740000D01*
X193040000Y-92710000D02*
X195580000Y-92710000D01*
D25*
X118750000Y-111760000D02*
X98425000Y-111760000D01*
D23*
X215900000Y-78740000D02*
X218440000Y-76200000D01*
D25*
X142875000Y-113030000D02*
X141605000Y-111760000D01*
D23*
X168275000Y-64135000D02*
X201295000Y-64135000D01*
D25*
X121300000Y-111760000D02*
X120025000Y-113035000D01*
D23*
X124206000Y-60706000D02*
X119380000Y-60706000D01*
D25*
X141605000Y-111760000D02*
X121300000Y-111760000D01*
X97155000Y-113030000D02*
X95885000Y-111760000D01*
D23*
X116840000Y-57150000D02*
X116840000Y-60706000D01*
X218440000Y-74930000D02*
X215900000Y-72390000D01*
X188778000Y-96972000D02*
X193040000Y-92710000D01*
D25*
X98425000Y-111760000D02*
X97155000Y-113030000D01*
D23*
X207460000Y-72390000D02*
X205590000Y-70520000D01*
X197485000Y-107315000D02*
X196850000Y-106680000D01*
X137795000Y-67310000D02*
X130810000Y-67310000D01*
X197485000Y-88900000D02*
X197485000Y-83185000D01*
D25*
X95885000Y-111760000D02*
X75565000Y-111760000D01*
D23*
X119380000Y-57150000D02*
X119380000Y-60706000D01*
X197485000Y-83185000D02*
X201930000Y-78740000D01*
D25*
X75565000Y-111760000D02*
X74295000Y-113030000D01*
D23*
X195580000Y-92710000D02*
X197485000Y-90805000D01*
X197485000Y-110480000D02*
X197485000Y-107315000D01*
D25*
X120025000Y-113035000D02*
X118750000Y-111760000D01*
D23*
X191770000Y-106680000D02*
X188778000Y-103688000D01*
X196850000Y-106680000D02*
X191770000Y-106680000D01*
X218440000Y-76200000D02*
X218440000Y-74930000D01*
X197485000Y-90805000D02*
X197485000Y-88900000D01*
X188778000Y-103688000D02*
X188778000Y-96972000D01*
X205590000Y-68430000D02*
X205590000Y-70520000D01*
D22*
%TO.N,23*%
X101600000Y-57150000D02*
X101600000Y-60706000D01*
%TO.N,24*%
X99060000Y-57150000D02*
X99060000Y-60706000D01*
%TO.N,25*%
X93980000Y-57150000D02*
X93980000Y-60706000D01*
%TO.N,8*%
X91440000Y-57150000D02*
X91440000Y-60706000D01*
%TO.N,7*%
X88900000Y-57150000D02*
X88900000Y-60706000D01*
%TO.N,12*%
X81280000Y-57150000D02*
X81280000Y-60706000D01*
%TO.N,16*%
X76200000Y-57150000D02*
X76200000Y-60706000D01*
%TO.N,20*%
X73660000Y-57150000D02*
X73660000Y-60706000D01*
%TO.N,21*%
X71120000Y-57150000D02*
X71120000Y-60706000D01*
D23*
%TO.N,Net-(A1-Pad20)*%
X70815000Y-115570000D02*
X66858000Y-111613000D01*
X71120000Y-63246000D02*
X65405000Y-63246000D01*
X66040000Y-115570000D02*
X72085000Y-115570000D01*
X71120000Y-63246000D02*
X71120000Y-67081000D01*
X72085000Y-115570000D02*
X74295000Y-115570000D01*
X62865000Y-112395000D02*
X66040000Y-115570000D01*
X62865000Y-65786000D02*
X62865000Y-112395000D01*
X65405000Y-63246000D02*
X62865000Y-65786000D01*
X72085000Y-115570000D02*
X70815000Y-115570000D01*
%TO.N,Net-(A2.3-Pad7)*%
X190500000Y-88900000D02*
X187960000Y-86360000D01*
X190510000Y-110480000D02*
X190500000Y-110490000D01*
X186238000Y-106228000D02*
X186238000Y-102088000D01*
X186238000Y-93162000D02*
X190500000Y-88900000D01*
X179070000Y-72390000D02*
X190500000Y-72390000D01*
X194945000Y-110480000D02*
X190510000Y-110480000D01*
X175260000Y-76200000D02*
X179070000Y-72390000D01*
X190500000Y-88900000D02*
X194945000Y-88900000D01*
X175260000Y-80010000D02*
X175260000Y-76200000D01*
X198640000Y-72390000D02*
X200510000Y-70520000D01*
X190500000Y-72390000D02*
X198640000Y-72390000D01*
X186238000Y-100818000D02*
X181793000Y-96373000D01*
X190500000Y-110490000D02*
X186238000Y-106228000D01*
X181793000Y-96373000D02*
X181793000Y-94468000D01*
X186238000Y-102088000D02*
X186238000Y-100818000D01*
X187960000Y-86360000D02*
X187960000Y-74930000D01*
X175260000Y-80010000D02*
X175260000Y-87630000D01*
X187960000Y-74930000D02*
X190500000Y-72390000D01*
X186238000Y-102088000D02*
X186238000Y-93162000D01*
D22*
%TO.N,Net-(J17-Pad5)*%
X190350000Y-121920000D02*
X190350000Y-118780000D01*
%TO.N,Net-(A3.2-Pad8)*%
X192890000Y-121920000D02*
X192890000Y-118780000D01*
X191806000Y-76200000D02*
X194945000Y-76200000D01*
X187508000Y-105446000D02*
X189230000Y-107168000D01*
X191770000Y-90475000D02*
X191770000Y-90505500D01*
X190683000Y-77323000D02*
X191806000Y-76200000D01*
X191770000Y-90505500D02*
X187508000Y-94767500D01*
X187508000Y-94767500D02*
X187508000Y-105446000D01*
%TO.N,Net-(J17-Pad8)*%
X197970000Y-121920000D02*
X197970000Y-118780000D01*
D24*
%TO.N,Net-(A3.1-Pad2)*%
X170500000Y-70720000D02*
X170500000Y-73020000D01*
%TO.N,Net-(A3.1-Pad1)*%
X229545000Y-99675000D02*
X227640000Y-97770000D01*
X223520000Y-105410000D02*
X217795000Y-105410000D01*
X217605000Y-84020000D02*
X212725000Y-88900000D01*
X223520000Y-84020000D02*
X217605000Y-84020000D01*
X217795000Y-105410000D02*
X212725000Y-110480000D01*
%TO.N,Net-(J9-Pad2)*%
X175260000Y-97790000D02*
X177800000Y-100330000D01*
X177800000Y-100330000D02*
X177800000Y-110490000D01*
D23*
%TO.N,Net-(A3.1-Pad6)*%
X202565000Y-95260000D02*
X200025000Y-92720000D01*
X238760000Y-95260000D02*
X202565000Y-95260000D01*
X236220000Y-80030000D02*
X238770000Y-80030000D01*
X241300000Y-92720000D02*
X238760000Y-95260000D01*
X238770000Y-80030000D02*
X241300000Y-82560000D01*
X241300000Y-82560000D02*
X241300000Y-92720000D01*
X200025000Y-92720000D02*
X200025000Y-88900000D01*
%TO.N,Net-(A3.1-Pad5)*%
X240030000Y-91450000D02*
X240030000Y-83830000D01*
X202565000Y-88900000D02*
X202565000Y-91450000D01*
X202565000Y-91450000D02*
X205105000Y-93990000D01*
X237490000Y-93990000D02*
X240030000Y-91450000D01*
X205105000Y-93990000D02*
X237490000Y-93990000D01*
X240030000Y-83830000D02*
X238760000Y-82560000D01*
X236220000Y-82570000D02*
X238750000Y-82570000D01*
%TO.N,Net-(A3.1-Pad4)*%
X237500000Y-85110000D02*
X238760000Y-86370000D01*
X238760000Y-90180000D02*
X236220000Y-92720000D01*
X236220000Y-92720000D02*
X206375000Y-92720000D01*
X206375000Y-92720000D02*
X205105000Y-91450000D01*
X236220000Y-85110000D02*
X237500000Y-85110000D01*
X205105000Y-91450000D02*
X205105000Y-88900000D01*
X238760000Y-86370000D02*
X238760000Y-90180000D01*
%TO.N,Net-(A3.1-Pad3)*%
X208915000Y-91450000D02*
X234950000Y-91450000D01*
X207645000Y-90180000D02*
X208915000Y-91450000D01*
X236220000Y-90180000D02*
X236220000Y-87650000D01*
X207645000Y-88900000D02*
X207645000Y-90180000D01*
X234950000Y-91450000D02*
X236220000Y-90180000D01*
D22*
%TO.N,Net-(A3.2-Pad7)*%
X190683000Y-83673000D02*
X193223000Y-83673000D01*
X193223000Y-83673000D02*
X197485000Y-79411000D01*
X197485000Y-79411000D02*
X197485000Y-76200000D01*
X185270000Y-121920000D02*
X185270000Y-118780000D01*
%TO.N,Net-(A4.2-Pad7)*%
X187810000Y-121920000D02*
X187810000Y-118780000D01*
X191318000Y-103358000D02*
X194493000Y-103358000D01*
X194493000Y-103358000D02*
X197485000Y-100366000D01*
X197485000Y-100366000D02*
X197485000Y-97780000D01*
%TO.N,Net-(A4.2-Pad8)*%
X194493000Y-99548000D02*
X191318000Y-99548000D01*
X195430000Y-121920000D02*
X195430000Y-118780000D01*
X194945000Y-97780000D02*
X194945000Y-99096000D01*
X194945000Y-99096000D02*
X194493000Y-99548000D01*
%TO.N,Net-(A3.2-Pad1)*%
X224790000Y-124460000D02*
X227330000Y-121920000D01*
X204470000Y-124460000D02*
X205740000Y-124460000D01*
X205740000Y-124460000D02*
X224790000Y-124460000D01*
X202030000Y-118780000D02*
X202030000Y-122020000D01*
X202030000Y-122020000D02*
X204470000Y-124460000D01*
X227330000Y-121920000D02*
X227330000Y-120650000D01*
X227330000Y-120650000D02*
X227330000Y-119380000D01*
%TO.N,Net-(J12-Pad1)*%
X182880000Y-111760000D02*
X182880000Y-110490000D01*
X186690000Y-115570000D02*
X182880000Y-111760000D01*
X198755000Y-115570000D02*
X186690000Y-115570000D01*
X204570000Y-121920000D02*
X204570000Y-118780000D01*
%TO.N,Net-(J13-Pad1)*%
X207110000Y-121920000D02*
X207110000Y-118780000D01*
X198755000Y-114300000D02*
X187960000Y-114300000D01*
X187960000Y-114300000D02*
X184150000Y-110490000D01*
D23*
%TO.N,Net-(J11-Pad1)*%
X200025000Y-114300000D02*
X200025000Y-110480000D01*
X241300000Y-114300000D02*
X238760000Y-116840000D01*
X238760000Y-101600000D02*
X241300000Y-104140000D01*
X238760000Y-116840000D02*
X202565000Y-116840000D01*
X236220000Y-101600000D02*
X238760000Y-101600000D01*
X241300000Y-104140000D02*
X241300000Y-114300000D01*
X202565000Y-116840000D02*
X200025000Y-114300000D01*
%TO.N,Net-(J11-Pad2)*%
X240030000Y-113030000D02*
X237490000Y-115570000D01*
X240030000Y-105410000D02*
X240030000Y-113030000D01*
X238760000Y-104140000D02*
X240030000Y-105410000D01*
X237490000Y-115570000D02*
X205105000Y-115570000D01*
X202565000Y-113030000D02*
X202565000Y-110480000D01*
X205105000Y-115570000D02*
X202565000Y-113030000D01*
X236220000Y-104140000D02*
X238760000Y-104140000D01*
%TO.N,Net-(J11-Pad3)*%
X205105000Y-113030000D02*
X206375000Y-114300000D01*
X238760000Y-107950000D02*
X237490000Y-106680000D01*
X205105000Y-110480000D02*
X205105000Y-113030000D01*
X236220000Y-114300000D02*
X238760000Y-111760000D01*
X237490000Y-106680000D02*
X236220000Y-106680000D01*
X206375000Y-114300000D02*
X236220000Y-114300000D01*
X238760000Y-111760000D02*
X238760000Y-107950000D01*
%TO.N,Net-(J11-Pad4)*%
X210185000Y-113030000D02*
X208915000Y-113030000D01*
X208915000Y-113030000D02*
X207645000Y-111760000D01*
X236220000Y-111760000D02*
X234950000Y-113030000D01*
X234950000Y-113030000D02*
X210185000Y-113030000D01*
X236220000Y-109220000D02*
X236220000Y-111760000D01*
X207645000Y-111760000D02*
X207645000Y-110480000D01*
D22*
%TO.N,Net-(A1-Pad15)*%
X114935000Y-83185000D02*
X120025000Y-88275000D01*
X83820000Y-83185000D02*
X83820000Y-63246000D01*
X142875000Y-88265000D02*
X142875000Y-97790000D01*
X92075000Y-83185000D02*
X97155000Y-88265000D01*
X114935000Y-83185000D02*
X137795000Y-83185000D01*
X88646000Y-83185000D02*
X92075000Y-83185000D01*
X74295000Y-97790000D02*
X74295000Y-92710000D01*
X97155000Y-88265000D02*
X97155000Y-97790000D01*
X92075000Y-83185000D02*
X114935000Y-83185000D01*
X83820000Y-78359000D02*
X88646000Y-83185000D01*
X120025000Y-88275000D02*
X120025000Y-97795000D01*
X74295000Y-92710000D02*
X83820000Y-83185000D01*
X137795000Y-83185000D02*
X142875000Y-88265000D01*
%TO.N,Net-(A1-Pad16)*%
X140335000Y-97790000D02*
X142875000Y-100330000D01*
X97155000Y-100330000D02*
X99060000Y-98425000D01*
X121920000Y-88900000D02*
X125730000Y-85090000D01*
X99060000Y-86360000D02*
X100965000Y-84455000D01*
X125730000Y-85090000D02*
X137160000Y-85090000D01*
X140335000Y-88265000D02*
X140335000Y-97790000D01*
X81280000Y-83185000D02*
X81280000Y-63246000D01*
X76200000Y-98425000D02*
X76200000Y-93345000D01*
X72390000Y-92075000D02*
X81280000Y-83185000D01*
X74295000Y-100330000D02*
X76200000Y-98425000D01*
X121920000Y-98440000D02*
X121920000Y-88900000D01*
X95250000Y-98425000D02*
X97155000Y-100330000D01*
X118110000Y-88265000D02*
X118110000Y-98420000D01*
X100965000Y-84455000D02*
X114300000Y-84455000D01*
X118110000Y-98420000D02*
X120025000Y-100335000D01*
X95250000Y-88900000D02*
X95250000Y-98425000D01*
X84455000Y-85090000D02*
X91440000Y-85090000D01*
X99060000Y-98425000D02*
X99060000Y-86360000D01*
X91440000Y-85090000D02*
X95250000Y-88900000D01*
X74295000Y-100330000D02*
X72390000Y-98425000D01*
X72390000Y-98425000D02*
X72390000Y-92075000D01*
X114300000Y-84455000D02*
X118110000Y-88265000D01*
X137160000Y-85090000D02*
X140335000Y-88265000D01*
X120025000Y-100335000D02*
X121920000Y-98440000D01*
X76200000Y-93345000D02*
X84455000Y-85090000D01*
%TO.N,Net-(A1-Pad17)*%
X111125000Y-101600000D02*
X118750000Y-101600000D01*
X120025000Y-102875000D02*
X133345000Y-102875000D01*
X141605000Y-101600000D02*
X142875000Y-102870000D01*
X118750000Y-101600000D02*
X120025000Y-102875000D01*
X109855000Y-102870000D02*
X111125000Y-101600000D01*
X97155000Y-102870000D02*
X109855000Y-102870000D01*
X134620000Y-101600000D02*
X141605000Y-101600000D01*
X133345000Y-102875000D02*
X134620000Y-101600000D01*
%TO.N,Net-(A1-Pad14)*%
X86360000Y-63246000D02*
X86360000Y-67081000D01*
%TO.N,Net-(J19-Pad1)*%
X192890000Y-67614000D02*
X192840000Y-67564000D01*
X192890000Y-70520000D02*
X192890000Y-67614000D01*
%TO.N,Net-(J19-Pad2)*%
X190350000Y-70520000D02*
X190350000Y-67614000D01*
X190350000Y-67614000D02*
X190300000Y-67564000D01*
%TO.N,Net-(J19-Pad3)*%
X187810000Y-67614000D02*
X187760000Y-67564000D01*
X187810000Y-70520000D02*
X187810000Y-67614000D01*
%TO.N,Net-(J19-Pad4)*%
X185270000Y-70520000D02*
X185270000Y-67614000D01*
X185270000Y-67614000D02*
X185220000Y-67564000D01*
%TO.N,Net-(J19-Pad5)*%
X182730000Y-67614000D02*
X182680000Y-67564000D01*
X182730000Y-70520000D02*
X182730000Y-67614000D01*
%TO.N,Net-(J19-Pad6)*%
X180140000Y-67564000D02*
X180140000Y-70470000D01*
X180140000Y-70470000D02*
X180190000Y-70520000D01*
%TO.N,Net-(J18-Pad5)*%
X212190000Y-121920000D02*
X212190000Y-118780000D01*
%TO.N,Net-(J18-Pad6)*%
X214730000Y-121920000D02*
X214730000Y-118780000D01*
%TO.N,Net-(A1-Pad26)*%
X106680000Y-57150000D02*
X106680000Y-60706000D01*
%TO.N,Net-(A1-Pad34)*%
X86360000Y-57150000D02*
X86360000Y-60706000D01*
%TD*%
M02*
