%TF.GenerationSoftware,KiCad,Pcbnew,(6.0.10)*%
%TF.CreationDate,2025-04-13T20:47:12+02:00*%
%TF.ProjectId,pcb_shield,7063625f-7368-4696-956c-642e6b696361,1.0*%
%TF.SameCoordinates,Original*%
%TF.FileFunction,Drillmap*%
%TF.FilePolarity,Positive*%
%FSLAX45Y45*%
G04 Gerber Fmt 4.5, Leading zero omitted, Abs format (unit mm)*
G04 Created by KiCad (PCBNEW (6.0.10)) date 2025-04-13 20:47:12*
%MOMM*%
%LPD*%
G01*
G04 APERTURE LIST*
%ADD10C,0.100000*%
%ADD11C,0.200000*%
%ADD12C,0.040000*%
%ADD13C,0.080000*%
%ADD14C,0.110000*%
%ADD15C,0.130000*%
G04 APERTURE END LIST*
D10*
X13834500Y-5954900D02*
G75*
G03*
X13834500Y-5954900I-250000J0D01*
G01*
X7015600Y-12204900D02*
G75*
G03*
X7015600Y-12204900I-250000J0D01*
G01*
X17009300Y-12204900D02*
G75*
G03*
X17009300Y-12204900I-250000J0D01*
G01*
X23828200Y-5954900D02*
G75*
G03*
X23828200Y-5954900I-250000J0D01*
G01*
X6068800Y-4960300D02*
X25068800Y-4960300D01*
X25068800Y-4960300D02*
X25068800Y-12960300D01*
X25068800Y-12960300D02*
X6068800Y-12960300D01*
X6068800Y-12960300D02*
X6068800Y-4960300D01*
D11*
D12*
X11872800Y-5235800D02*
X11912800Y-5275800D01*
X11912800Y-5235800D02*
X11872800Y-5275800D01*
X13759500Y-6711000D02*
X13799500Y-6751000D01*
X13799500Y-6711000D02*
X13759500Y-6751000D01*
X14013500Y-7790500D02*
X14053500Y-7830500D01*
X14053500Y-7790500D02*
X14013500Y-7830500D01*
X16807500Y-6393500D02*
X16847500Y-6433500D01*
X16847500Y-6393500D02*
X16807500Y-6433500D01*
X16871000Y-6520500D02*
X16911000Y-6560500D01*
X16911000Y-6520500D02*
X16871000Y-6560500D01*
X17030000Y-7052000D02*
X17070000Y-7092000D01*
X17070000Y-7052000D02*
X17030000Y-7092000D01*
X18268000Y-11029000D02*
X18308000Y-11069000D01*
X18308000Y-11029000D02*
X18268000Y-11069000D01*
X18395000Y-11029000D02*
X18435000Y-11069000D01*
X18435000Y-11029000D02*
X18395000Y-11069000D01*
X18903000Y-10696800D02*
X18943000Y-10736800D01*
X18943000Y-10696800D02*
X18903000Y-10736800D01*
X19157000Y-9027500D02*
X19197000Y-9067500D01*
X19197000Y-9027500D02*
X19157000Y-9067500D01*
X19855500Y-11410000D02*
X19895500Y-11450000D01*
X19895500Y-11410000D02*
X19855500Y-11450000D01*
X19855500Y-11537000D02*
X19895500Y-11577000D01*
X19895500Y-11537000D02*
X19855500Y-11577000D01*
X22713000Y-11918000D02*
X22753000Y-11958000D01*
X22753000Y-11918000D02*
X22713000Y-11958000D01*
X22934500Y-9947500D02*
X22974500Y-9987500D01*
X22974500Y-9947500D02*
X22934500Y-9987500D01*
D13*
X9555800Y-5255300D02*
G75*
G03*
X9555800Y-5255300I-40000J0D01*
G01*
X10825800Y-5255300D02*
G75*
G03*
X10825800Y-5255300I-40000J0D01*
G01*
X14882800Y-7189300D02*
G75*
G03*
X14882800Y-7189300I-40000J0D01*
G01*
X16152800Y-7189300D02*
G75*
G03*
X16152800Y-7189300I-40000J0D01*
G01*
X22392000Y-8152000D02*
G75*
G03*
X22392000Y-8152000I-40000J0D01*
G01*
X22392000Y-8402000D02*
G75*
G03*
X22392000Y-8402000I-40000J0D01*
G01*
X22392000Y-10291000D02*
G75*
G03*
X22392000Y-10291000I-40000J0D01*
G01*
X22392000Y-10541000D02*
G75*
G03*
X22392000Y-10541000I-40000J0D01*
G01*
D10*
X7112000Y-5665000D02*
X7112000Y-5765000D01*
X7062000Y-5715000D02*
X7162000Y-5715000D01*
X7112000Y-6020600D02*
X7112000Y-6120600D01*
X7062000Y-6070600D02*
X7162000Y-6070600D01*
X7112000Y-6274600D02*
X7112000Y-6374600D01*
X7062000Y-6324600D02*
X7162000Y-6324600D01*
X7112000Y-6658100D02*
X7112000Y-6758100D01*
X7062000Y-6708100D02*
X7162000Y-6708100D01*
X7366000Y-5665000D02*
X7366000Y-5765000D01*
X7316000Y-5715000D02*
X7416000Y-5715000D01*
X7366000Y-6020600D02*
X7366000Y-6120600D01*
X7316000Y-6070600D02*
X7416000Y-6070600D01*
X7366000Y-6274600D02*
X7366000Y-6374600D01*
X7316000Y-6324600D02*
X7416000Y-6324600D01*
X7366000Y-6658100D02*
X7366000Y-6758100D01*
X7316000Y-6708100D02*
X7416000Y-6708100D01*
X7429800Y-9729300D02*
X7429800Y-9829300D01*
X7379800Y-9779300D02*
X7479800Y-9779300D01*
X7429800Y-9983300D02*
X7429800Y-10083300D01*
X7379800Y-10033300D02*
X7479800Y-10033300D01*
X7429800Y-10237300D02*
X7429800Y-10337300D01*
X7379800Y-10287300D02*
X7479800Y-10287300D01*
X7429800Y-10491300D02*
X7429800Y-10591300D01*
X7379800Y-10541300D02*
X7479800Y-10541300D01*
X7429800Y-10745300D02*
X7429800Y-10845300D01*
X7379800Y-10795300D02*
X7479800Y-10795300D01*
X7429800Y-10999300D02*
X7429800Y-11099300D01*
X7379800Y-11049300D02*
X7479800Y-11049300D01*
X7429800Y-11253300D02*
X7429800Y-11353300D01*
X7379800Y-11303300D02*
X7479800Y-11303300D01*
X7429800Y-11507300D02*
X7429800Y-11607300D01*
X7379800Y-11557300D02*
X7479800Y-11557300D01*
X7620000Y-5665000D02*
X7620000Y-5765000D01*
X7570000Y-5715000D02*
X7670000Y-5715000D01*
X7620000Y-6020600D02*
X7620000Y-6120600D01*
X7570000Y-6070600D02*
X7670000Y-6070600D01*
X7620000Y-6274600D02*
X7620000Y-6374600D01*
X7570000Y-6324600D02*
X7670000Y-6324600D01*
X7620000Y-6658100D02*
X7620000Y-6758100D01*
X7570000Y-6708100D02*
X7670000Y-6708100D01*
X7811500Y-9856500D02*
X7811500Y-9956500D01*
X7761500Y-9906500D02*
X7861500Y-9906500D01*
X7811500Y-10110500D02*
X7811500Y-10210500D01*
X7761500Y-10160500D02*
X7861500Y-10160500D01*
X7811500Y-11888500D02*
X7811500Y-11988500D01*
X7761500Y-11938500D02*
X7861500Y-11938500D01*
X7811500Y-12142500D02*
X7811500Y-12242500D01*
X7761500Y-12192500D02*
X7861500Y-12192500D01*
X7874000Y-5665000D02*
X7874000Y-5765000D01*
X7824000Y-5715000D02*
X7924000Y-5715000D01*
X7874000Y-6020600D02*
X7874000Y-6120600D01*
X7824000Y-6070600D02*
X7924000Y-6070600D01*
X7874000Y-6274600D02*
X7874000Y-6374600D01*
X7824000Y-6324600D02*
X7924000Y-6324600D01*
X7874000Y-6658100D02*
X7874000Y-6758100D01*
X7824000Y-6708100D02*
X7924000Y-6708100D01*
X8065500Y-9856500D02*
X8065500Y-9956500D01*
X8015500Y-9906500D02*
X8115500Y-9906500D01*
X8065500Y-10110500D02*
X8065500Y-10210500D01*
X8015500Y-10160500D02*
X8115500Y-10160500D01*
X8065500Y-11888500D02*
X8065500Y-11988500D01*
X8015500Y-11938500D02*
X8115500Y-11938500D01*
X8065500Y-12142500D02*
X8065500Y-12242500D01*
X8015500Y-12192500D02*
X8115500Y-12192500D01*
X8128000Y-5665000D02*
X8128000Y-5765000D01*
X8078000Y-5715000D02*
X8178000Y-5715000D01*
X8128000Y-6020600D02*
X8128000Y-6120600D01*
X8078000Y-6070600D02*
X8178000Y-6070600D01*
X8128000Y-6274600D02*
X8128000Y-6374600D01*
X8078000Y-6324600D02*
X8178000Y-6324600D01*
X8128000Y-6658100D02*
X8128000Y-6758100D01*
X8078000Y-6708100D02*
X8178000Y-6708100D01*
X8319500Y-9856500D02*
X8319500Y-9956500D01*
X8269500Y-9906500D02*
X8369500Y-9906500D01*
X8319500Y-10110500D02*
X8319500Y-10210500D01*
X8269500Y-10160500D02*
X8369500Y-10160500D01*
X8319500Y-11888500D02*
X8319500Y-11988500D01*
X8269500Y-11938500D02*
X8369500Y-11938500D01*
X8319500Y-12142500D02*
X8319500Y-12242500D01*
X8269500Y-12192500D02*
X8369500Y-12192500D01*
X8382000Y-5665000D02*
X8382000Y-5765000D01*
X8332000Y-5715000D02*
X8432000Y-5715000D01*
X8382000Y-6020600D02*
X8382000Y-6120600D01*
X8332000Y-6070600D02*
X8432000Y-6070600D01*
X8382000Y-6274600D02*
X8382000Y-6374600D01*
X8332000Y-6324600D02*
X8432000Y-6324600D01*
X8382000Y-6658100D02*
X8382000Y-6758100D01*
X8332000Y-6708100D02*
X8432000Y-6708100D01*
X8573500Y-9856500D02*
X8573500Y-9956500D01*
X8523500Y-9906500D02*
X8623500Y-9906500D01*
X8573500Y-10110500D02*
X8573500Y-10210500D01*
X8523500Y-10160500D02*
X8623500Y-10160500D01*
X8573500Y-11888500D02*
X8573500Y-11988500D01*
X8523500Y-11938500D02*
X8623500Y-11938500D01*
X8573500Y-12142500D02*
X8573500Y-12242500D01*
X8523500Y-12192500D02*
X8623500Y-12192500D01*
X8636000Y-5665000D02*
X8636000Y-5765000D01*
X8586000Y-5715000D02*
X8686000Y-5715000D01*
X8636000Y-6020600D02*
X8636000Y-6120600D01*
X8586000Y-6070600D02*
X8686000Y-6070600D01*
X8636000Y-6274600D02*
X8636000Y-6374600D01*
X8586000Y-6324600D02*
X8686000Y-6324600D01*
X8636000Y-6658100D02*
X8636000Y-6758100D01*
X8586000Y-6708100D02*
X8686000Y-6708100D01*
X8890000Y-5665000D02*
X8890000Y-5765000D01*
X8840000Y-5715000D02*
X8940000Y-5715000D01*
X8890000Y-6020600D02*
X8890000Y-6120600D01*
X8840000Y-6070600D02*
X8940000Y-6070600D01*
X8890000Y-6274600D02*
X8890000Y-6374600D01*
X8840000Y-6324600D02*
X8940000Y-6324600D01*
X8890000Y-6658100D02*
X8890000Y-6758100D01*
X8840000Y-6708100D02*
X8940000Y-6708100D01*
X8953800Y-8713300D02*
X8953800Y-8813300D01*
X8903800Y-8763300D02*
X9003800Y-8763300D01*
X8953800Y-8967300D02*
X8953800Y-9067300D01*
X8903800Y-9017300D02*
X9003800Y-9017300D01*
X8953800Y-9221300D02*
X8953800Y-9321300D01*
X8903800Y-9271300D02*
X9003800Y-9271300D01*
X8953800Y-9475300D02*
X8953800Y-9575300D01*
X8903800Y-9525300D02*
X9003800Y-9525300D01*
X8953800Y-9729300D02*
X8953800Y-9829300D01*
X8903800Y-9779300D02*
X9003800Y-9779300D01*
X8953800Y-9983300D02*
X8953800Y-10083300D01*
X8903800Y-10033300D02*
X9003800Y-10033300D01*
X8953800Y-10237300D02*
X8953800Y-10337300D01*
X8903800Y-10287300D02*
X9003800Y-10287300D01*
X8953800Y-10491300D02*
X8953800Y-10591300D01*
X8903800Y-10541300D02*
X9003800Y-10541300D01*
X8953800Y-10745300D02*
X8953800Y-10845300D01*
X8903800Y-10795300D02*
X9003800Y-10795300D01*
X8953800Y-10999300D02*
X8953800Y-11099300D01*
X8903800Y-11049300D02*
X9003800Y-11049300D01*
X8953800Y-11253300D02*
X8953800Y-11353300D01*
X8903800Y-11303300D02*
X9003800Y-11303300D01*
X8953800Y-11507300D02*
X8953800Y-11607300D01*
X8903800Y-11557300D02*
X9003800Y-11557300D01*
X8953800Y-11761300D02*
X8953800Y-11861300D01*
X8903800Y-11811300D02*
X9003800Y-11811300D01*
X8953800Y-12015300D02*
X8953800Y-12115300D01*
X8903800Y-12065300D02*
X9003800Y-12065300D01*
X8953800Y-12269300D02*
X8953800Y-12369300D01*
X8903800Y-12319300D02*
X9003800Y-12319300D01*
X8953800Y-12523300D02*
X8953800Y-12623300D01*
X8903800Y-12573300D02*
X9003800Y-12573300D01*
X9144000Y-5665000D02*
X9144000Y-5765000D01*
X9094000Y-5715000D02*
X9194000Y-5715000D01*
X9144000Y-6020600D02*
X9144000Y-6120600D01*
X9094000Y-6070600D02*
X9194000Y-6070600D01*
X9144000Y-6274600D02*
X9144000Y-6374600D01*
X9094000Y-6324600D02*
X9194000Y-6324600D01*
X9144000Y-6658100D02*
X9144000Y-6758100D01*
X9094000Y-6708100D02*
X9194000Y-6708100D01*
X9398000Y-5665000D02*
X9398000Y-5765000D01*
X9348000Y-5715000D02*
X9448000Y-5715000D01*
X9398000Y-6020600D02*
X9398000Y-6120600D01*
X9348000Y-6070600D02*
X9448000Y-6070600D01*
X9398000Y-6274600D02*
X9398000Y-6374600D01*
X9348000Y-6324600D02*
X9448000Y-6324600D01*
X9398000Y-6658100D02*
X9398000Y-6758100D01*
X9348000Y-6708100D02*
X9448000Y-6708100D01*
X9652000Y-5665000D02*
X9652000Y-5765000D01*
X9602000Y-5715000D02*
X9702000Y-5715000D01*
X9652000Y-6020600D02*
X9652000Y-6120600D01*
X9602000Y-6070600D02*
X9702000Y-6070600D01*
X9652000Y-6274600D02*
X9652000Y-6374600D01*
X9602000Y-6324600D02*
X9702000Y-6324600D01*
X9652000Y-6658100D02*
X9652000Y-6758100D01*
X9602000Y-6708100D02*
X9702000Y-6708100D01*
X9715800Y-9729300D02*
X9715800Y-9829300D01*
X9665800Y-9779300D02*
X9765800Y-9779300D01*
X9715800Y-9983300D02*
X9715800Y-10083300D01*
X9665800Y-10033300D02*
X9765800Y-10033300D01*
X9715800Y-10237300D02*
X9715800Y-10337300D01*
X9665800Y-10287300D02*
X9765800Y-10287300D01*
X9715800Y-10491300D02*
X9715800Y-10591300D01*
X9665800Y-10541300D02*
X9765800Y-10541300D01*
X9715800Y-10745300D02*
X9715800Y-10845300D01*
X9665800Y-10795300D02*
X9765800Y-10795300D01*
X9715800Y-10999300D02*
X9715800Y-11099300D01*
X9665800Y-11049300D02*
X9765800Y-11049300D01*
X9715800Y-11253300D02*
X9715800Y-11353300D01*
X9665800Y-11303300D02*
X9765800Y-11303300D01*
X9715800Y-11507300D02*
X9715800Y-11607300D01*
X9665800Y-11557300D02*
X9765800Y-11557300D01*
X9906000Y-5665000D02*
X9906000Y-5765000D01*
X9856000Y-5715000D02*
X9956000Y-5715000D01*
X9906000Y-6020600D02*
X9906000Y-6120600D01*
X9856000Y-6070600D02*
X9956000Y-6070600D01*
X9906000Y-6274600D02*
X9906000Y-6374600D01*
X9856000Y-6324600D02*
X9956000Y-6324600D01*
X9906000Y-6658100D02*
X9906000Y-6758100D01*
X9856000Y-6708100D02*
X9956000Y-6708100D01*
X10097500Y-9856000D02*
X10097500Y-9956000D01*
X10047500Y-9906000D02*
X10147500Y-9906000D01*
X10097500Y-10110000D02*
X10097500Y-10210000D01*
X10047500Y-10160000D02*
X10147500Y-10160000D01*
X10097500Y-11825000D02*
X10097500Y-11925000D01*
X10047500Y-11875000D02*
X10147500Y-11875000D01*
X10097500Y-12079000D02*
X10097500Y-12179000D01*
X10047500Y-12129000D02*
X10147500Y-12129000D01*
X10160000Y-5665000D02*
X10160000Y-5765000D01*
X10110000Y-5715000D02*
X10210000Y-5715000D01*
X10160000Y-6020600D02*
X10160000Y-6120600D01*
X10110000Y-6070600D02*
X10210000Y-6070600D01*
X10160000Y-6274600D02*
X10160000Y-6374600D01*
X10110000Y-6324600D02*
X10210000Y-6324600D01*
X10160000Y-6658100D02*
X10160000Y-6758100D01*
X10110000Y-6708100D02*
X10210000Y-6708100D01*
X10351500Y-9856000D02*
X10351500Y-9956000D01*
X10301500Y-9906000D02*
X10401500Y-9906000D01*
X10351500Y-10110000D02*
X10351500Y-10210000D01*
X10301500Y-10160000D02*
X10401500Y-10160000D01*
X10351500Y-11825000D02*
X10351500Y-11925000D01*
X10301500Y-11875000D02*
X10401500Y-11875000D01*
X10351500Y-12079000D02*
X10351500Y-12179000D01*
X10301500Y-12129000D02*
X10401500Y-12129000D01*
X10414000Y-5665000D02*
X10414000Y-5765000D01*
X10364000Y-5715000D02*
X10464000Y-5715000D01*
X10414000Y-6020600D02*
X10414000Y-6120600D01*
X10364000Y-6070600D02*
X10464000Y-6070600D01*
X10414000Y-6274600D02*
X10414000Y-6374600D01*
X10364000Y-6324600D02*
X10464000Y-6324600D01*
X10414000Y-6658100D02*
X10414000Y-6758100D01*
X10364000Y-6708100D02*
X10464000Y-6708100D01*
X10605500Y-9856000D02*
X10605500Y-9956000D01*
X10555500Y-9906000D02*
X10655500Y-9906000D01*
X10605500Y-10110000D02*
X10605500Y-10210000D01*
X10555500Y-10160000D02*
X10655500Y-10160000D01*
X10605500Y-11825000D02*
X10605500Y-11925000D01*
X10555500Y-11875000D02*
X10655500Y-11875000D01*
X10605500Y-12079000D02*
X10605500Y-12179000D01*
X10555500Y-12129000D02*
X10655500Y-12129000D01*
X10668000Y-5665000D02*
X10668000Y-5765000D01*
X10618000Y-5715000D02*
X10718000Y-5715000D01*
X10668000Y-6020600D02*
X10668000Y-6120600D01*
X10618000Y-6070600D02*
X10718000Y-6070600D01*
X10668000Y-6274600D02*
X10668000Y-6374600D01*
X10618000Y-6324600D02*
X10718000Y-6324600D01*
X10668000Y-6658100D02*
X10668000Y-6758100D01*
X10618000Y-6708100D02*
X10718000Y-6708100D01*
X10859500Y-9856000D02*
X10859500Y-9956000D01*
X10809500Y-9906000D02*
X10909500Y-9906000D01*
X10859500Y-10110000D02*
X10859500Y-10210000D01*
X10809500Y-10160000D02*
X10909500Y-10160000D01*
X10859500Y-11825000D02*
X10859500Y-11925000D01*
X10809500Y-11875000D02*
X10909500Y-11875000D01*
X10859500Y-12079000D02*
X10859500Y-12179000D01*
X10809500Y-12129000D02*
X10909500Y-12129000D01*
X10922000Y-5665000D02*
X10922000Y-5765000D01*
X10872000Y-5715000D02*
X10972000Y-5715000D01*
X10922000Y-6020600D02*
X10922000Y-6120600D01*
X10872000Y-6070600D02*
X10972000Y-6070600D01*
X10922000Y-6274600D02*
X10922000Y-6374600D01*
X10872000Y-6324600D02*
X10972000Y-6324600D01*
X10922000Y-6658100D02*
X10922000Y-6758100D01*
X10872000Y-6708100D02*
X10972000Y-6708100D01*
X11176000Y-5665000D02*
X11176000Y-5765000D01*
X11126000Y-5715000D02*
X11226000Y-5715000D01*
X11176000Y-6020600D02*
X11176000Y-6120600D01*
X11126000Y-6070600D02*
X11226000Y-6070600D01*
X11176000Y-6274600D02*
X11176000Y-6374600D01*
X11126000Y-6324600D02*
X11226000Y-6324600D01*
X11176000Y-6658100D02*
X11176000Y-6758100D01*
X11126000Y-6708100D02*
X11226000Y-6708100D01*
X11239800Y-8713300D02*
X11239800Y-8813300D01*
X11189800Y-8763300D02*
X11289800Y-8763300D01*
X11239800Y-8967300D02*
X11239800Y-9067300D01*
X11189800Y-9017300D02*
X11289800Y-9017300D01*
X11239800Y-9221300D02*
X11239800Y-9321300D01*
X11189800Y-9271300D02*
X11289800Y-9271300D01*
X11239800Y-9475300D02*
X11239800Y-9575300D01*
X11189800Y-9525300D02*
X11289800Y-9525300D01*
X11239800Y-9729300D02*
X11239800Y-9829300D01*
X11189800Y-9779300D02*
X11289800Y-9779300D01*
X11239800Y-9983300D02*
X11239800Y-10083300D01*
X11189800Y-10033300D02*
X11289800Y-10033300D01*
X11239800Y-10237300D02*
X11239800Y-10337300D01*
X11189800Y-10287300D02*
X11289800Y-10287300D01*
X11239800Y-10491300D02*
X11239800Y-10591300D01*
X11189800Y-10541300D02*
X11289800Y-10541300D01*
X11239800Y-10745300D02*
X11239800Y-10845300D01*
X11189800Y-10795300D02*
X11289800Y-10795300D01*
X11239800Y-10999300D02*
X11239800Y-11099300D01*
X11189800Y-11049300D02*
X11289800Y-11049300D01*
X11239800Y-11253300D02*
X11239800Y-11353300D01*
X11189800Y-11303300D02*
X11289800Y-11303300D01*
X11239800Y-11507300D02*
X11239800Y-11607300D01*
X11189800Y-11557300D02*
X11289800Y-11557300D01*
X11239800Y-11761300D02*
X11239800Y-11861300D01*
X11189800Y-11811300D02*
X11289800Y-11811300D01*
X11239800Y-12015300D02*
X11239800Y-12115300D01*
X11189800Y-12065300D02*
X11289800Y-12065300D01*
X11239800Y-12269300D02*
X11239800Y-12369300D01*
X11189800Y-12319300D02*
X11289800Y-12319300D01*
X11239800Y-12523300D02*
X11239800Y-12623300D01*
X11189800Y-12573300D02*
X11289800Y-12573300D01*
X11430000Y-5665000D02*
X11430000Y-5765000D01*
X11380000Y-5715000D02*
X11480000Y-5715000D01*
X11430000Y-6020600D02*
X11430000Y-6120600D01*
X11380000Y-6070600D02*
X11480000Y-6070600D01*
X11430000Y-6274600D02*
X11430000Y-6374600D01*
X11380000Y-6324600D02*
X11480000Y-6324600D01*
X11430000Y-6658100D02*
X11430000Y-6758100D01*
X11380000Y-6708100D02*
X11480000Y-6708100D01*
X11684000Y-5665000D02*
X11684000Y-5765000D01*
X11634000Y-5715000D02*
X11734000Y-5715000D01*
X11684000Y-6020600D02*
X11684000Y-6120600D01*
X11634000Y-6070600D02*
X11734000Y-6070600D01*
X11684000Y-6274600D02*
X11684000Y-6374600D01*
X11634000Y-6324600D02*
X11734000Y-6324600D01*
X11684000Y-6658100D02*
X11684000Y-6758100D01*
X11634000Y-6708100D02*
X11734000Y-6708100D01*
X11938000Y-5665000D02*
X11938000Y-5765000D01*
X11888000Y-5715000D02*
X11988000Y-5715000D01*
X11938000Y-6020600D02*
X11938000Y-6120600D01*
X11888000Y-6070600D02*
X11988000Y-6070600D01*
X11938000Y-6274600D02*
X11938000Y-6374600D01*
X11888000Y-6324600D02*
X11988000Y-6324600D01*
X11938000Y-6658100D02*
X11938000Y-6758100D01*
X11888000Y-6708100D02*
X11988000Y-6708100D01*
X12002800Y-9729300D02*
X12002800Y-9829300D01*
X11952800Y-9779300D02*
X12052800Y-9779300D01*
X12002800Y-9983300D02*
X12002800Y-10083300D01*
X11952800Y-10033300D02*
X12052800Y-10033300D01*
X12002800Y-10237300D02*
X12002800Y-10337300D01*
X11952800Y-10287300D02*
X12052800Y-10287300D01*
X12002800Y-10491300D02*
X12002800Y-10591300D01*
X11952800Y-10541300D02*
X12052800Y-10541300D01*
X12002800Y-10745300D02*
X12002800Y-10845300D01*
X11952800Y-10795300D02*
X12052800Y-10795300D01*
X12002800Y-10999300D02*
X12002800Y-11099300D01*
X11952800Y-11049300D02*
X12052800Y-11049300D01*
X12002800Y-11253300D02*
X12002800Y-11353300D01*
X11952800Y-11303300D02*
X12052800Y-11303300D01*
X12002800Y-11507300D02*
X12002800Y-11607300D01*
X11952800Y-11557300D02*
X12052800Y-11557300D01*
X12382500Y-9859000D02*
X12382500Y-9959000D01*
X12332500Y-9909000D02*
X12432500Y-9909000D01*
X12382500Y-10113000D02*
X12382500Y-10213000D01*
X12332500Y-10163000D02*
X12432500Y-10163000D01*
X12383500Y-11888000D02*
X12383500Y-11988000D01*
X12333500Y-11938000D02*
X12433500Y-11938000D01*
X12383500Y-12142000D02*
X12383500Y-12242000D01*
X12333500Y-12192000D02*
X12433500Y-12192000D01*
X12636500Y-9859000D02*
X12636500Y-9959000D01*
X12586500Y-9909000D02*
X12686500Y-9909000D01*
X12636500Y-10113000D02*
X12636500Y-10213000D01*
X12586500Y-10163000D02*
X12686500Y-10163000D01*
X12637500Y-11888000D02*
X12637500Y-11988000D01*
X12587500Y-11938000D02*
X12687500Y-11938000D01*
X12637500Y-12142000D02*
X12637500Y-12242000D01*
X12587500Y-12192000D02*
X12687500Y-12192000D01*
X12890500Y-9859000D02*
X12890500Y-9959000D01*
X12840500Y-9909000D02*
X12940500Y-9909000D01*
X12890500Y-10113000D02*
X12890500Y-10213000D01*
X12840500Y-10163000D02*
X12940500Y-10163000D01*
X12891500Y-11888000D02*
X12891500Y-11988000D01*
X12841500Y-11938000D02*
X12941500Y-11938000D01*
X12891500Y-12142000D02*
X12891500Y-12242000D01*
X12841500Y-12192000D02*
X12941500Y-12192000D01*
X13144500Y-9859000D02*
X13144500Y-9959000D01*
X13094500Y-9909000D02*
X13194500Y-9909000D01*
X13144500Y-10113000D02*
X13144500Y-10213000D01*
X13094500Y-10163000D02*
X13194500Y-10163000D01*
X13145500Y-11888000D02*
X13145500Y-11988000D01*
X13095500Y-11938000D02*
X13195500Y-11938000D01*
X13145500Y-12142000D02*
X13145500Y-12242000D01*
X13095500Y-12192000D02*
X13195500Y-12192000D01*
X13526800Y-8713300D02*
X13526800Y-8813300D01*
X13476800Y-8763300D02*
X13576800Y-8763300D01*
X13526800Y-8967300D02*
X13526800Y-9067300D01*
X13476800Y-9017300D02*
X13576800Y-9017300D01*
X13526800Y-9221300D02*
X13526800Y-9321300D01*
X13476800Y-9271300D02*
X13576800Y-9271300D01*
X13526800Y-9475300D02*
X13526800Y-9575300D01*
X13476800Y-9525300D02*
X13576800Y-9525300D01*
X13526800Y-9729300D02*
X13526800Y-9829300D01*
X13476800Y-9779300D02*
X13576800Y-9779300D01*
X13526800Y-9983300D02*
X13526800Y-10083300D01*
X13476800Y-10033300D02*
X13576800Y-10033300D01*
X13526800Y-10237300D02*
X13526800Y-10337300D01*
X13476800Y-10287300D02*
X13576800Y-10287300D01*
X13526800Y-10491300D02*
X13526800Y-10591300D01*
X13476800Y-10541300D02*
X13576800Y-10541300D01*
X13526800Y-10745300D02*
X13526800Y-10845300D01*
X13476800Y-10795300D02*
X13576800Y-10795300D01*
X13526800Y-10999300D02*
X13526800Y-11099300D01*
X13476800Y-11049300D02*
X13576800Y-11049300D01*
X13526800Y-11253300D02*
X13526800Y-11353300D01*
X13476800Y-11303300D02*
X13576800Y-11303300D01*
X13526800Y-11507300D02*
X13526800Y-11607300D01*
X13476800Y-11557300D02*
X13576800Y-11557300D01*
X13526800Y-11761300D02*
X13526800Y-11861300D01*
X13476800Y-11811300D02*
X13576800Y-11811300D01*
X13526800Y-12015300D02*
X13526800Y-12115300D01*
X13476800Y-12065300D02*
X13576800Y-12065300D01*
X13526800Y-12269300D02*
X13526800Y-12369300D01*
X13476800Y-12319300D02*
X13576800Y-12319300D01*
X13526800Y-12523300D02*
X13526800Y-12623300D01*
X13476800Y-12573300D02*
X13576800Y-12573300D01*
X14287800Y-9729300D02*
X14287800Y-9829300D01*
X14237800Y-9779300D02*
X14337800Y-9779300D01*
X14287800Y-9983300D02*
X14287800Y-10083300D01*
X14237800Y-10033300D02*
X14337800Y-10033300D01*
X14287800Y-10237300D02*
X14287800Y-10337300D01*
X14237800Y-10287300D02*
X14337800Y-10287300D01*
X14287800Y-10491300D02*
X14287800Y-10591300D01*
X14237800Y-10541300D02*
X14337800Y-10541300D01*
X14287800Y-10745300D02*
X14287800Y-10845300D01*
X14237800Y-10795300D02*
X14337800Y-10795300D01*
X14287800Y-10999300D02*
X14287800Y-11099300D01*
X14237800Y-11049300D02*
X14337800Y-11049300D01*
X14287800Y-11253300D02*
X14287800Y-11353300D01*
X14237800Y-11303300D02*
X14337800Y-11303300D01*
X14287800Y-11507300D02*
X14287800Y-11607300D01*
X14237800Y-11557300D02*
X14337800Y-11557300D01*
X14668500Y-9856000D02*
X14668500Y-9956000D01*
X14618500Y-9906000D02*
X14718500Y-9906000D01*
X14668500Y-10110000D02*
X14668500Y-10210000D01*
X14618500Y-10160000D02*
X14718500Y-10160000D01*
X14668500Y-11888000D02*
X14668500Y-11988000D01*
X14618500Y-11938000D02*
X14718500Y-11938000D01*
X14668500Y-12142000D02*
X14668500Y-12242000D01*
X14618500Y-12192000D02*
X14718500Y-12192000D01*
X14922500Y-9856000D02*
X14922500Y-9956000D01*
X14872500Y-9906000D02*
X14972500Y-9906000D01*
X14922500Y-10110000D02*
X14922500Y-10210000D01*
X14872500Y-10160000D02*
X14972500Y-10160000D01*
X14922500Y-11888000D02*
X14922500Y-11988000D01*
X14872500Y-11938000D02*
X14972500Y-11938000D01*
X14922500Y-12142000D02*
X14922500Y-12242000D01*
X14872500Y-12192000D02*
X14972500Y-12192000D01*
X15176500Y-9856000D02*
X15176500Y-9956000D01*
X15126500Y-9906000D02*
X15226500Y-9906000D01*
X15176500Y-10110000D02*
X15176500Y-10210000D01*
X15126500Y-10160000D02*
X15226500Y-10160000D01*
X15176500Y-11888000D02*
X15176500Y-11988000D01*
X15126500Y-11938000D02*
X15226500Y-11938000D01*
X15176500Y-12142000D02*
X15176500Y-12242000D01*
X15126500Y-12192000D02*
X15226500Y-12192000D01*
X15430500Y-9856000D02*
X15430500Y-9956000D01*
X15380500Y-9906000D02*
X15480500Y-9906000D01*
X15430500Y-10110000D02*
X15430500Y-10210000D01*
X15380500Y-10160000D02*
X15480500Y-10160000D01*
X15430500Y-11888000D02*
X15430500Y-11988000D01*
X15380500Y-11938000D02*
X15480500Y-11938000D01*
X15430500Y-12142000D02*
X15430500Y-12242000D01*
X15380500Y-12192000D02*
X15480500Y-12192000D01*
X15811800Y-8712300D02*
X15811800Y-8812300D01*
X15761800Y-8762300D02*
X15861800Y-8762300D01*
X15811800Y-8966300D02*
X15811800Y-9066300D01*
X15761800Y-9016300D02*
X15861800Y-9016300D01*
X15811800Y-9220300D02*
X15811800Y-9320300D01*
X15761800Y-9270300D02*
X15861800Y-9270300D01*
X15811800Y-9474300D02*
X15811800Y-9574300D01*
X15761800Y-9524300D02*
X15861800Y-9524300D01*
X15811800Y-9728300D02*
X15811800Y-9828300D01*
X15761800Y-9778300D02*
X15861800Y-9778300D01*
X15811800Y-9982300D02*
X15811800Y-10082300D01*
X15761800Y-10032300D02*
X15861800Y-10032300D01*
X15811800Y-10236300D02*
X15811800Y-10336300D01*
X15761800Y-10286300D02*
X15861800Y-10286300D01*
X15811800Y-10490300D02*
X15811800Y-10590300D01*
X15761800Y-10540300D02*
X15861800Y-10540300D01*
X15811800Y-10744300D02*
X15811800Y-10844300D01*
X15761800Y-10794300D02*
X15861800Y-10794300D01*
X15811800Y-10998300D02*
X15811800Y-11098300D01*
X15761800Y-11048300D02*
X15861800Y-11048300D01*
X15811800Y-11252300D02*
X15811800Y-11352300D01*
X15761800Y-11302300D02*
X15861800Y-11302300D01*
X15811800Y-11506300D02*
X15811800Y-11606300D01*
X15761800Y-11556300D02*
X15861800Y-11556300D01*
X15811800Y-11760300D02*
X15811800Y-11860300D01*
X15761800Y-11810300D02*
X15861800Y-11810300D01*
X15811800Y-12014300D02*
X15811800Y-12114300D01*
X15761800Y-12064300D02*
X15861800Y-12064300D01*
X15811800Y-12268300D02*
X15811800Y-12368300D01*
X15761800Y-12318300D02*
X15861800Y-12318300D01*
X15811800Y-12522300D02*
X15811800Y-12622300D01*
X15761800Y-12572300D02*
X15861800Y-12572300D01*
X17272000Y-7951000D02*
X17272000Y-8051000D01*
X17222000Y-8001000D02*
X17322000Y-8001000D01*
X17272000Y-8713000D02*
X17272000Y-8813000D01*
X17222000Y-8763000D02*
X17322000Y-8763000D01*
X17272000Y-9729000D02*
X17272000Y-9829000D01*
X17222000Y-9779000D02*
X17322000Y-9779000D01*
X17526000Y-7951000D02*
X17526000Y-8051000D01*
X17476000Y-8001000D02*
X17576000Y-8001000D01*
X17526000Y-8713000D02*
X17526000Y-8813000D01*
X17476000Y-8763000D02*
X17576000Y-8763000D01*
X17526000Y-9729000D02*
X17526000Y-9829000D01*
X17476000Y-9779000D02*
X17576000Y-9779000D01*
X18014000Y-6706400D02*
X18014000Y-6806400D01*
X17964000Y-6756400D02*
X18064000Y-6756400D01*
X18018800Y-7001300D02*
X18018800Y-7101300D01*
X17968800Y-7051300D02*
X18068800Y-7051300D01*
X18018800Y-11828300D02*
X18018800Y-11928300D01*
X17968800Y-11878300D02*
X18068800Y-11878300D01*
X18019000Y-12142000D02*
X18019000Y-12242000D01*
X17969000Y-12192000D02*
X18069000Y-12192000D01*
X18268000Y-6706400D02*
X18268000Y-6806400D01*
X18218000Y-6756400D02*
X18318000Y-6756400D01*
X18272800Y-7001300D02*
X18272800Y-7101300D01*
X18222800Y-7051300D02*
X18322800Y-7051300D01*
X18272800Y-11828300D02*
X18272800Y-11928300D01*
X18222800Y-11878300D02*
X18322800Y-11878300D01*
X18273000Y-12142000D02*
X18273000Y-12242000D01*
X18223000Y-12192000D02*
X18323000Y-12192000D01*
X18522000Y-6706400D02*
X18522000Y-6806400D01*
X18472000Y-6756400D02*
X18572000Y-6756400D01*
X18526800Y-7001300D02*
X18526800Y-7101300D01*
X18476800Y-7051300D02*
X18576800Y-7051300D01*
X18526800Y-11828300D02*
X18526800Y-11928300D01*
X18476800Y-11878300D02*
X18576800Y-11878300D01*
X18527000Y-12142000D02*
X18527000Y-12242000D01*
X18477000Y-12192000D02*
X18577000Y-12192000D01*
X18776000Y-6706400D02*
X18776000Y-6806400D01*
X18726000Y-6756400D02*
X18826000Y-6756400D01*
X18780800Y-7001300D02*
X18780800Y-7101300D01*
X18730800Y-7051300D02*
X18830800Y-7051300D01*
X18780800Y-11828300D02*
X18780800Y-11928300D01*
X18730800Y-11878300D02*
X18830800Y-11878300D01*
X18781000Y-12142000D02*
X18781000Y-12242000D01*
X18731000Y-12192000D02*
X18831000Y-12192000D01*
X19030000Y-6706400D02*
X19030000Y-6806400D01*
X18980000Y-6756400D02*
X19080000Y-6756400D01*
X19034800Y-7001300D02*
X19034800Y-7101300D01*
X18984800Y-7051300D02*
X19084800Y-7051300D01*
X19034800Y-11828300D02*
X19034800Y-11928300D01*
X18984800Y-11878300D02*
X19084800Y-11878300D01*
X19035000Y-12142000D02*
X19035000Y-12242000D01*
X18985000Y-12192000D02*
X19085000Y-12192000D01*
X19284000Y-6706400D02*
X19284000Y-6806400D01*
X19234000Y-6756400D02*
X19334000Y-6756400D01*
X19288800Y-7001300D02*
X19288800Y-7101300D01*
X19238800Y-7051300D02*
X19338800Y-7051300D01*
X19288800Y-11828300D02*
X19288800Y-11928300D01*
X19238800Y-11878300D02*
X19338800Y-11878300D01*
X19289000Y-12142000D02*
X19289000Y-12242000D01*
X19239000Y-12192000D02*
X19339000Y-12192000D01*
X19493800Y-10998300D02*
X19493800Y-11098300D01*
X19443800Y-11048300D02*
X19543800Y-11048300D01*
X19494800Y-7569300D02*
X19494800Y-7669300D01*
X19444800Y-7619300D02*
X19544800Y-7619300D01*
X19494800Y-8839300D02*
X19494800Y-8939300D01*
X19444800Y-8889300D02*
X19544800Y-8889300D01*
X19494800Y-9728300D02*
X19494800Y-9828300D01*
X19444800Y-9778300D02*
X19544800Y-9778300D01*
X19542800Y-11828300D02*
X19542800Y-11928300D01*
X19492800Y-11878300D02*
X19592800Y-11878300D01*
X19543000Y-12142000D02*
X19543000Y-12242000D01*
X19493000Y-12192000D02*
X19593000Y-12192000D01*
X19747800Y-10998300D02*
X19747800Y-11098300D01*
X19697800Y-11048300D02*
X19797800Y-11048300D01*
X19748800Y-7569300D02*
X19748800Y-7669300D01*
X19698800Y-7619300D02*
X19798800Y-7619300D01*
X19748800Y-8839300D02*
X19748800Y-8939300D01*
X19698800Y-8889300D02*
X19798800Y-8889300D01*
X19748800Y-9728300D02*
X19748800Y-9828300D01*
X19698800Y-9778300D02*
X19798800Y-9778300D01*
X19796800Y-7002300D02*
X19796800Y-7102300D01*
X19746800Y-7052300D02*
X19846800Y-7052300D01*
X19796800Y-11828300D02*
X19796800Y-11928300D01*
X19746800Y-11878300D02*
X19846800Y-11878300D01*
X19797000Y-12142000D02*
X19797000Y-12242000D01*
X19747000Y-12192000D02*
X19847000Y-12192000D01*
X20001800Y-10998300D02*
X20001800Y-11098300D01*
X19951800Y-11048300D02*
X20051800Y-11048300D01*
X20002800Y-7569300D02*
X20002800Y-7669300D01*
X19952800Y-7619300D02*
X20052800Y-7619300D01*
X20002800Y-8839300D02*
X20002800Y-8939300D01*
X19952800Y-8889300D02*
X20052800Y-8889300D01*
X20002800Y-9728300D02*
X20002800Y-9828300D01*
X19952800Y-9778300D02*
X20052800Y-9778300D01*
X20050800Y-7002300D02*
X20050800Y-7102300D01*
X20000800Y-7052300D02*
X20100800Y-7052300D01*
X20202800Y-11828300D02*
X20202800Y-11928300D01*
X20152800Y-11878300D02*
X20252800Y-11878300D01*
X20203000Y-12142000D02*
X20203000Y-12242000D01*
X20153000Y-12192000D02*
X20253000Y-12192000D01*
X20255800Y-10998300D02*
X20255800Y-11098300D01*
X20205800Y-11048300D02*
X20305800Y-11048300D01*
X20256800Y-7569300D02*
X20256800Y-7669300D01*
X20206800Y-7619300D02*
X20306800Y-7619300D01*
X20256800Y-8839300D02*
X20256800Y-8939300D01*
X20206800Y-8889300D02*
X20306800Y-8889300D01*
X20256800Y-9728300D02*
X20256800Y-9828300D01*
X20206800Y-9778300D02*
X20306800Y-9778300D01*
X20304800Y-7002300D02*
X20304800Y-7102300D01*
X20254800Y-7052300D02*
X20354800Y-7052300D01*
X20456800Y-11828300D02*
X20456800Y-11928300D01*
X20406800Y-11878300D02*
X20506800Y-11878300D01*
X20457000Y-12142000D02*
X20457000Y-12242000D01*
X20407000Y-12192000D02*
X20507000Y-12192000D01*
X20509800Y-10998300D02*
X20509800Y-11098300D01*
X20459800Y-11048300D02*
X20559800Y-11048300D01*
X20510800Y-7569300D02*
X20510800Y-7669300D01*
X20460800Y-7619300D02*
X20560800Y-7619300D01*
X20510800Y-8839300D02*
X20510800Y-8939300D01*
X20460800Y-8889300D02*
X20560800Y-8889300D01*
X20510800Y-9728300D02*
X20510800Y-9828300D01*
X20460800Y-9778300D02*
X20560800Y-9778300D01*
X20558800Y-7002300D02*
X20558800Y-7102300D01*
X20508800Y-7052300D02*
X20608800Y-7052300D01*
X20710800Y-11828300D02*
X20710800Y-11928300D01*
X20660800Y-11878300D02*
X20760800Y-11878300D01*
X20711000Y-12142000D02*
X20711000Y-12242000D01*
X20661000Y-12192000D02*
X20761000Y-12192000D01*
X20763800Y-10998300D02*
X20763800Y-11098300D01*
X20713800Y-11048300D02*
X20813800Y-11048300D01*
X20764800Y-7569300D02*
X20764800Y-7669300D01*
X20714800Y-7619300D02*
X20814800Y-7619300D01*
X20764800Y-8839300D02*
X20764800Y-8939300D01*
X20714800Y-8889300D02*
X20814800Y-8889300D01*
X20764800Y-9728300D02*
X20764800Y-9828300D01*
X20714800Y-9778300D02*
X20814800Y-9778300D01*
X20812800Y-7002300D02*
X20812800Y-7102300D01*
X20762800Y-7052300D02*
X20862800Y-7052300D01*
X20964800Y-11828300D02*
X20964800Y-11928300D01*
X20914800Y-11878300D02*
X21014800Y-11878300D01*
X20965000Y-12142000D02*
X20965000Y-12242000D01*
X20915000Y-12192000D02*
X21015000Y-12192000D01*
X21017800Y-10998300D02*
X21017800Y-11098300D01*
X20967800Y-11048300D02*
X21067800Y-11048300D01*
X21018800Y-7569300D02*
X21018800Y-7669300D01*
X20968800Y-7619300D02*
X21068800Y-7619300D01*
X21018800Y-8839300D02*
X21018800Y-8939300D01*
X20968800Y-8889300D02*
X21068800Y-8889300D01*
X21018800Y-9728300D02*
X21018800Y-9828300D01*
X20968800Y-9778300D02*
X21068800Y-9778300D01*
X21066800Y-7002300D02*
X21066800Y-7102300D01*
X21016800Y-7052300D02*
X21116800Y-7052300D01*
X21218800Y-11828300D02*
X21218800Y-11928300D01*
X21168800Y-11878300D02*
X21268800Y-11878300D01*
X21219000Y-12142000D02*
X21219000Y-12242000D01*
X21169000Y-12192000D02*
X21269000Y-12192000D01*
X21271800Y-10998300D02*
X21271800Y-11098300D01*
X21221800Y-11048300D02*
X21321800Y-11048300D01*
X21272800Y-7569300D02*
X21272800Y-7669300D01*
X21222800Y-7619300D02*
X21322800Y-7619300D01*
X21272800Y-8839300D02*
X21272800Y-8939300D01*
X21222800Y-8889300D02*
X21322800Y-8889300D01*
X21272800Y-9728300D02*
X21272800Y-9828300D01*
X21222800Y-9778300D02*
X21322800Y-9778300D01*
X21320800Y-7002300D02*
X21320800Y-7102300D01*
X21270800Y-7052300D02*
X21370800Y-7052300D01*
X21472800Y-11828300D02*
X21472800Y-11928300D01*
X21422800Y-11878300D02*
X21522800Y-11878300D01*
X21473000Y-12142000D02*
X21473000Y-12242000D01*
X21423000Y-12192000D02*
X21523000Y-12192000D01*
X21574800Y-7002300D02*
X21574800Y-7102300D01*
X21524800Y-7052300D02*
X21624800Y-7052300D01*
X21726800Y-11828300D02*
X21726800Y-11928300D01*
X21676800Y-11878300D02*
X21776800Y-11878300D01*
X21980800Y-11828300D02*
X21980800Y-11928300D01*
X21930800Y-11878300D02*
X22030800Y-11878300D01*
X22234800Y-11828300D02*
X22234800Y-11928300D01*
X22184800Y-11878300D02*
X22284800Y-11878300D01*
X22488800Y-11828300D02*
X22488800Y-11928300D01*
X22438800Y-11878300D02*
X22538800Y-11878300D01*
X23622000Y-7953000D02*
X23622000Y-8053000D01*
X23572000Y-8003000D02*
X23672000Y-8003000D01*
X23622000Y-8207000D02*
X23622000Y-8307000D01*
X23572000Y-8257000D02*
X23672000Y-8257000D01*
X23622000Y-8461000D02*
X23622000Y-8561000D01*
X23572000Y-8511000D02*
X23672000Y-8511000D01*
X23622000Y-8715000D02*
X23622000Y-8815000D01*
X23572000Y-8765000D02*
X23672000Y-8765000D01*
X23622000Y-10110000D02*
X23622000Y-10210000D01*
X23572000Y-10160000D02*
X23672000Y-10160000D01*
X23622000Y-10364000D02*
X23622000Y-10464000D01*
X23572000Y-10414000D02*
X23672000Y-10414000D01*
X23622000Y-10618000D02*
X23622000Y-10718000D01*
X23572000Y-10668000D02*
X23672000Y-10668000D01*
X23622000Y-10872000D02*
X23622000Y-10972000D01*
X23572000Y-10922000D02*
X23672000Y-10922000D01*
D14*
X17310891Y-11087891D02*
X17310891Y-11010109D01*
X17233109Y-11010109D01*
X17233109Y-11087891D01*
X17310891Y-11087891D01*
X17564891Y-11087891D02*
X17564891Y-11010109D01*
X17487109Y-11010109D01*
X17487109Y-11087891D01*
X17564891Y-11087891D01*
X17818891Y-11087891D02*
X17818891Y-11010109D01*
X17741109Y-11010109D01*
X17741109Y-11087891D01*
X17818891Y-11087891D01*
D15*
X24384000Y-6677000D02*
X24449000Y-6612000D01*
X24384000Y-6547000D01*
X24319000Y-6612000D01*
X24384000Y-6677000D01*
X24384000Y-7177000D02*
X24449000Y-7112000D01*
X24384000Y-7047000D01*
X24319000Y-7112000D01*
X24384000Y-7177000D01*
D11*
X6321419Y-13275776D02*
X6321419Y-13075776D01*
X6369038Y-13075776D01*
X6397609Y-13085300D01*
X6416657Y-13104348D01*
X6426181Y-13123395D01*
X6435705Y-13161490D01*
X6435705Y-13190062D01*
X6426181Y-13228157D01*
X6416657Y-13247205D01*
X6397609Y-13266252D01*
X6369038Y-13275776D01*
X6321419Y-13275776D01*
X6521419Y-13275776D02*
X6521419Y-13142443D01*
X6521419Y-13180538D02*
X6530943Y-13161490D01*
X6540467Y-13151967D01*
X6559514Y-13142443D01*
X6578562Y-13142443D01*
X6645228Y-13275776D02*
X6645228Y-13142443D01*
X6645228Y-13075776D02*
X6635705Y-13085300D01*
X6645228Y-13094824D01*
X6654752Y-13085300D01*
X6645228Y-13075776D01*
X6645228Y-13094824D01*
X6769038Y-13275776D02*
X6749990Y-13266252D01*
X6740467Y-13247205D01*
X6740467Y-13075776D01*
X6873800Y-13275776D02*
X6854752Y-13266252D01*
X6845228Y-13247205D01*
X6845228Y-13075776D01*
X7102371Y-13275776D02*
X7102371Y-13075776D01*
X7169038Y-13218633D01*
X7235705Y-13075776D01*
X7235705Y-13275776D01*
X7416657Y-13275776D02*
X7416657Y-13171014D01*
X7407133Y-13151967D01*
X7388086Y-13142443D01*
X7349990Y-13142443D01*
X7330943Y-13151967D01*
X7416657Y-13266252D02*
X7397609Y-13275776D01*
X7349990Y-13275776D01*
X7330943Y-13266252D01*
X7321419Y-13247205D01*
X7321419Y-13228157D01*
X7330943Y-13209109D01*
X7349990Y-13199586D01*
X7397609Y-13199586D01*
X7416657Y-13190062D01*
X7511895Y-13142443D02*
X7511895Y-13342443D01*
X7511895Y-13151967D02*
X7530943Y-13142443D01*
X7569038Y-13142443D01*
X7588086Y-13151967D01*
X7597609Y-13161490D01*
X7607133Y-13180538D01*
X7607133Y-13237681D01*
X7597609Y-13256728D01*
X7588086Y-13266252D01*
X7569038Y-13275776D01*
X7530943Y-13275776D01*
X7511895Y-13266252D01*
X7692848Y-13256728D02*
X7702371Y-13266252D01*
X7692848Y-13275776D01*
X7683324Y-13266252D01*
X7692848Y-13256728D01*
X7692848Y-13275776D01*
X7692848Y-13151967D02*
X7702371Y-13161490D01*
X7692848Y-13171014D01*
X7683324Y-13161490D01*
X7692848Y-13151967D01*
X7692848Y-13171014D01*
D12*
X6023800Y-13585300D02*
X6063800Y-13625300D01*
X6063800Y-13585300D02*
X6023800Y-13625300D01*
D11*
X6359514Y-13495776D02*
X6378562Y-13495776D01*
X6397609Y-13505300D01*
X6407133Y-13514824D01*
X6416657Y-13533871D01*
X6426181Y-13571967D01*
X6426181Y-13619586D01*
X6416657Y-13657681D01*
X6407133Y-13676728D01*
X6397609Y-13686252D01*
X6378562Y-13695776D01*
X6359514Y-13695776D01*
X6340467Y-13686252D01*
X6330943Y-13676728D01*
X6321419Y-13657681D01*
X6311895Y-13619586D01*
X6311895Y-13571967D01*
X6321419Y-13533871D01*
X6330943Y-13514824D01*
X6340467Y-13505300D01*
X6359514Y-13495776D01*
X6511895Y-13676728D02*
X6521419Y-13686252D01*
X6511895Y-13695776D01*
X6502371Y-13686252D01*
X6511895Y-13676728D01*
X6511895Y-13695776D01*
X6692848Y-13562443D02*
X6692848Y-13695776D01*
X6645228Y-13486252D02*
X6597609Y-13629109D01*
X6721419Y-13629109D01*
X6835705Y-13495776D02*
X6854752Y-13495776D01*
X6873800Y-13505300D01*
X6883324Y-13514824D01*
X6892848Y-13533871D01*
X6902371Y-13571967D01*
X6902371Y-13619586D01*
X6892848Y-13657681D01*
X6883324Y-13676728D01*
X6873800Y-13686252D01*
X6854752Y-13695776D01*
X6835705Y-13695776D01*
X6816657Y-13686252D01*
X6807133Y-13676728D01*
X6797609Y-13657681D01*
X6788086Y-13619586D01*
X6788086Y-13571967D01*
X6797609Y-13533871D01*
X6807133Y-13514824D01*
X6816657Y-13505300D01*
X6835705Y-13495776D01*
X7026181Y-13495776D02*
X7045228Y-13495776D01*
X7064276Y-13505300D01*
X7073800Y-13514824D01*
X7083324Y-13533871D01*
X7092848Y-13571967D01*
X7092848Y-13619586D01*
X7083324Y-13657681D01*
X7073800Y-13676728D01*
X7064276Y-13686252D01*
X7045228Y-13695776D01*
X7026181Y-13695776D01*
X7007133Y-13686252D01*
X6997609Y-13676728D01*
X6988086Y-13657681D01*
X6978562Y-13619586D01*
X6978562Y-13571967D01*
X6988086Y-13533871D01*
X6997609Y-13514824D01*
X7007133Y-13505300D01*
X7026181Y-13495776D01*
X7178562Y-13695776D02*
X7178562Y-13562443D01*
X7178562Y-13581490D02*
X7188086Y-13571967D01*
X7207133Y-13562443D01*
X7235705Y-13562443D01*
X7254752Y-13571967D01*
X7264276Y-13591014D01*
X7264276Y-13695776D01*
X7264276Y-13591014D02*
X7273800Y-13571967D01*
X7292848Y-13562443D01*
X7321419Y-13562443D01*
X7340467Y-13571967D01*
X7349990Y-13591014D01*
X7349990Y-13695776D01*
X7445228Y-13695776D02*
X7445228Y-13562443D01*
X7445228Y-13581490D02*
X7454752Y-13571967D01*
X7473800Y-13562443D01*
X7502371Y-13562443D01*
X7521419Y-13571967D01*
X7530943Y-13591014D01*
X7530943Y-13695776D01*
X7530943Y-13591014D02*
X7540467Y-13571967D01*
X7559514Y-13562443D01*
X7588086Y-13562443D01*
X7607133Y-13571967D01*
X7616657Y-13591014D01*
X7616657Y-13695776D01*
X8007133Y-13486252D02*
X7835705Y-13743395D01*
X8264276Y-13495776D02*
X8283324Y-13495776D01*
X8302371Y-13505300D01*
X8311895Y-13514824D01*
X8321419Y-13533871D01*
X8330943Y-13571967D01*
X8330943Y-13619586D01*
X8321419Y-13657681D01*
X8311895Y-13676728D01*
X8302371Y-13686252D01*
X8283324Y-13695776D01*
X8264276Y-13695776D01*
X8245228Y-13686252D01*
X8235705Y-13676728D01*
X8226181Y-13657681D01*
X8216657Y-13619586D01*
X8216657Y-13571967D01*
X8226181Y-13533871D01*
X8235705Y-13514824D01*
X8245228Y-13505300D01*
X8264276Y-13495776D01*
X8416657Y-13676728D02*
X8426181Y-13686252D01*
X8416657Y-13695776D01*
X8407133Y-13686252D01*
X8416657Y-13676728D01*
X8416657Y-13695776D01*
X8549990Y-13495776D02*
X8569038Y-13495776D01*
X8588086Y-13505300D01*
X8597610Y-13514824D01*
X8607133Y-13533871D01*
X8616657Y-13571967D01*
X8616657Y-13619586D01*
X8607133Y-13657681D01*
X8597610Y-13676728D01*
X8588086Y-13686252D01*
X8569038Y-13695776D01*
X8549990Y-13695776D01*
X8530943Y-13686252D01*
X8521419Y-13676728D01*
X8511895Y-13657681D01*
X8502371Y-13619586D01*
X8502371Y-13571967D01*
X8511895Y-13533871D01*
X8521419Y-13514824D01*
X8530943Y-13505300D01*
X8549990Y-13495776D01*
X8807133Y-13695776D02*
X8692848Y-13695776D01*
X8749990Y-13695776D02*
X8749990Y-13495776D01*
X8730943Y-13524348D01*
X8711895Y-13543395D01*
X8692848Y-13552919D01*
X8988086Y-13495776D02*
X8892848Y-13495776D01*
X8883324Y-13591014D01*
X8892848Y-13581490D01*
X8911895Y-13571967D01*
X8959514Y-13571967D01*
X8978562Y-13581490D01*
X8988086Y-13591014D01*
X8997610Y-13610062D01*
X8997610Y-13657681D01*
X8988086Y-13676728D01*
X8978562Y-13686252D01*
X8959514Y-13695776D01*
X8911895Y-13695776D01*
X8892848Y-13686252D01*
X8883324Y-13676728D01*
X9064276Y-13495776D02*
X9197610Y-13495776D01*
X9111895Y-13695776D01*
X9264276Y-13495776D02*
X9264276Y-13533871D01*
X9340467Y-13495776D02*
X9340467Y-13533871D01*
X9635705Y-13771967D02*
X9626181Y-13762443D01*
X9607133Y-13733871D01*
X9597610Y-13714824D01*
X9588086Y-13686252D01*
X9578562Y-13638633D01*
X9578562Y-13600538D01*
X9588086Y-13552919D01*
X9597610Y-13524348D01*
X9607133Y-13505300D01*
X9626181Y-13476728D01*
X9635705Y-13467205D01*
X9816657Y-13695776D02*
X9702371Y-13695776D01*
X9759514Y-13695776D02*
X9759514Y-13495776D01*
X9740467Y-13524348D01*
X9721419Y-13543395D01*
X9702371Y-13552919D01*
X9988086Y-13562443D02*
X9988086Y-13695776D01*
X9940467Y-13486252D02*
X9892848Y-13629109D01*
X10016657Y-13629109D01*
X10245229Y-13695776D02*
X10245229Y-13495776D01*
X10330943Y-13695776D02*
X10330943Y-13591014D01*
X10321419Y-13571967D01*
X10302371Y-13562443D01*
X10273800Y-13562443D01*
X10254752Y-13571967D01*
X10245229Y-13581490D01*
X10454752Y-13695776D02*
X10435705Y-13686252D01*
X10426181Y-13676728D01*
X10416657Y-13657681D01*
X10416657Y-13600538D01*
X10426181Y-13581490D01*
X10435705Y-13571967D01*
X10454752Y-13562443D01*
X10483324Y-13562443D01*
X10502371Y-13571967D01*
X10511895Y-13581490D01*
X10521419Y-13600538D01*
X10521419Y-13657681D01*
X10511895Y-13676728D01*
X10502371Y-13686252D01*
X10483324Y-13695776D01*
X10454752Y-13695776D01*
X10635705Y-13695776D02*
X10616657Y-13686252D01*
X10607133Y-13667205D01*
X10607133Y-13495776D01*
X10788086Y-13686252D02*
X10769038Y-13695776D01*
X10730943Y-13695776D01*
X10711895Y-13686252D01*
X10702371Y-13667205D01*
X10702371Y-13591014D01*
X10711895Y-13571967D01*
X10730943Y-13562443D01*
X10769038Y-13562443D01*
X10788086Y-13571967D01*
X10797610Y-13591014D01*
X10797610Y-13610062D01*
X10702371Y-13629109D01*
X10873800Y-13686252D02*
X10892848Y-13695776D01*
X10930943Y-13695776D01*
X10949990Y-13686252D01*
X10959514Y-13667205D01*
X10959514Y-13657681D01*
X10949990Y-13638633D01*
X10930943Y-13629109D01*
X10902371Y-13629109D01*
X10883324Y-13619586D01*
X10873800Y-13600538D01*
X10873800Y-13591014D01*
X10883324Y-13571967D01*
X10902371Y-13562443D01*
X10930943Y-13562443D01*
X10949990Y-13571967D01*
X11026181Y-13771967D02*
X11035705Y-13762443D01*
X11054752Y-13733871D01*
X11064276Y-13714824D01*
X11073800Y-13686252D01*
X11083324Y-13638633D01*
X11083324Y-13600538D01*
X11073800Y-13552919D01*
X11064276Y-13524348D01*
X11054752Y-13505300D01*
X11035705Y-13476728D01*
X11026181Y-13467205D01*
D13*
X6063800Y-13869300D02*
G75*
G03*
X6063800Y-13869300I-40000J0D01*
G01*
D11*
X6359514Y-13759776D02*
X6378562Y-13759776D01*
X6397609Y-13769300D01*
X6407133Y-13778824D01*
X6416657Y-13797871D01*
X6426181Y-13835967D01*
X6426181Y-13883586D01*
X6416657Y-13921681D01*
X6407133Y-13940728D01*
X6397609Y-13950252D01*
X6378562Y-13959776D01*
X6359514Y-13959776D01*
X6340467Y-13950252D01*
X6330943Y-13940728D01*
X6321419Y-13921681D01*
X6311895Y-13883586D01*
X6311895Y-13835967D01*
X6321419Y-13797871D01*
X6330943Y-13778824D01*
X6340467Y-13769300D01*
X6359514Y-13759776D01*
X6511895Y-13940728D02*
X6521419Y-13950252D01*
X6511895Y-13959776D01*
X6502371Y-13950252D01*
X6511895Y-13940728D01*
X6511895Y-13959776D01*
X6635705Y-13845490D02*
X6616657Y-13835967D01*
X6607133Y-13826443D01*
X6597609Y-13807395D01*
X6597609Y-13797871D01*
X6607133Y-13778824D01*
X6616657Y-13769300D01*
X6635705Y-13759776D01*
X6673800Y-13759776D01*
X6692848Y-13769300D01*
X6702371Y-13778824D01*
X6711895Y-13797871D01*
X6711895Y-13807395D01*
X6702371Y-13826443D01*
X6692848Y-13835967D01*
X6673800Y-13845490D01*
X6635705Y-13845490D01*
X6616657Y-13855014D01*
X6607133Y-13864538D01*
X6597609Y-13883586D01*
X6597609Y-13921681D01*
X6607133Y-13940728D01*
X6616657Y-13950252D01*
X6635705Y-13959776D01*
X6673800Y-13959776D01*
X6692848Y-13950252D01*
X6702371Y-13940728D01*
X6711895Y-13921681D01*
X6711895Y-13883586D01*
X6702371Y-13864538D01*
X6692848Y-13855014D01*
X6673800Y-13845490D01*
X6835705Y-13759776D02*
X6854752Y-13759776D01*
X6873800Y-13769300D01*
X6883324Y-13778824D01*
X6892848Y-13797871D01*
X6902371Y-13835967D01*
X6902371Y-13883586D01*
X6892848Y-13921681D01*
X6883324Y-13940728D01*
X6873800Y-13950252D01*
X6854752Y-13959776D01*
X6835705Y-13959776D01*
X6816657Y-13950252D01*
X6807133Y-13940728D01*
X6797609Y-13921681D01*
X6788086Y-13883586D01*
X6788086Y-13835967D01*
X6797609Y-13797871D01*
X6807133Y-13778824D01*
X6816657Y-13769300D01*
X6835705Y-13759776D01*
X7026181Y-13759776D02*
X7045228Y-13759776D01*
X7064276Y-13769300D01*
X7073800Y-13778824D01*
X7083324Y-13797871D01*
X7092848Y-13835967D01*
X7092848Y-13883586D01*
X7083324Y-13921681D01*
X7073800Y-13940728D01*
X7064276Y-13950252D01*
X7045228Y-13959776D01*
X7026181Y-13959776D01*
X7007133Y-13950252D01*
X6997609Y-13940728D01*
X6988086Y-13921681D01*
X6978562Y-13883586D01*
X6978562Y-13835967D01*
X6988086Y-13797871D01*
X6997609Y-13778824D01*
X7007133Y-13769300D01*
X7026181Y-13759776D01*
X7178562Y-13959776D02*
X7178562Y-13826443D01*
X7178562Y-13845490D02*
X7188086Y-13835967D01*
X7207133Y-13826443D01*
X7235705Y-13826443D01*
X7254752Y-13835967D01*
X7264276Y-13855014D01*
X7264276Y-13959776D01*
X7264276Y-13855014D02*
X7273800Y-13835967D01*
X7292848Y-13826443D01*
X7321419Y-13826443D01*
X7340467Y-13835967D01*
X7349990Y-13855014D01*
X7349990Y-13959776D01*
X7445228Y-13959776D02*
X7445228Y-13826443D01*
X7445228Y-13845490D02*
X7454752Y-13835967D01*
X7473800Y-13826443D01*
X7502371Y-13826443D01*
X7521419Y-13835967D01*
X7530943Y-13855014D01*
X7530943Y-13959776D01*
X7530943Y-13855014D02*
X7540467Y-13835967D01*
X7559514Y-13826443D01*
X7588086Y-13826443D01*
X7607133Y-13835967D01*
X7616657Y-13855014D01*
X7616657Y-13959776D01*
X8007133Y-13750252D02*
X7835705Y-14007395D01*
X8264276Y-13759776D02*
X8283324Y-13759776D01*
X8302371Y-13769300D01*
X8311895Y-13778824D01*
X8321419Y-13797871D01*
X8330943Y-13835967D01*
X8330943Y-13883586D01*
X8321419Y-13921681D01*
X8311895Y-13940728D01*
X8302371Y-13950252D01*
X8283324Y-13959776D01*
X8264276Y-13959776D01*
X8245228Y-13950252D01*
X8235705Y-13940728D01*
X8226181Y-13921681D01*
X8216657Y-13883586D01*
X8216657Y-13835967D01*
X8226181Y-13797871D01*
X8235705Y-13778824D01*
X8245228Y-13769300D01*
X8264276Y-13759776D01*
X8416657Y-13940728D02*
X8426181Y-13950252D01*
X8416657Y-13959776D01*
X8407133Y-13950252D01*
X8416657Y-13940728D01*
X8416657Y-13959776D01*
X8549990Y-13759776D02*
X8569038Y-13759776D01*
X8588086Y-13769300D01*
X8597610Y-13778824D01*
X8607133Y-13797871D01*
X8616657Y-13835967D01*
X8616657Y-13883586D01*
X8607133Y-13921681D01*
X8597610Y-13940728D01*
X8588086Y-13950252D01*
X8569038Y-13959776D01*
X8549990Y-13959776D01*
X8530943Y-13950252D01*
X8521419Y-13940728D01*
X8511895Y-13921681D01*
X8502371Y-13883586D01*
X8502371Y-13835967D01*
X8511895Y-13797871D01*
X8521419Y-13778824D01*
X8530943Y-13769300D01*
X8549990Y-13759776D01*
X8683324Y-13759776D02*
X8807133Y-13759776D01*
X8740467Y-13835967D01*
X8769038Y-13835967D01*
X8788086Y-13845490D01*
X8797610Y-13855014D01*
X8807133Y-13874062D01*
X8807133Y-13921681D01*
X8797610Y-13940728D01*
X8788086Y-13950252D01*
X8769038Y-13959776D01*
X8711895Y-13959776D01*
X8692848Y-13950252D01*
X8683324Y-13940728D01*
X8997610Y-13959776D02*
X8883324Y-13959776D01*
X8940467Y-13959776D02*
X8940467Y-13759776D01*
X8921419Y-13788348D01*
X8902371Y-13807395D01*
X8883324Y-13816919D01*
X9178562Y-13759776D02*
X9083324Y-13759776D01*
X9073800Y-13855014D01*
X9083324Y-13845490D01*
X9102371Y-13835967D01*
X9149990Y-13835967D01*
X9169038Y-13845490D01*
X9178562Y-13855014D01*
X9188086Y-13874062D01*
X9188086Y-13921681D01*
X9178562Y-13940728D01*
X9169038Y-13950252D01*
X9149990Y-13959776D01*
X9102371Y-13959776D01*
X9083324Y-13950252D01*
X9073800Y-13940728D01*
X9264276Y-13759776D02*
X9264276Y-13797871D01*
X9340467Y-13759776D02*
X9340467Y-13797871D01*
X9635705Y-14035967D02*
X9626181Y-14026443D01*
X9607133Y-13997871D01*
X9597610Y-13978824D01*
X9588086Y-13950252D01*
X9578562Y-13902633D01*
X9578562Y-13864538D01*
X9588086Y-13816919D01*
X9597610Y-13788348D01*
X9607133Y-13769300D01*
X9626181Y-13740728D01*
X9635705Y-13731205D01*
X9740467Y-13845490D02*
X9721419Y-13835967D01*
X9711895Y-13826443D01*
X9702371Y-13807395D01*
X9702371Y-13797871D01*
X9711895Y-13778824D01*
X9721419Y-13769300D01*
X9740467Y-13759776D01*
X9778562Y-13759776D01*
X9797610Y-13769300D01*
X9807133Y-13778824D01*
X9816657Y-13797871D01*
X9816657Y-13807395D01*
X9807133Y-13826443D01*
X9797610Y-13835967D01*
X9778562Y-13845490D01*
X9740467Y-13845490D01*
X9721419Y-13855014D01*
X9711895Y-13864538D01*
X9702371Y-13883586D01*
X9702371Y-13921681D01*
X9711895Y-13940728D01*
X9721419Y-13950252D01*
X9740467Y-13959776D01*
X9778562Y-13959776D01*
X9797610Y-13950252D01*
X9807133Y-13940728D01*
X9816657Y-13921681D01*
X9816657Y-13883586D01*
X9807133Y-13864538D01*
X9797610Y-13855014D01*
X9778562Y-13845490D01*
X10054752Y-13959776D02*
X10054752Y-13759776D01*
X10140467Y-13959776D02*
X10140467Y-13855014D01*
X10130943Y-13835967D01*
X10111895Y-13826443D01*
X10083324Y-13826443D01*
X10064276Y-13835967D01*
X10054752Y-13845490D01*
X10264276Y-13959776D02*
X10245229Y-13950252D01*
X10235705Y-13940728D01*
X10226181Y-13921681D01*
X10226181Y-13864538D01*
X10235705Y-13845490D01*
X10245229Y-13835967D01*
X10264276Y-13826443D01*
X10292848Y-13826443D01*
X10311895Y-13835967D01*
X10321419Y-13845490D01*
X10330943Y-13864538D01*
X10330943Y-13921681D01*
X10321419Y-13940728D01*
X10311895Y-13950252D01*
X10292848Y-13959776D01*
X10264276Y-13959776D01*
X10445229Y-13959776D02*
X10426181Y-13950252D01*
X10416657Y-13931205D01*
X10416657Y-13759776D01*
X10597610Y-13950252D02*
X10578562Y-13959776D01*
X10540467Y-13959776D01*
X10521419Y-13950252D01*
X10511895Y-13931205D01*
X10511895Y-13855014D01*
X10521419Y-13835967D01*
X10540467Y-13826443D01*
X10578562Y-13826443D01*
X10597610Y-13835967D01*
X10607133Y-13855014D01*
X10607133Y-13874062D01*
X10511895Y-13893109D01*
X10683324Y-13950252D02*
X10702371Y-13959776D01*
X10740467Y-13959776D01*
X10759514Y-13950252D01*
X10769038Y-13931205D01*
X10769038Y-13921681D01*
X10759514Y-13902633D01*
X10740467Y-13893109D01*
X10711895Y-13893109D01*
X10692848Y-13883586D01*
X10683324Y-13864538D01*
X10683324Y-13855014D01*
X10692848Y-13835967D01*
X10711895Y-13826443D01*
X10740467Y-13826443D01*
X10759514Y-13835967D01*
X10835705Y-14035967D02*
X10845229Y-14026443D01*
X10864276Y-13997871D01*
X10873800Y-13978824D01*
X10883324Y-13950252D01*
X10892848Y-13902633D01*
X10892848Y-13864538D01*
X10883324Y-13816919D01*
X10873800Y-13788348D01*
X10864276Y-13769300D01*
X10845229Y-13740728D01*
X10835705Y-13731205D01*
D10*
X6013800Y-14083300D02*
X6013800Y-14183300D01*
X5963800Y-14133300D02*
X6063800Y-14133300D01*
D11*
X6426181Y-14223776D02*
X6311895Y-14223776D01*
X6369038Y-14223776D02*
X6369038Y-14023776D01*
X6349990Y-14052348D01*
X6330943Y-14071395D01*
X6311895Y-14080919D01*
X6511895Y-14204728D02*
X6521419Y-14214252D01*
X6511895Y-14223776D01*
X6502371Y-14214252D01*
X6511895Y-14204728D01*
X6511895Y-14223776D01*
X6645228Y-14023776D02*
X6664276Y-14023776D01*
X6683324Y-14033300D01*
X6692848Y-14042824D01*
X6702371Y-14061871D01*
X6711895Y-14099967D01*
X6711895Y-14147586D01*
X6702371Y-14185681D01*
X6692848Y-14204728D01*
X6683324Y-14214252D01*
X6664276Y-14223776D01*
X6645228Y-14223776D01*
X6626181Y-14214252D01*
X6616657Y-14204728D01*
X6607133Y-14185681D01*
X6597609Y-14147586D01*
X6597609Y-14099967D01*
X6607133Y-14061871D01*
X6616657Y-14042824D01*
X6626181Y-14033300D01*
X6645228Y-14023776D01*
X6835705Y-14023776D02*
X6854752Y-14023776D01*
X6873800Y-14033300D01*
X6883324Y-14042824D01*
X6892848Y-14061871D01*
X6902371Y-14099967D01*
X6902371Y-14147586D01*
X6892848Y-14185681D01*
X6883324Y-14204728D01*
X6873800Y-14214252D01*
X6854752Y-14223776D01*
X6835705Y-14223776D01*
X6816657Y-14214252D01*
X6807133Y-14204728D01*
X6797609Y-14185681D01*
X6788086Y-14147586D01*
X6788086Y-14099967D01*
X6797609Y-14061871D01*
X6807133Y-14042824D01*
X6816657Y-14033300D01*
X6835705Y-14023776D01*
X7026181Y-14023776D02*
X7045228Y-14023776D01*
X7064276Y-14033300D01*
X7073800Y-14042824D01*
X7083324Y-14061871D01*
X7092848Y-14099967D01*
X7092848Y-14147586D01*
X7083324Y-14185681D01*
X7073800Y-14204728D01*
X7064276Y-14214252D01*
X7045228Y-14223776D01*
X7026181Y-14223776D01*
X7007133Y-14214252D01*
X6997609Y-14204728D01*
X6988086Y-14185681D01*
X6978562Y-14147586D01*
X6978562Y-14099967D01*
X6988086Y-14061871D01*
X6997609Y-14042824D01*
X7007133Y-14033300D01*
X7026181Y-14023776D01*
X7178562Y-14223776D02*
X7178562Y-14090443D01*
X7178562Y-14109490D02*
X7188086Y-14099967D01*
X7207133Y-14090443D01*
X7235705Y-14090443D01*
X7254752Y-14099967D01*
X7264276Y-14119014D01*
X7264276Y-14223776D01*
X7264276Y-14119014D02*
X7273800Y-14099967D01*
X7292848Y-14090443D01*
X7321419Y-14090443D01*
X7340467Y-14099967D01*
X7349990Y-14119014D01*
X7349990Y-14223776D01*
X7445228Y-14223776D02*
X7445228Y-14090443D01*
X7445228Y-14109490D02*
X7454752Y-14099967D01*
X7473800Y-14090443D01*
X7502371Y-14090443D01*
X7521419Y-14099967D01*
X7530943Y-14119014D01*
X7530943Y-14223776D01*
X7530943Y-14119014D02*
X7540467Y-14099967D01*
X7559514Y-14090443D01*
X7588086Y-14090443D01*
X7607133Y-14099967D01*
X7616657Y-14119014D01*
X7616657Y-14223776D01*
X8007133Y-14014252D02*
X7835705Y-14271395D01*
X8264276Y-14023776D02*
X8283324Y-14023776D01*
X8302371Y-14033300D01*
X8311895Y-14042824D01*
X8321419Y-14061871D01*
X8330943Y-14099967D01*
X8330943Y-14147586D01*
X8321419Y-14185681D01*
X8311895Y-14204728D01*
X8302371Y-14214252D01*
X8283324Y-14223776D01*
X8264276Y-14223776D01*
X8245228Y-14214252D01*
X8235705Y-14204728D01*
X8226181Y-14185681D01*
X8216657Y-14147586D01*
X8216657Y-14099967D01*
X8226181Y-14061871D01*
X8235705Y-14042824D01*
X8245228Y-14033300D01*
X8264276Y-14023776D01*
X8416657Y-14204728D02*
X8426181Y-14214252D01*
X8416657Y-14223776D01*
X8407133Y-14214252D01*
X8416657Y-14204728D01*
X8416657Y-14223776D01*
X8549990Y-14023776D02*
X8569038Y-14023776D01*
X8588086Y-14033300D01*
X8597610Y-14042824D01*
X8607133Y-14061871D01*
X8616657Y-14099967D01*
X8616657Y-14147586D01*
X8607133Y-14185681D01*
X8597610Y-14204728D01*
X8588086Y-14214252D01*
X8569038Y-14223776D01*
X8549990Y-14223776D01*
X8530943Y-14214252D01*
X8521419Y-14204728D01*
X8511895Y-14185681D01*
X8502371Y-14147586D01*
X8502371Y-14099967D01*
X8511895Y-14061871D01*
X8521419Y-14042824D01*
X8530943Y-14033300D01*
X8549990Y-14023776D01*
X8683324Y-14023776D02*
X8807133Y-14023776D01*
X8740467Y-14099967D01*
X8769038Y-14099967D01*
X8788086Y-14109490D01*
X8797610Y-14119014D01*
X8807133Y-14138062D01*
X8807133Y-14185681D01*
X8797610Y-14204728D01*
X8788086Y-14214252D01*
X8769038Y-14223776D01*
X8711895Y-14223776D01*
X8692848Y-14214252D01*
X8683324Y-14204728D01*
X8902371Y-14223776D02*
X8940467Y-14223776D01*
X8959514Y-14214252D01*
X8969038Y-14204728D01*
X8988086Y-14176157D01*
X8997610Y-14138062D01*
X8997610Y-14061871D01*
X8988086Y-14042824D01*
X8978562Y-14033300D01*
X8959514Y-14023776D01*
X8921419Y-14023776D01*
X8902371Y-14033300D01*
X8892848Y-14042824D01*
X8883324Y-14061871D01*
X8883324Y-14109490D01*
X8892848Y-14128538D01*
X8902371Y-14138062D01*
X8921419Y-14147586D01*
X8959514Y-14147586D01*
X8978562Y-14138062D01*
X8988086Y-14128538D01*
X8997610Y-14109490D01*
X9169038Y-14090443D02*
X9169038Y-14223776D01*
X9121419Y-14014252D02*
X9073800Y-14157109D01*
X9197610Y-14157109D01*
X9264276Y-14023776D02*
X9264276Y-14061871D01*
X9340467Y-14023776D02*
X9340467Y-14061871D01*
X9635705Y-14299967D02*
X9626181Y-14290443D01*
X9607133Y-14261871D01*
X9597610Y-14242824D01*
X9588086Y-14214252D01*
X9578562Y-14166633D01*
X9578562Y-14128538D01*
X9588086Y-14080919D01*
X9597610Y-14052348D01*
X9607133Y-14033300D01*
X9626181Y-14004728D01*
X9635705Y-13995205D01*
X9692848Y-14023776D02*
X9816657Y-14023776D01*
X9749990Y-14099967D01*
X9778562Y-14099967D01*
X9797610Y-14109490D01*
X9807133Y-14119014D01*
X9816657Y-14138062D01*
X9816657Y-14185681D01*
X9807133Y-14204728D01*
X9797610Y-14214252D01*
X9778562Y-14223776D01*
X9721419Y-14223776D01*
X9702371Y-14214252D01*
X9692848Y-14204728D01*
X9883324Y-14023776D02*
X10007133Y-14023776D01*
X9940467Y-14099967D01*
X9969038Y-14099967D01*
X9988086Y-14109490D01*
X9997610Y-14119014D01*
X10007133Y-14138062D01*
X10007133Y-14185681D01*
X9997610Y-14204728D01*
X9988086Y-14214252D01*
X9969038Y-14223776D01*
X9911895Y-14223776D01*
X9892848Y-14214252D01*
X9883324Y-14204728D01*
X10121419Y-14109490D02*
X10102371Y-14099967D01*
X10092848Y-14090443D01*
X10083324Y-14071395D01*
X10083324Y-14061871D01*
X10092848Y-14042824D01*
X10102371Y-14033300D01*
X10121419Y-14023776D01*
X10159514Y-14023776D01*
X10178562Y-14033300D01*
X10188086Y-14042824D01*
X10197610Y-14061871D01*
X10197610Y-14071395D01*
X10188086Y-14090443D01*
X10178562Y-14099967D01*
X10159514Y-14109490D01*
X10121419Y-14109490D01*
X10102371Y-14119014D01*
X10092848Y-14128538D01*
X10083324Y-14147586D01*
X10083324Y-14185681D01*
X10092848Y-14204728D01*
X10102371Y-14214252D01*
X10121419Y-14223776D01*
X10159514Y-14223776D01*
X10178562Y-14214252D01*
X10188086Y-14204728D01*
X10197610Y-14185681D01*
X10197610Y-14147586D01*
X10188086Y-14128538D01*
X10178562Y-14119014D01*
X10159514Y-14109490D01*
X10435705Y-14223776D02*
X10435705Y-14023776D01*
X10521419Y-14223776D02*
X10521419Y-14119014D01*
X10511895Y-14099967D01*
X10492848Y-14090443D01*
X10464276Y-14090443D01*
X10445229Y-14099967D01*
X10435705Y-14109490D01*
X10645229Y-14223776D02*
X10626181Y-14214252D01*
X10616657Y-14204728D01*
X10607133Y-14185681D01*
X10607133Y-14128538D01*
X10616657Y-14109490D01*
X10626181Y-14099967D01*
X10645229Y-14090443D01*
X10673800Y-14090443D01*
X10692848Y-14099967D01*
X10702371Y-14109490D01*
X10711895Y-14128538D01*
X10711895Y-14185681D01*
X10702371Y-14204728D01*
X10692848Y-14214252D01*
X10673800Y-14223776D01*
X10645229Y-14223776D01*
X10826181Y-14223776D02*
X10807133Y-14214252D01*
X10797610Y-14195205D01*
X10797610Y-14023776D01*
X10978562Y-14214252D02*
X10959514Y-14223776D01*
X10921419Y-14223776D01*
X10902371Y-14214252D01*
X10892848Y-14195205D01*
X10892848Y-14119014D01*
X10902371Y-14099967D01*
X10921419Y-14090443D01*
X10959514Y-14090443D01*
X10978562Y-14099967D01*
X10988086Y-14119014D01*
X10988086Y-14138062D01*
X10892848Y-14157109D01*
X11064276Y-14214252D02*
X11083324Y-14223776D01*
X11121419Y-14223776D01*
X11140467Y-14214252D01*
X11149990Y-14195205D01*
X11149990Y-14185681D01*
X11140467Y-14166633D01*
X11121419Y-14157109D01*
X11092848Y-14157109D01*
X11073800Y-14147586D01*
X11064276Y-14128538D01*
X11064276Y-14119014D01*
X11073800Y-14099967D01*
X11092848Y-14090443D01*
X11121419Y-14090443D01*
X11140467Y-14099967D01*
X11216657Y-14299967D02*
X11226181Y-14290443D01*
X11245228Y-14261871D01*
X11254752Y-14242824D01*
X11264276Y-14214252D01*
X11273800Y-14166633D01*
X11273800Y-14128538D01*
X11264276Y-14080919D01*
X11254752Y-14052348D01*
X11245228Y-14033300D01*
X11226181Y-14004728D01*
X11216657Y-13995205D01*
D14*
X6047691Y-14436191D02*
X6047691Y-14358409D01*
X5969909Y-14358409D01*
X5969909Y-14436191D01*
X6047691Y-14436191D01*
D11*
X6426181Y-14487776D02*
X6311895Y-14487776D01*
X6369038Y-14487776D02*
X6369038Y-14287776D01*
X6349990Y-14316348D01*
X6330943Y-14335395D01*
X6311895Y-14344919D01*
X6511895Y-14468728D02*
X6521419Y-14478252D01*
X6511895Y-14487776D01*
X6502371Y-14478252D01*
X6511895Y-14468728D01*
X6511895Y-14487776D01*
X6711895Y-14487776D02*
X6597609Y-14487776D01*
X6654752Y-14487776D02*
X6654752Y-14287776D01*
X6635705Y-14316348D01*
X6616657Y-14335395D01*
X6597609Y-14344919D01*
X6835705Y-14287776D02*
X6854752Y-14287776D01*
X6873800Y-14297300D01*
X6883324Y-14306824D01*
X6892848Y-14325871D01*
X6902371Y-14363967D01*
X6902371Y-14411586D01*
X6892848Y-14449681D01*
X6883324Y-14468728D01*
X6873800Y-14478252D01*
X6854752Y-14487776D01*
X6835705Y-14487776D01*
X6816657Y-14478252D01*
X6807133Y-14468728D01*
X6797609Y-14449681D01*
X6788086Y-14411586D01*
X6788086Y-14363967D01*
X6797609Y-14325871D01*
X6807133Y-14306824D01*
X6816657Y-14297300D01*
X6835705Y-14287776D01*
X7026181Y-14287776D02*
X7045228Y-14287776D01*
X7064276Y-14297300D01*
X7073800Y-14306824D01*
X7083324Y-14325871D01*
X7092848Y-14363967D01*
X7092848Y-14411586D01*
X7083324Y-14449681D01*
X7073800Y-14468728D01*
X7064276Y-14478252D01*
X7045228Y-14487776D01*
X7026181Y-14487776D01*
X7007133Y-14478252D01*
X6997609Y-14468728D01*
X6988086Y-14449681D01*
X6978562Y-14411586D01*
X6978562Y-14363967D01*
X6988086Y-14325871D01*
X6997609Y-14306824D01*
X7007133Y-14297300D01*
X7026181Y-14287776D01*
X7178562Y-14487776D02*
X7178562Y-14354443D01*
X7178562Y-14373490D02*
X7188086Y-14363967D01*
X7207133Y-14354443D01*
X7235705Y-14354443D01*
X7254752Y-14363967D01*
X7264276Y-14383014D01*
X7264276Y-14487776D01*
X7264276Y-14383014D02*
X7273800Y-14363967D01*
X7292848Y-14354443D01*
X7321419Y-14354443D01*
X7340467Y-14363967D01*
X7349990Y-14383014D01*
X7349990Y-14487776D01*
X7445228Y-14487776D02*
X7445228Y-14354443D01*
X7445228Y-14373490D02*
X7454752Y-14363967D01*
X7473800Y-14354443D01*
X7502371Y-14354443D01*
X7521419Y-14363967D01*
X7530943Y-14383014D01*
X7530943Y-14487776D01*
X7530943Y-14383014D02*
X7540467Y-14363967D01*
X7559514Y-14354443D01*
X7588086Y-14354443D01*
X7607133Y-14363967D01*
X7616657Y-14383014D01*
X7616657Y-14487776D01*
X8007133Y-14278252D02*
X7835705Y-14535395D01*
X8264276Y-14287776D02*
X8283324Y-14287776D01*
X8302371Y-14297300D01*
X8311895Y-14306824D01*
X8321419Y-14325871D01*
X8330943Y-14363967D01*
X8330943Y-14411586D01*
X8321419Y-14449681D01*
X8311895Y-14468728D01*
X8302371Y-14478252D01*
X8283324Y-14487776D01*
X8264276Y-14487776D01*
X8245228Y-14478252D01*
X8235705Y-14468728D01*
X8226181Y-14449681D01*
X8216657Y-14411586D01*
X8216657Y-14363967D01*
X8226181Y-14325871D01*
X8235705Y-14306824D01*
X8245228Y-14297300D01*
X8264276Y-14287776D01*
X8416657Y-14468728D02*
X8426181Y-14478252D01*
X8416657Y-14487776D01*
X8407133Y-14478252D01*
X8416657Y-14468728D01*
X8416657Y-14487776D01*
X8549990Y-14287776D02*
X8569038Y-14287776D01*
X8588086Y-14297300D01*
X8597610Y-14306824D01*
X8607133Y-14325871D01*
X8616657Y-14363967D01*
X8616657Y-14411586D01*
X8607133Y-14449681D01*
X8597610Y-14468728D01*
X8588086Y-14478252D01*
X8569038Y-14487776D01*
X8549990Y-14487776D01*
X8530943Y-14478252D01*
X8521419Y-14468728D01*
X8511895Y-14449681D01*
X8502371Y-14411586D01*
X8502371Y-14363967D01*
X8511895Y-14325871D01*
X8521419Y-14306824D01*
X8530943Y-14297300D01*
X8549990Y-14287776D01*
X8788086Y-14354443D02*
X8788086Y-14487776D01*
X8740467Y-14278252D02*
X8692848Y-14421109D01*
X8816657Y-14421109D01*
X8873800Y-14287776D02*
X8997610Y-14287776D01*
X8930943Y-14363967D01*
X8959514Y-14363967D01*
X8978562Y-14373490D01*
X8988086Y-14383014D01*
X8997610Y-14402062D01*
X8997610Y-14449681D01*
X8988086Y-14468728D01*
X8978562Y-14478252D01*
X8959514Y-14487776D01*
X8902371Y-14487776D01*
X8883324Y-14478252D01*
X8873800Y-14468728D01*
X9064276Y-14287776D02*
X9188086Y-14287776D01*
X9121419Y-14363967D01*
X9149990Y-14363967D01*
X9169038Y-14373490D01*
X9178562Y-14383014D01*
X9188086Y-14402062D01*
X9188086Y-14449681D01*
X9178562Y-14468728D01*
X9169038Y-14478252D01*
X9149990Y-14487776D01*
X9092848Y-14487776D01*
X9073800Y-14478252D01*
X9064276Y-14468728D01*
X9264276Y-14287776D02*
X9264276Y-14325871D01*
X9340467Y-14287776D02*
X9340467Y-14325871D01*
X9635705Y-14563967D02*
X9626181Y-14554443D01*
X9607133Y-14525871D01*
X9597610Y-14506824D01*
X9588086Y-14478252D01*
X9578562Y-14430633D01*
X9578562Y-14392538D01*
X9588086Y-14344919D01*
X9597610Y-14316348D01*
X9607133Y-14297300D01*
X9626181Y-14268728D01*
X9635705Y-14259205D01*
X9692848Y-14287776D02*
X9816657Y-14287776D01*
X9749990Y-14363967D01*
X9778562Y-14363967D01*
X9797610Y-14373490D01*
X9807133Y-14383014D01*
X9816657Y-14402062D01*
X9816657Y-14449681D01*
X9807133Y-14468728D01*
X9797610Y-14478252D01*
X9778562Y-14487776D01*
X9721419Y-14487776D01*
X9702371Y-14478252D01*
X9692848Y-14468728D01*
X10054752Y-14487776D02*
X10054752Y-14287776D01*
X10140467Y-14487776D02*
X10140467Y-14383014D01*
X10130943Y-14363967D01*
X10111895Y-14354443D01*
X10083324Y-14354443D01*
X10064276Y-14363967D01*
X10054752Y-14373490D01*
X10264276Y-14487776D02*
X10245229Y-14478252D01*
X10235705Y-14468728D01*
X10226181Y-14449681D01*
X10226181Y-14392538D01*
X10235705Y-14373490D01*
X10245229Y-14363967D01*
X10264276Y-14354443D01*
X10292848Y-14354443D01*
X10311895Y-14363967D01*
X10321419Y-14373490D01*
X10330943Y-14392538D01*
X10330943Y-14449681D01*
X10321419Y-14468728D01*
X10311895Y-14478252D01*
X10292848Y-14487776D01*
X10264276Y-14487776D01*
X10445229Y-14487776D02*
X10426181Y-14478252D01*
X10416657Y-14459205D01*
X10416657Y-14287776D01*
X10597610Y-14478252D02*
X10578562Y-14487776D01*
X10540467Y-14487776D01*
X10521419Y-14478252D01*
X10511895Y-14459205D01*
X10511895Y-14383014D01*
X10521419Y-14363967D01*
X10540467Y-14354443D01*
X10578562Y-14354443D01*
X10597610Y-14363967D01*
X10607133Y-14383014D01*
X10607133Y-14402062D01*
X10511895Y-14421109D01*
X10683324Y-14478252D02*
X10702371Y-14487776D01*
X10740467Y-14487776D01*
X10759514Y-14478252D01*
X10769038Y-14459205D01*
X10769038Y-14449681D01*
X10759514Y-14430633D01*
X10740467Y-14421109D01*
X10711895Y-14421109D01*
X10692848Y-14411586D01*
X10683324Y-14392538D01*
X10683324Y-14383014D01*
X10692848Y-14363967D01*
X10711895Y-14354443D01*
X10740467Y-14354443D01*
X10759514Y-14363967D01*
X10835705Y-14563967D02*
X10845229Y-14554443D01*
X10864276Y-14525871D01*
X10873800Y-14506824D01*
X10883324Y-14478252D01*
X10892848Y-14430633D01*
X10892848Y-14392538D01*
X10883324Y-14344919D01*
X10873800Y-14316348D01*
X10864276Y-14297300D01*
X10845229Y-14268728D01*
X10835705Y-14259205D01*
D15*
X5998800Y-14726300D02*
X6063800Y-14661300D01*
X5998800Y-14596300D01*
X5933800Y-14661300D01*
X5998800Y-14726300D01*
D11*
X6426181Y-14751776D02*
X6311895Y-14751776D01*
X6369038Y-14751776D02*
X6369038Y-14551776D01*
X6349990Y-14580348D01*
X6330943Y-14599395D01*
X6311895Y-14608919D01*
X6511895Y-14732728D02*
X6521419Y-14742252D01*
X6511895Y-14751776D01*
X6502371Y-14742252D01*
X6511895Y-14732728D01*
X6511895Y-14751776D01*
X6588086Y-14551776D02*
X6711895Y-14551776D01*
X6645228Y-14627967D01*
X6673800Y-14627967D01*
X6692848Y-14637490D01*
X6702371Y-14647014D01*
X6711895Y-14666062D01*
X6711895Y-14713681D01*
X6702371Y-14732728D01*
X6692848Y-14742252D01*
X6673800Y-14751776D01*
X6616657Y-14751776D01*
X6597609Y-14742252D01*
X6588086Y-14732728D01*
X6835705Y-14551776D02*
X6854752Y-14551776D01*
X6873800Y-14561300D01*
X6883324Y-14570824D01*
X6892848Y-14589871D01*
X6902371Y-14627967D01*
X6902371Y-14675586D01*
X6892848Y-14713681D01*
X6883324Y-14732728D01*
X6873800Y-14742252D01*
X6854752Y-14751776D01*
X6835705Y-14751776D01*
X6816657Y-14742252D01*
X6807133Y-14732728D01*
X6797609Y-14713681D01*
X6788086Y-14675586D01*
X6788086Y-14627967D01*
X6797609Y-14589871D01*
X6807133Y-14570824D01*
X6816657Y-14561300D01*
X6835705Y-14551776D01*
X7026181Y-14551776D02*
X7045228Y-14551776D01*
X7064276Y-14561300D01*
X7073800Y-14570824D01*
X7083324Y-14589871D01*
X7092848Y-14627967D01*
X7092848Y-14675586D01*
X7083324Y-14713681D01*
X7073800Y-14732728D01*
X7064276Y-14742252D01*
X7045228Y-14751776D01*
X7026181Y-14751776D01*
X7007133Y-14742252D01*
X6997609Y-14732728D01*
X6988086Y-14713681D01*
X6978562Y-14675586D01*
X6978562Y-14627967D01*
X6988086Y-14589871D01*
X6997609Y-14570824D01*
X7007133Y-14561300D01*
X7026181Y-14551776D01*
X7178562Y-14751776D02*
X7178562Y-14618443D01*
X7178562Y-14637490D02*
X7188086Y-14627967D01*
X7207133Y-14618443D01*
X7235705Y-14618443D01*
X7254752Y-14627967D01*
X7264276Y-14647014D01*
X7264276Y-14751776D01*
X7264276Y-14647014D02*
X7273800Y-14627967D01*
X7292848Y-14618443D01*
X7321419Y-14618443D01*
X7340467Y-14627967D01*
X7349990Y-14647014D01*
X7349990Y-14751776D01*
X7445228Y-14751776D02*
X7445228Y-14618443D01*
X7445228Y-14637490D02*
X7454752Y-14627967D01*
X7473800Y-14618443D01*
X7502371Y-14618443D01*
X7521419Y-14627967D01*
X7530943Y-14647014D01*
X7530943Y-14751776D01*
X7530943Y-14647014D02*
X7540467Y-14627967D01*
X7559514Y-14618443D01*
X7588086Y-14618443D01*
X7607133Y-14627967D01*
X7616657Y-14647014D01*
X7616657Y-14751776D01*
X8007133Y-14542252D02*
X7835705Y-14799395D01*
X8264276Y-14551776D02*
X8283324Y-14551776D01*
X8302371Y-14561300D01*
X8311895Y-14570824D01*
X8321419Y-14589871D01*
X8330943Y-14627967D01*
X8330943Y-14675586D01*
X8321419Y-14713681D01*
X8311895Y-14732728D01*
X8302371Y-14742252D01*
X8283324Y-14751776D01*
X8264276Y-14751776D01*
X8245228Y-14742252D01*
X8235705Y-14732728D01*
X8226181Y-14713681D01*
X8216657Y-14675586D01*
X8216657Y-14627967D01*
X8226181Y-14589871D01*
X8235705Y-14570824D01*
X8245228Y-14561300D01*
X8264276Y-14551776D01*
X8416657Y-14732728D02*
X8426181Y-14742252D01*
X8416657Y-14751776D01*
X8407133Y-14742252D01*
X8416657Y-14732728D01*
X8416657Y-14751776D01*
X8549990Y-14551776D02*
X8569038Y-14551776D01*
X8588086Y-14561300D01*
X8597610Y-14570824D01*
X8607133Y-14589871D01*
X8616657Y-14627967D01*
X8616657Y-14675586D01*
X8607133Y-14713681D01*
X8597610Y-14732728D01*
X8588086Y-14742252D01*
X8569038Y-14751776D01*
X8549990Y-14751776D01*
X8530943Y-14742252D01*
X8521419Y-14732728D01*
X8511895Y-14713681D01*
X8502371Y-14675586D01*
X8502371Y-14627967D01*
X8511895Y-14589871D01*
X8521419Y-14570824D01*
X8530943Y-14561300D01*
X8549990Y-14551776D01*
X8797610Y-14551776D02*
X8702371Y-14551776D01*
X8692848Y-14647014D01*
X8702371Y-14637490D01*
X8721419Y-14627967D01*
X8769038Y-14627967D01*
X8788086Y-14637490D01*
X8797610Y-14647014D01*
X8807133Y-14666062D01*
X8807133Y-14713681D01*
X8797610Y-14732728D01*
X8788086Y-14742252D01*
X8769038Y-14751776D01*
X8721419Y-14751776D01*
X8702371Y-14742252D01*
X8692848Y-14732728D01*
X8997610Y-14751776D02*
X8883324Y-14751776D01*
X8940467Y-14751776D02*
X8940467Y-14551776D01*
X8921419Y-14580348D01*
X8902371Y-14599395D01*
X8883324Y-14608919D01*
X9073800Y-14570824D02*
X9083324Y-14561300D01*
X9102371Y-14551776D01*
X9149990Y-14551776D01*
X9169038Y-14561300D01*
X9178562Y-14570824D01*
X9188086Y-14589871D01*
X9188086Y-14608919D01*
X9178562Y-14637490D01*
X9064276Y-14751776D01*
X9188086Y-14751776D01*
X9264276Y-14551776D02*
X9264276Y-14589871D01*
X9340467Y-14551776D02*
X9340467Y-14589871D01*
X9635705Y-14827967D02*
X9626181Y-14818443D01*
X9607133Y-14789871D01*
X9597610Y-14770824D01*
X9588086Y-14742252D01*
X9578562Y-14694633D01*
X9578562Y-14656538D01*
X9588086Y-14608919D01*
X9597610Y-14580348D01*
X9607133Y-14561300D01*
X9626181Y-14532728D01*
X9635705Y-14523205D01*
X9702371Y-14570824D02*
X9711895Y-14561300D01*
X9730943Y-14551776D01*
X9778562Y-14551776D01*
X9797610Y-14561300D01*
X9807133Y-14570824D01*
X9816657Y-14589871D01*
X9816657Y-14608919D01*
X9807133Y-14637490D01*
X9692848Y-14751776D01*
X9816657Y-14751776D01*
X10054752Y-14751776D02*
X10054752Y-14551776D01*
X10140467Y-14751776D02*
X10140467Y-14647014D01*
X10130943Y-14627967D01*
X10111895Y-14618443D01*
X10083324Y-14618443D01*
X10064276Y-14627967D01*
X10054752Y-14637490D01*
X10264276Y-14751776D02*
X10245229Y-14742252D01*
X10235705Y-14732728D01*
X10226181Y-14713681D01*
X10226181Y-14656538D01*
X10235705Y-14637490D01*
X10245229Y-14627967D01*
X10264276Y-14618443D01*
X10292848Y-14618443D01*
X10311895Y-14627967D01*
X10321419Y-14637490D01*
X10330943Y-14656538D01*
X10330943Y-14713681D01*
X10321419Y-14732728D01*
X10311895Y-14742252D01*
X10292848Y-14751776D01*
X10264276Y-14751776D01*
X10445229Y-14751776D02*
X10426181Y-14742252D01*
X10416657Y-14723205D01*
X10416657Y-14551776D01*
X10597610Y-14742252D02*
X10578562Y-14751776D01*
X10540467Y-14751776D01*
X10521419Y-14742252D01*
X10511895Y-14723205D01*
X10511895Y-14647014D01*
X10521419Y-14627967D01*
X10540467Y-14618443D01*
X10578562Y-14618443D01*
X10597610Y-14627967D01*
X10607133Y-14647014D01*
X10607133Y-14666062D01*
X10511895Y-14685109D01*
X10683324Y-14742252D02*
X10702371Y-14751776D01*
X10740467Y-14751776D01*
X10759514Y-14742252D01*
X10769038Y-14723205D01*
X10769038Y-14713681D01*
X10759514Y-14694633D01*
X10740467Y-14685109D01*
X10711895Y-14685109D01*
X10692848Y-14675586D01*
X10683324Y-14656538D01*
X10683324Y-14647014D01*
X10692848Y-14627967D01*
X10711895Y-14618443D01*
X10740467Y-14618443D01*
X10759514Y-14627967D01*
X10835705Y-14827967D02*
X10845229Y-14818443D01*
X10864276Y-14789871D01*
X10873800Y-14770824D01*
X10883324Y-14742252D01*
X10892848Y-14694633D01*
X10892848Y-14656538D01*
X10883324Y-14608919D01*
X10873800Y-14580348D01*
X10864276Y-14561300D01*
X10845229Y-14532728D01*
X10835705Y-14523205D01*
M02*
